<svg xmlns="http://www.w3.org/2000/svg" width="270" height="69.955"><g fill="#2e97d9"><path d="M143.451 32.052h-3.36v-3.068h10.406v3.068h-3.36v8.906h-3.686zM155.495 40.958h3.698v-4.17h1.96c1.458 0 1.557 1.19 1.656 2.333.052.613.122 1.23.309 1.837h3.68c-.326-.548-.344-1.977-.396-2.566-.134-1.493-.753-2.607-1.768-2.98 1.231-.461 1.803-1.762 1.803-3.004 0-2.275-1.808-3.424-3.914-3.424h-7.028v11.974m3.698-9.127h1.72c1.406 0 1.832.443 1.832 1.195 0 1.08-.94 1.19-1.627 1.19h-1.925zM170.945 40.958h3.71l.536-1.708H179l.501 1.708h3.826l-4.356-11.974h-3.61l-4.416 11.974m5.051-4.275l1.155-3.692h.035l1.073 3.692zM191.942 40.958h-3.692V28.984h3.692zM198.964 28.984h3.774l3.493 6.404h.035v-6.404h3.488v11.974h-3.593l-3.674-6.532h-.03v6.532h-3.493zM97.054 40.958h3.71l.536-1.708h3.803l.508 1.708h3.831l-4.368-11.974h-3.604l-4.416 11.974m5.051-4.275l1.155-3.692h.035l1.073 3.692zM118.191 40.958h-3.698V28.984h3.698zM125.196 40.958h3.692v-4.17h1.96c1.463 0 1.562 1.19 1.662 2.333.052.613.122 1.23.303 1.837h3.692c-.338-.548-.35-1.977-.397-2.566-.14-1.493-.758-2.607-1.767-2.98 1.219-.461 1.79-1.762 1.79-3.004 0-2.275-1.807-3.424-3.907-3.424h-7.028v11.974m3.692-9.127h1.732c1.406 0 1.825.443 1.825 1.195 0 1.08-.939 1.19-1.627 1.19h-1.93zM227.665 36.677c0 3.32-1.499 4.62-4.514 4.62-3.05 0-4.41-1.703-4.41-4.34v-1.003h3.331v.688c0 .922 0 1.791.997 1.791.957 0 .893-1.167.893-1.703v-7.751h3.703v7.698M233.772 28.979h9.302v3.08h-5.593v1.504h4.8v2.858h-4.8v4.59h-3.71zM247.694 28.979h3.697v4.146h.035l3.307-4.146h4.561l-4.362 4.7L260 41.012h-4.613l-2.963-4.69-1.033 1.132v3.558h-3.697zM71.415 37.651h-5.377v-5.383h5.377zm8.661 0h-5.383v-5.383h5.383zm-17.31-5.383v5.378h-8.58v3.277h8.58v2.882h3.272v-2.882h5.377v2.882h3.278v-2.882h5.383v2.882h3.272v-2.882h5.372v-3.277h-5.372v-5.378h5.372V28.99h-5.372v-2.852h-3.272v2.852h-5.383v-2.852h-3.278v2.852h-5.377v-2.852h-3.272v2.852h-8.58v3.278zM86.101 44.143c-.064-.128-.198-.268-.478-.268a.631.631 0 0 0-.397.122.293.293 0 0 0-.116.245c0 .123.052.216.14.274.087.058.192.105.46.204.245.094.356.146.455.222a.486.486 0 0 1 .164.367c0 .14-.059.28-.181.385a.813.813 0 0 1-.543.193c-.396 0-.606-.158-.7-.362l.152-.023c.082.134.257.28.554.28a.608.608 0 0 0 .426-.163.386.386 0 0 0-.012-.595c-.075-.047-.169-.094-.455-.199-.291-.11-.373-.163-.454-.221a.456.456 0 0 1-.164-.35c0-.129.047-.251.17-.339.116-.087.28-.14.507-.14.367 0 .548.146.618.345zM87.78 45.694c.117-.332.35-.956.707-1.878h.233v2.03h-.146c0-.94 0-1.586.006-1.907h-.006c-.117.32-.356.95-.723 1.907h-.158c-.361-.945-.606-1.586-.723-1.907h-.012c.012.326.012.968.012 1.907h-.146v-2.03h.24c.35.933.589 1.546.705 1.878z"/><path d="M10 34.951c0-.577.105-1.131.28-1.662.91-2.77 3.692-2.654 3.692-2.654h11.303L39.856 10h6.771l-7.873 20.635H49.73l3.196-4.503h6.97l-3.54 8.877v-.058l3.54 8.865h-6.97l-3.196-4.508H38.754l7.873 20.647h-6.77L25.274 39.308H13.972s-2.782.128-3.692-2.636a5.33 5.33 0 0 1-.28-1.674v-.047"/></g></svg>