<?xml version="1.0" encoding="UTF-8" standalone="no"?>
<!-- Created with Inkscape (http://www.inkscape.org/) -->

<svg
   xmlns:dc="http://purl.org/dc/elements/1.1/"
   xmlns:cc="http://creativecommons.org/ns#"
   xmlns:rdf="http://www.w3.org/1999/02/22-rdf-syntax-ns#"
   xmlns:svg="http://www.w3.org/2000/svg"
   xmlns="http://www.w3.org/2000/svg"
   xmlns:sodipodi="http://sodipodi.sourceforge.net/DTD/sodipodi-0.dtd"
   xmlns:inkscape="http://www.inkscape.org/namespaces/inkscape"
   width="70.555557mm"
   height="11.619226mm"
   viewBox="0 0 250.00001 41.170484"
   id="svg17574"
   version="1.1"
   inkscape:version="0.91 r13725"
   sodipodi:docname="AirTrain EWR logo.svg">
  <defs
     id="defs17576" />
  <sodipodi:namedview
     id="base"
     pagecolor="#ffffff"
     bordercolor="#666666"
     borderopacity="1.0"
     inkscape:pageopacity="0.0"
     inkscape:pageshadow="2"
     inkscape:zoom="0.98994949"
     inkscape:cx="-2.4820457"
     inkscape:cy="-25.31206"
     inkscape:document-units="px"
     inkscape:current-layer="layer1"
     showgrid="false"
     fit-margin-top="0"
     fit-margin-left="0"
     fit-margin-right="0"
     fit-margin-bottom="0"
     inkscape:window-width="764"
     inkscape:window-height="411"
     inkscape:window-x="7"
     inkscape:window-y="-5"
     inkscape:window-maximized="0" />
  <metadata
     id="metadata17579">
    <rdf:RDF>
      <cc:Work
         rdf:about="">
        <dc:format>image/svg+xml</dc:format>
        <dc:type
           rdf:resource="http://purl.org/dc/dcmitype/StillImage" />
        <dc:title></dc:title>
      </cc:Work>
    </rdf:RDF>
  </metadata>
  <g
     inkscape:label="Ebene 1"
     inkscape:groupmode="layer"
     id="layer1"
     transform="translate(149.10923,115.14268)">
    <g
       id="g17658"
       transform="matrix(1.0621966,0,0,1.0621966,9.2740917,4.6008216)"
       style="fill:#c5074c;fill-opacity:1">
      <path
         style="fill:#c5074c;fill-opacity:1;fill-rule:nonzero;stroke:none"
         d="m -45.559431,-95.617703 -2.60254,0 0,-2.37793 8.07129,0 0,2.37793 -2.60742,0 0,6.914062 -2.86133,0 z"
         id="path1022"
         inkscape:connector-curvature="0" />
      <path
         style="fill:#c5074c;fill-opacity:1;fill-rule:nonzero;stroke:none"
         d="m -36.208841,-88.703641 2.86132,0 0,-3.242187 1.52344,0 c 1.13281,0 1.21094,0.927733 1.28418,1.811523 0.044,0.478515 0.0976,0.957032 0.24414,1.430664 l 2.85644,0 c -0.25878,-0.43457 -0.26855,-1.538086 -0.30761,-1.992187 -0.10737,-1.157227 -0.58594,-2.026368 -1.36719,-2.319337 0.95215,-0.351562 1.3916,-1.362305 1.3916,-2.329101 0,-1.762695 -1.40136,-2.651367 -3.03711,-2.651367 l -5.44921,0 0,9.291992 m 2.86132,-7.084961 1.34278,0 c 1.08886,0 1.4209,0.341797 1.4209,0.927735 0,0.83496 -0.72754,0.922851 -1.26465,0.922851 l -1.49903,0 z"
         id="path1024"
         inkscape:connector-curvature="0" />
      <path
         style="fill:#c5074c;fill-opacity:1;fill-rule:nonzero;stroke:none"
         d="m -24.221541,-88.703641 2.88086,0 0.41015,-1.328125 2.95899,0 0.39062,1.328125 2.96875,0 -3.38378,-9.291992 -2.80274,0 -3.42285,9.291992 m 3.9209,-3.325195 0.89355,-2.861329 0.0292,0 0.83496,2.861329 z"
         id="path1026"
         inkscape:connector-curvature="0" />
      <path
         style="fill:#c5074c;fill-opacity:1;fill-rule:nonzero;stroke:none"
         d="m -7.9324814,-88.703641 -2.8662096,0 0,-9.296875 2.8662096,0 z"
         id="path1028"
         inkscape:connector-curvature="0" />
      <path
         style="fill:#c5074c;fill-opacity:1;fill-rule:nonzero;stroke:none"
         d="m -2.4783814,-97.995633 2.92480997,0 2.70997003,4.96582 0.0244,0 0,-4.96582 2.70996,0 0,9.291992 -2.78321,0 -2.85644003,-5.073242 -0.0195,0 0,5.073242 -2.70995997,0 z"
         id="path1030"
         inkscape:connector-curvature="0" />
      <path
         style="fill:#c5074c;fill-opacity:1;fill-rule:nonzero;stroke:none"
         d="m -81.560406,-88.703641 2.880863,0 0.415037,-1.328125 2.9541,0 0.390625,1.328125 2.96875,0 -3.383788,-9.291992 -2.797849,0 -3.427738,9.291992 m 3.916013,-3.325195 0.898437,-2.861329 0.02925,0 0.834963,2.861329 z"
         id="path1032"
         inkscape:connector-curvature="0" />
      <path
         style="fill:#c5074c;fill-opacity:1;fill-rule:nonzero;stroke:none"
         d="m -65.159043,-88.703641 -2.866213,0 0,-9.296875 2.866213,0 z"
         id="path1034"
         inkscape:connector-curvature="0" />
      <path
         style="fill:#c5074c;fill-opacity:1;fill-rule:nonzero;stroke:none"
         d="m -59.719593,-88.703641 2.85645,0 0,-3.242187 1.528325,0 c 1.132812,0 1.210937,0.927733 1.289062,1.811523 0.039,0.478515 0.09275,0.957032 0.229488,1.430664 l 2.8711,0 c -0.263675,-0.43457 -0.278325,-1.538086 -0.3125,-1.992187 -0.107375,-1.157227 -0.585938,-2.026368 -1.367188,-2.319337 0.947263,-0.351562 1.386713,-1.362305 1.386713,-2.329101 0,-1.762695 -1.401363,-2.651367 -3.027338,-2.651367 l -5.454112,0 0,9.291992 m 2.85645,-7.084961 1.347662,0 c 1.088863,0 1.416013,0.341797 1.416013,0.927735 0,0.83496 -0.727538,0.922851 -1.259763,0.922851 l -1.503912,0 z"
         id="path1036"
         inkscape:connector-curvature="0" />
      <path
         style="fill:#c5074c;fill-opacity:1;fill-rule:nonzero;stroke:none"
         d="m -101.45298,-91.272001 -4.17481,0 0,-4.179687 4.17481,0 z m 6.713862,0 -4.1748,0 0,-4.179687 4.1748,0 z m -13.427742,-4.179687 0,4.174805 -6.65527,0 0,2.543945 6.65527,0 0,2.231446 2.53907,0 0,-2.231446 4.17481,0 0,2.231446 2.539062,0 0,-2.231446 4.1748,0 0,2.231446 2.54395,0 0,-2.231446 4.165037,0 0,-2.543945 -4.165037,0 0,-4.174805 4.165037,0 0,-2.543945 -4.165037,0 0,-2.211917 -2.54395,0 0,2.211917 -4.1748,0 0,-2.211917 -2.539062,0 0,2.211917 -4.17481,0 0,-2.211917 -2.53907,0 0,2.211917 -6.65527,0 0,2.543945 z"
         id="path1038"
         inkscape:connector-curvature="0" />
      <path
         style="fill:#c5074c;fill-opacity:1;fill-rule:nonzero;stroke:none"
         d="m -90.061381,-86.237821 c -0.044,-0.09766 -0.151375,-0.200195 -0.3711,-0.200195 -0.122,0 -0.234375,0.0293 -0.302737,0.08789 -0.0635,0.04395 -0.09275,0.1123 -0.09275,0.19043 0,0.09766 0.039,0.170898 0.107375,0.209961 0.0635,0.04883 0.146488,0.08301 0.35645,0.161132 0.190425,0.07324 0.278326,0.117188 0.351563,0.170899 0.07325,0.06348 0.131838,0.15625 0.131838,0.288086 0,0.107425 -0.04887,0.214844 -0.1416,0.292969 -0.08788,0.07813 -0.2295,0.15625 -0.424813,0.15625 -0.307612,0 -0.463862,-0.126954 -0.5371,-0.283204 l 0.11225,-0.01954 c 0.0635,0.107425 0.195313,0.214844 0.434575,0.214844 0.146475,0 0.2539,-0.05859 0.332025,-0.122075 0.0635,-0.05859 0.1025,-0.141602 0.1025,-0.229493 0,-0.1123 -0.05862,-0.180664 -0.117125,-0.234375 -0.05862,-0.03906 -0.131837,-0.07324 -0.351562,-0.151367 -0.224613,-0.08789 -0.292963,-0.131835 -0.351563,-0.175782 -0.0635,-0.04882 -0.12695,-0.141601 -0.12695,-0.273437 0,-0.09766 0.039,-0.190429 0.131838,-0.258789 0.08788,-0.06836 0.214837,-0.1123 0.390625,-0.1123 0.288087,0 0.429687,0.117188 0.4834,0.268555 z"
         id="path1040"
         inkscape:connector-curvature="0" />
      <path
         style="fill:#c5074c;fill-opacity:1;fill-rule:nonzero;stroke:none"
         d="m -88.757668,-85.036648 c 0.09275,-0.253907 0.273437,-0.737305 0.55175,-1.455079 l 0.175787,0 0,1.572266 -0.107375,0 c 0,-0.72754 0,-1.225586 0.005,-1.47461 l -0.005,0 c -0.09275,0.249024 -0.2832,0.737305 -0.566412,1.47461 l -0.122,0 c -0.278325,-0.732422 -0.463875,-1.225586 -0.556638,-1.47461 l -0.01,0 c 0.01,0.253906 0.01,0.74707 0.01,1.47461 l -0.112375,0 0,-1.572266 0.180662,0 c 0.273438,0.722656 0.458988,1.201172 0.546875,1.455079 z"
         id="path1042"
         inkscape:connector-curvature="0" />
      <path
         style="fill:#c5074c;fill-opacity:1;fill-rule:nonzero;stroke:none"
         d="m -149.10923,-93.366727 c 0,-0.449219 0.0781,-0.878906 0.21972,-1.293945 0.69824,-2.143555 2.86133,-2.060548 2.86133,-2.060548 l 8.76952,0 11.31349,-16.01074 5.25879,0 -6.11329,16.01074 8.51563,0 2.48535,-3.49121 5.41016,0 -2.75391,6.889648 0,-0.04395 2.75391,6.879882 -5.41016,0 -2.48535,-3.505858 -8.51563,0 6.11329,16.020507 -5.25879,0 -11.31349,-16.020507 -8.76952,0 c 0,0 -2.16309,0.102537 -2.86133,-2.041017 -0.1416,-0.410156 -0.21972,-0.849608 -0.21972,-1.298827 l 0,-0.03417"
         id="path1044"
         inkscape:connector-curvature="0" />
      <path
         style="fill:#c5074c;fill-opacity:1;fill-rule:nonzero;stroke:none"
         d="m 13.556779,-97.980985 2.8955,0 2.67579,4.916993 0.0244,0 0,-4.916993 2.67579,0 0,9.179688 -2.75391,0 -2.8125,-5.014649 -0.0292,0 0,5.014649 -2.67578,0 z"
         id="path1046"
         inkscape:connector-curvature="0" />
      <path
         style="fill:#c5074c;fill-opacity:1;fill-rule:nonzero;stroke:none"
         d="m 26.261859,-97.980985 7.59766,0 0,2.353515 -4.77051,0 0,1.142579 4.33105,0 0,2.1875 -4.33105,0 0,1.142578 4.91211,0 0,2.353516 -7.73926,0 z"
         id="path1048"
         inkscape:connector-curvature="0" />
      <path
         style="fill:#c5074c;fill-opacity:1;fill-rule:nonzero;stroke:none"
         d="m 47.433729,-88.801297 -2.74902,0 -0.99609,-5.59082 -0.0195,0 -0.96191,5.59082 -2.76855,0 -2.49024,-9.179688 2.77344,0 1.11816,5.673828 0.0244,0 1.10352,-5.673828 2.49512,0 1.0791,5.74707 0.0292,0 1.14258,-5.74707 2.78808,0 z"
         id="path1050"
         inkscape:connector-curvature="0" />
      <path
         style="fill:#c5074c;fill-opacity:1;fill-rule:nonzero;stroke:none"
         d="m 51.740369,-88.801297 2.83691,0 0.41505,-1.313476 2.91504,0 0.39062,1.313476 2.92969,0 -3.34472,-9.179688 -2.76368,0 z m 3.86719,-3.276368 0.88378,-2.827148 0.0292,0 0.82032,2.827148 z"
         id="path1052"
         inkscape:connector-curvature="0" />
      <path
         style="fill:#c5074c;fill-opacity:1;fill-rule:nonzero;stroke:none"
         d="m 64.298969,-88.801297 2.82226,0 0,-3.198243 1.50879,0 c 1.11816,0 1.19629,0.913087 1.27441,1.782227 0.039,0.478516 0.0879,0.952148 0.23438,1.416016 l 2.82227,0 c -0.2588,-0.424805 -0.26856,-1.513673 -0.30762,-1.967774 -0.1025,-1.142577 -0.57618,-1.987305 -1.35254,-2.290039 0.9375,-0.34668 1.37695,-1.347656 1.37695,-2.299805 0,-1.733398 -1.38671,-2.62207 -2.99316,-2.62207 l -5.38574,0 z m 2.82226,-6.992188 1.32813,0 c 1.0791,0 1.40136,0.336914 1.40136,0.913087 0,0.820312 -0.71776,0.917968 -1.24511,0.917968 l -1.48438,0 z"
         id="path1054"
         inkscape:connector-curvature="0" />
      <path
         style="fill:#c5074c;fill-opacity:1;fill-rule:nonzero;stroke:none"
         d="m 76.857559,-97.980985 2.82715,0 0,3.164063 0.0244,0 2.51954,-3.164063 3.48632,0 -3.3252,3.588868 3.86232,5.59082 -3.52052,0 -2.26073,-3.574219 -0.78614,0.864258 0,2.709961 -2.82715,0 z"
         id="path1056"
         inkscape:connector-curvature="0" />
      <path
         inkscape:connector-curvature="0"
         id="path12356"
         d="m -45.559431,-95.617703 -2.60254,0 0,-2.37793 8.07129,0 0,2.37793 -2.60742,0 0,6.914062 -2.86133,0 z"
         style="fill:#c5074c;fill-opacity:1;fill-rule:nonzero;stroke:none" />
      <path
         inkscape:connector-curvature="0"
         id="path12358"
         d="m -36.208841,-88.703641 2.86132,0 0,-3.242187 1.52344,0 c 1.13281,0 1.21094,0.927733 1.28418,1.811523 0.044,0.478515 0.0976,0.957032 0.24414,1.430664 l 2.85644,0 c -0.25878,-0.43457 -0.26855,-1.538086 -0.30761,-1.992187 -0.10737,-1.157227 -0.58594,-2.026368 -1.36719,-2.319337 0.95215,-0.351562 1.3916,-1.362305 1.3916,-2.329101 0,-1.762695 -1.40136,-2.651367 -3.03711,-2.651367 l -5.44921,0 0,9.291992 m 2.86132,-7.084961 1.34278,0 c 1.08886,0 1.4209,0.341797 1.4209,0.927735 0,0.83496 -0.72754,0.922851 -1.26465,0.922851 l -1.49903,0 z"
         style="fill:#c5074c;fill-opacity:1;fill-rule:nonzero;stroke:none" />
      <path
         inkscape:connector-curvature="0"
         id="path12360"
         d="m -24.221541,-88.703641 2.88086,0 0.41015,-1.328125 2.95899,0 0.39062,1.328125 2.96875,0 -3.38378,-9.291992 -2.80274,0 -3.42285,9.291992 m 3.9209,-3.325195 0.89355,-2.861329 0.0292,0 0.83496,2.861329 z"
         style="fill:#c5074c;fill-opacity:1;fill-rule:nonzero;stroke:none" />
      <path
         inkscape:connector-curvature="0"
         id="path12362"
         d="m -7.9324814,-88.703641 -2.8662096,0 0,-9.296875 2.8662096,0 z"
         style="fill:#c5074c;fill-opacity:1;fill-rule:nonzero;stroke:none" />
      <path
         inkscape:connector-curvature="0"
         id="path12364"
         d="m -2.4783814,-97.995633 2.92480997,0 2.70997003,4.96582 0.0244,0 0,-4.96582 2.70996,0 0,9.291992 -2.78321,0 -2.85644003,-5.073242 -0.0195,0 0,5.073242 -2.70995997,0 z"
         style="fill:#c5074c;fill-opacity:1;fill-rule:nonzero;stroke:none" />
      <path
         inkscape:connector-curvature="0"
         id="path12366"
         d="m -81.560406,-88.703641 2.880863,0 0.415037,-1.328125 2.9541,0 0.390625,1.328125 2.96875,0 -3.383788,-9.291992 -2.797849,0 -3.427738,9.291992 m 3.916013,-3.325195 0.898437,-2.861329 0.02925,0 0.834963,2.861329 z"
         style="fill:#c5074c;fill-opacity:1;fill-rule:nonzero;stroke:none" />
      <path
         inkscape:connector-curvature="0"
         id="path12368"
         d="m -65.159043,-88.703641 -2.866213,0 0,-9.296875 2.866213,0 z"
         style="fill:#c5074c;fill-opacity:1;fill-rule:nonzero;stroke:none" />
      <path
         inkscape:connector-curvature="0"
         id="path12370"
         d="m -59.719593,-88.703641 2.85645,0 0,-3.242187 1.528325,0 c 1.132812,0 1.210937,0.927733 1.289062,1.811523 0.039,0.478515 0.09275,0.957032 0.229488,1.430664 l 2.8711,0 c -0.263675,-0.43457 -0.278325,-1.538086 -0.3125,-1.992187 -0.107375,-1.157227 -0.585938,-2.026368 -1.367188,-2.319337 0.947263,-0.351562 1.386713,-1.362305 1.386713,-2.329101 0,-1.762695 -1.401363,-2.651367 -3.027338,-2.651367 l -5.454112,0 0,9.291992 m 2.85645,-7.084961 1.347662,0 c 1.088863,0 1.416013,0.341797 1.416013,0.927735 0,0.83496 -0.727538,0.922851 -1.259763,0.922851 l -1.503912,0 z"
         style="fill:#c5074c;fill-opacity:1;fill-rule:nonzero;stroke:none" />
      <path
         inkscape:connector-curvature="0"
         id="path12372"
         d="m -101.45298,-91.272001 -4.17481,0 0,-4.179687 4.17481,0 z m 6.713862,0 -4.1748,0 0,-4.179687 4.1748,0 z m -13.427742,-4.179687 0,4.174805 -6.65527,0 0,2.543945 6.65527,0 0,2.231446 2.53907,0 0,-2.231446 4.17481,0 0,2.231446 2.539062,0 0,-2.231446 4.1748,0 0,2.231446 2.54395,0 0,-2.231446 4.165037,0 0,-2.543945 -4.165037,0 0,-4.174805 4.165037,0 0,-2.543945 -4.165037,0 0,-2.211917 -2.54395,0 0,2.211917 -4.1748,0 0,-2.211917 -2.539062,0 0,2.211917 -4.17481,0 0,-2.211917 -2.53907,0 0,2.211917 -6.65527,0 0,2.543945 z"
         style="fill:#c5074c;fill-opacity:1;fill-rule:nonzero;stroke:none" />
      <path
         inkscape:connector-curvature="0"
         id="path12374"
         d="m -90.061381,-86.237821 c -0.044,-0.09766 -0.151375,-0.200195 -0.3711,-0.200195 -0.122,0 -0.234375,0.0293 -0.302737,0.08789 -0.0635,0.04395 -0.09275,0.1123 -0.09275,0.19043 0,0.09766 0.039,0.170898 0.107375,0.209961 0.0635,0.04883 0.146488,0.08301 0.35645,0.161132 0.190425,0.07324 0.278326,0.117188 0.351563,0.170899 0.07325,0.06348 0.131838,0.15625 0.131838,0.288086 0,0.107425 -0.04887,0.214844 -0.1416,0.292969 -0.08788,0.07813 -0.2295,0.15625 -0.424813,0.15625 -0.307612,0 -0.463862,-0.126954 -0.5371,-0.283204 l 0.11225,-0.01954 c 0.0635,0.107425 0.195313,0.214844 0.434575,0.214844 0.146475,0 0.2539,-0.05859 0.332025,-0.122075 0.0635,-0.05859 0.1025,-0.141602 0.1025,-0.229493 0,-0.1123 -0.05862,-0.180664 -0.117125,-0.234375 -0.05862,-0.03906 -0.131837,-0.07324 -0.351562,-0.151367 -0.224613,-0.08789 -0.292963,-0.131835 -0.351563,-0.175782 -0.0635,-0.04882 -0.12695,-0.141601 -0.12695,-0.273437 0,-0.09766 0.039,-0.190429 0.131838,-0.258789 0.08788,-0.06836 0.214837,-0.1123 0.390625,-0.1123 0.288087,0 0.429687,0.117188 0.4834,0.268555 z"
         style="fill:#c5074c;fill-opacity:1;fill-rule:nonzero;stroke:none" />
      <path
         inkscape:connector-curvature="0"
         id="path12376"
         d="m -88.757668,-85.036648 c 0.09275,-0.253907 0.273437,-0.737305 0.55175,-1.455079 l 0.175787,0 0,1.572266 -0.107375,0 c 0,-0.72754 0,-1.225586 0.005,-1.47461 l -0.005,0 c -0.09275,0.249024 -0.2832,0.737305 -0.566412,1.47461 l -0.122,0 c -0.278325,-0.732422 -0.463875,-1.225586 -0.556638,-1.47461 l -0.01,0 c 0.01,0.253906 0.01,0.74707 0.01,1.47461 l -0.112375,0 0,-1.572266 0.180662,0 c 0.273438,0.722656 0.458988,1.201172 0.546875,1.455079 z"
         style="fill:#c5074c;fill-opacity:1;fill-rule:nonzero;stroke:none" />
      <path
         inkscape:connector-curvature="0"
         id="path12378"
         d="m -149.10923,-93.366727 c 0,-0.449219 0.0781,-0.878906 0.21972,-1.293945 0.69824,-2.143555 2.86133,-2.060548 2.86133,-2.060548 l 8.76952,0 11.31349,-16.01074 5.25879,0 -6.11329,16.01074 8.51563,0 2.48535,-3.49121 5.41016,0 -2.75391,6.889648 0,-0.04395 2.75391,6.879882 -5.41016,0 -2.48535,-3.505858 -8.51563,0 6.11329,16.020507 -5.25879,0 -11.31349,-16.020507 -8.76952,0 c 0,0 -2.16309,0.102537 -2.86133,-2.041017 -0.1416,-0.410156 -0.21972,-0.849608 -0.21972,-1.298827 l 0,-0.03417"
         style="fill:#c5074c;fill-opacity:1;fill-rule:nonzero;stroke:none" />
      <path
         inkscape:connector-curvature="0"
         id="path12380"
         d="m 13.556779,-97.980985 2.8955,0 2.67579,4.916993 0.0244,0 0,-4.916993 2.67579,0 0,9.179688 -2.75391,0 -2.8125,-5.014649 -0.0292,0 0,5.014649 -2.67578,0 z"
         style="fill:#c5074c;fill-opacity:1;fill-rule:nonzero;stroke:none" />
      <path
         inkscape:connector-curvature="0"
         id="path12382"
         d="m 26.261859,-97.980985 7.59766,0 0,2.353515 -4.77051,0 0,1.142579 4.33105,0 0,2.1875 -4.33105,0 0,1.142578 4.91211,0 0,2.353516 -7.73926,0 z"
         style="fill:#c5074c;fill-opacity:1;fill-rule:nonzero;stroke:none" />
      <path
         inkscape:connector-curvature="0"
         id="path12384"
         d="m 47.433729,-88.801297 -2.74902,0 -0.99609,-5.59082 -0.0195,0 -0.96191,5.59082 -2.76855,0 -2.49024,-9.179688 2.77344,0 1.11816,5.673828 0.0244,0 1.10352,-5.673828 2.49512,0 1.0791,5.74707 0.0292,0 1.14258,-5.74707 2.78808,0 z"
         style="fill:#c5074c;fill-opacity:1;fill-rule:nonzero;stroke:none" />
      <path
         inkscape:connector-curvature="0"
         id="path12386"
         d="m 51.740369,-88.801297 2.83691,0 0.41505,-1.313476 2.91504,0 0.39062,1.313476 2.92969,0 -3.34472,-9.179688 -2.76368,0 z m 3.86719,-3.276368 0.88378,-2.827148 0.0292,0 0.82032,2.827148 z"
         style="fill:#c5074c;fill-opacity:1;fill-rule:nonzero;stroke:none" />
      <path
         inkscape:connector-curvature="0"
         id="path12388"
         d="m 64.298969,-88.801297 2.82226,0 0,-3.198243 1.50879,0 c 1.11816,0 1.19629,0.913087 1.27441,1.782227 0.039,0.478516 0.0879,0.952148 0.23438,1.416016 l 2.82227,0 c -0.2588,-0.424805 -0.26856,-1.513673 -0.30762,-1.967774 -0.1025,-1.142577 -0.57618,-1.987305 -1.35254,-2.290039 0.9375,-0.34668 1.37695,-1.347656 1.37695,-2.299805 0,-1.733398 -1.38671,-2.62207 -2.99316,-2.62207 l -5.38574,0 z m 2.82226,-6.992188 1.32813,0 c 1.0791,0 1.40136,0.336914 1.40136,0.913087 0,0.820312 -0.71776,0.917968 -1.24511,0.917968 l -1.48438,0 z"
         style="fill:#c5074c;fill-opacity:1;fill-rule:nonzero;stroke:none" />
      <path
         inkscape:connector-curvature="0"
         id="path12390"
         d="m 76.857559,-97.980985 2.82715,0 0,3.164063 0.0244,0 2.51954,-3.164063 3.48632,0 -3.3252,3.588868 3.86232,5.59082 -3.52052,0 -2.26073,-3.574219 -0.78614,0.864258 0,2.709961 -2.82715,0 z"
         style="fill:#c5074c;fill-opacity:1;fill-rule:nonzero;stroke:none" />
    </g>
  </g>
</svg>
