<?xml version="1.0" encoding="utf-8"?>
<!-- Generator: Adobe Illustrator 19.2.1, SVG Export Plug-In . SVG Version: 6.00 Build 0)  -->
<svg version="1.1" id="Layer_1" xmlns="http://www.w3.org/2000/svg" xmlns:xlink="http://www.w3.org/1999/xlink" x="0px" y="0px"
	 viewBox="0 0 226.5 55.7" style="enable-background:new 0 0 226.5 55.7;" xml:space="preserve">
<metadata><?xpacket begin="﻿" id="W5M0MpCehiHzreSzNTczkc9d"?>
<x:xmpmeta xmlns:x="adobe:ns:meta/" x:xmptk="Adobe XMP Core 5.6-c111 79.158366, 2015/09/25-01:12:00        ">
   <rdf:RDF xmlns:rdf="http://www.w3.org/1999/02/22-rdf-syntax-ns#">
      <rdf:Description rdf:about=""/>
   </rdf:RDF>
</x:xmpmeta>
                                                                                                    
                                                                                                    
                                                                                                    
                                                                                                    
                                                                                                    
                                                                                                    
                                                                                                    
                                                                                                    
                                                                                                    
                                                                                                    
                                                                                                    
                                                                                                    
                                                                                                    
                                                                                                    
                                                                                                    
                                                                                                    
                                                                                                    
                                                                                                    
                                                                                                    
                                                                                                    
                           
<?xpacket end="w"?></metadata>
<style type="text/css">
	.st0{fill:none;}
	.st1{fill:#FBD206;}
	.st2{fill:#5D6771;}
</style>
<g>
	<path class="st0" d="M131.4,33.4c3.8-2,6.9-5,9.7-8c2.4-2.6,3.2-3.7,4.9-6.8c0.5-0.4,0.9-1.5,1.3-1.9c1.6-2.8,5.6-11.2,3.1-12.5
		c-2-1-4.8,2.7-5.8,4c-0.4,0.5-1.2,1.6-1.6,2.2c-1.1,1.9-1.1,1.4-2.3,3.3c0-0.1-1.9,2.4-1,1.3c-3.8,5.9-7.9,11.6-10.1,19.6
		L131.4,33.4z"/>
	<g>
		<path class="st0" d="M131.4,33.4c3.8-2,6.9-5,9.7-8c2.4-2.6,3.2-3.7,4.9-6.8c0.5-0.4,0.9-1.5,1.3-1.9c1.6-2.8,5.6-11.2,3.1-12.5
			c-2-1-4.8,2.7-5.8,4c-0.4,0.5-1.2,1.6-1.6,2.2c-1.1,1.9-1.1,1.4-2.3,3.3c0-0.1-1.9,2.4-1,1.3c-3.8,5.9-7.9,11.6-10.1,19.6
			L131.4,33.4z"/>
		<path class="st1" d="M198.6,43.7c-3.3,0-17.5-0.1-21.7,0.3c-7.6-0.6-24.2,2.3-35.2,1.7c-1.9-0.1-3.6-0.4-4.5-0.5
			c-3.9-0.5-9.5-3.6-7.8-8c3.1-1.5,5.7-3.6,8.5-5.4c1.4-1.2,5-5.7,5.4-6.1c0.5-0.5,2.9-3.4,3.3-4c4.4-6,11.3-20.7,2.3-19.2
			c-1.5,0.8-3.3,1.6-4.2,2.8c-0.5,0.6-1.7,1.8-4.4,5.4c-3.8,6-10.6,14.2-12.4,24.6c-4.2,3.2-10.2,6.6-16.2,7.9c-4,0.7-3.4,0.7-6.7,1
			c-9.4,1.2-21,0.5-30.1,0.4c-2.8,0-11.8-0.1-14.7-0.1c-5.7,0-15.3,0.4-18.8,0.5c-8.4,0.2-17.9-0.7-25.6-0.9
			C9.8,44,4.2,43.8,0.4,43.7c-0.1,0-0.2,0-0.4,0v1.9c3.8,0.1,12.1,0.2,19,0.4c0.4,0,19.1,0.8,30,0.2c9.9-0.5,23.1,0.2,29.5,0.2
			c1.6,0,10.4,0,12.2,0c4-0.1,9.9,0.2,13.8-0.3c2.3-0.3,5.2-0.8,4.7-0.7c0.3-0.1,1.6-0.4,2.1-0.5c4.2-0.5,15.7-6.4,15.7-6.8
			c-1.3,6.8,6.1,8,9.1,8.9c6.9,0.8,7,0.6,11.5,0.5c4.1-0.1,17.4-1.5,19.1-1.5c6-0.1,11.8-0.8,18.1-0.9c0.3-0.1,20.9-0.1,41.7,0v-1.6
			C211.5,43.6,198.7,43.6,198.6,43.7z M140.7,13.8c1.3-1.8,1.2-1.3,2.3-3.3c0.4-0.6,1.1-1.7,1.6-2.2c1-1.3,3.8-5.1,5.8-4
			c2.6,1.3-1.5,9.7-3.1,12.5c-0.5,0.4-0.9,1.5-1.3,1.9c-1.7,3.1-2.5,4.1-4.9,6.8c-2.8,3-5.8,6-9.7,8l-1.9,1.2
			c2.2-7.9,6.3-13.6,10.1-19.6C138.7,16.2,140.7,13.6,140.7,13.8z"/>
	</g>
</g>
<path class="st2" d="M47.1,30.6c0,3.4-2.3,7.1-5.9,7.1c-1.9,0-3.8-0.9-5-2.2l1.5-7.1c1.6-1.7,3.7-2.7,5.5-2.7
	C45.6,25.7,47.1,27.6,47.1,30.6 M44,21.9c-1.9,0-3.7,0.6-5.3,1.8l2.1-9.8h-4.3l-4.6,22l-0.1,0.2c-0.3,1.3-0.6,2.7-1.2,4.1l-0.3,0.9
	h4.1l0.2-0.4c0.2-0.5,0.4-1.1,0.6-1.6c1.5,1.6,3.7,2.5,6.3,2.5h0h0c6.3,0,10.2-5.8,10.2-11.2C51.6,25.5,48.4,21.9,44,21.9"/>
<path class="st2" d="M67.5,23.2L67.3,23c-0.5-0.7-1.7-1.1-3.1-1.1c-1.9,0-3.3,1-4.4,2.2c0-0.4,0-0.7,0-1.1l0-0.6h-3.9v0.6
	c0,1.4-0.1,2.7-0.5,4.3l-2.9,13.7h4.3l2.6-12.2c1-1.1,2.9-2.9,4.6-2.9c0.6,0,1.5,0.2,1.9,0.6l0.8,0.7L67.5,23.2z"/>
<polygon class="st2" points="70.4,22.4 66.4,41.1 70.7,41.1 74.6,22.4 "/>
<path class="st2" d="M84.3,37.8c-2.4,0-4-1.9-4-4.9c0-3.5,2.2-7.1,5.9-7.2c2.1,0,4,1.1,5,2.3l-1.5,7.1
	C88.2,36.8,86.2,37.8,84.3,37.8 M97.4,22.4h-4.1l-0.2,0.3c-0.3,0.5-0.5,1.1-0.7,1.7c-1.5-1.7-3.8-2.6-6.3-2.6l-0.1,0
	c-5.6,0-10.2,5.1-10.2,11.2c0,4.9,3.2,8.5,7.7,8.5c1.8,0,3.5-0.6,5.2-1.7l-1.6,5.9c-0.5,2.4-2.4,3.8-5.2,3.8c-2.4,0-4.8-0.9-6.1-2.4
	l-0.5-0.6l-2.4,3.1l0.4,0.4c2,2.1,5,3.2,8.4,3.2c4.9,0,8.6-2.7,9.5-7l4.4-18.8c0.4-1.7,0.8-3.1,1.3-4.3L97.4,22.4z"/>
<path class="st2" d="M110.2,21.9c-1.7,0-3.5,0.6-5.4,1.9l2.1-10h-4.3l-5.8,27.2h4.3l2.7-12.7c1.3-1.3,3.1-2.7,5.4-2.7
	c1.5,0,3.1,0.6,3.1,2.5c0,0.5-0.1,1.2-0.3,2l-2.3,10.9h4.2l2.2-10.3c0.2-1.1,0.4-1.8,0.4-2.7C116.5,24.5,113.9,21.9,110.2,21.9"/>
<path class="st2" d="M128.6,17.2h-4.2l-1.2,5.3h-3.4L119,26h3.4l-2.1,9.9c-0.1,0.6-0.2,1.2-0.2,1.6c0,2.7,1.8,4.3,4.7,4.3
	c1.3,0,3.2-0.3,4.2-0.8l0.3-0.2l0.2-3.7l-0.9,0.4c-0.5,0.2-1.8,0.4-2.6,0.4c-1.5,0-1.5-0.8-1.5-1c0-0.2,0.1-0.6,0.2-1l2.1-9.9h5.2
	l0.7-3.6h-5.2L128.6,17.2z"/>
<polygon class="st2" points="139,13.8 133.2,41.1 136.2,41.1 142,13.8 "/>
<polygon class="st2" points="141.4,41.1 144.4,41.1 148.2,23.1 145.1,23.1 "/>
<path class="st2" d="M161.7,22.6c-2.5,0-4.8,1.2-6.3,2.3c0-0.4,0-0.9-0.1-1.3l-0.1-0.6h-2.8l0.1,0.7c0.1,1.1,0,2.2-0.2,3.4
	l-2.9,13.9h3l2.7-12.8c1.5-1.3,3.7-2.8,6.1-2.8c2,0,4,1,4,3.1c0,0.7-0.2,1.7-0.3,2.1l-2.2,10.4h3.1l2.1-10.1l0-0.1
	c0.2-0.9,0.3-1.5,0.3-2.3C168.2,25.1,165.5,22.6,161.7,22.6"/>
<path class="st2" d="M173.8,29.8c1.2-2.7,3.9-4.5,6.8-4.5c1.7,0,3.1,0.5,4.1,1.5c0.7,0.8,1.1,1.8,1.1,2.9H173.8z M180.6,22.6
	c-5.7,0-10.5,4.8-10.5,10.5c0,5,3.6,8.4,8.7,8.4c2.9,0,5.5-0.8,8-2.5l0.5-0.4l-1.7-2.3l-0.5,0.3c-1.9,1.3-3.9,2-6,2
	c-3.5,0-6-2.4-6-5.8c0-0.2,0-0.4,0-0.5h15.6l0.1-0.5c0.1-0.5,0.1-1,0.1-1.5C189,25.7,185.7,22.6,180.6,22.6"/>
<path class="st2" d="M73.3,20.6c1.4,0,2.5-1.1,2.5-2.5c0-1.4-1.1-2.5-2.5-2.5c-1.4,0-2.5,1.1-2.5,2.5C70.8,19.4,71.9,20.6,73.3,20.6
	"/>
<path class="st2" d="M147.4,16.2c-1,0-1.8,0.8-1.8,1.8c0,1,0.8,1.8,1.8,1.8c1,0,1.8-0.8,1.8-1.8C149.2,17.1,148.4,16.2,147.4,16.2"
	/>
</svg>
