<?xml version="1.0" encoding="UTF-8" standalone="no"?>
<!-- Created with Inkscape (http://www.inkscape.org/) -->

<svg
   xmlns:dc="http://purl.org/dc/elements/1.1/"
   xmlns:cc="http://creativecommons.org/ns#"
   xmlns:rdf="http://www.w3.org/1999/02/22-rdf-syntax-ns#"
   xmlns:svg="http://www.w3.org/2000/svg"
   xmlns="http://www.w3.org/2000/svg"
   xmlns:sodipodi="http://sodipodi.sourceforge.net/DTD/sodipodi-0.dtd"
   xmlns:inkscape="http://www.inkscape.org/namespaces/inkscape"
   width="169.0538"
   height="48.543308"
   id="svg4194"
   version="1.1"
   inkscape:version="0.48.5 r10040"
   sodipodi:docname="New document 11">
  <defs
     id="defs4196">
    <clipPath
       clipPathUnits="userSpaceOnUse"
       id="clipPath852">
      <path
         inkscape:connector-curvature="0"
         d="m 0,0 1008,0 0,612 L 0,612 0,0 z"
         id="path854" />
    </clipPath>
    <clipPath
       clipPathUnits="userSpaceOnUse"
       id="clipPath828">
      <path
         inkscape:connector-curvature="0"
         d="m 0,0 1008,0 0,612 L 0,612 0,0 z"
         id="path830" />
    </clipPath>
    <clipPath
       clipPathUnits="userSpaceOnUse"
       id="clipPath800">
      <path
         inkscape:connector-curvature="0"
         d="m 0,0 1008,0 0,612 L 0,612 0,0 z"
         id="path802" />
    </clipPath>
  </defs>
  <sodipodi:namedview
     inkscape:document-units="mm"
     pagecolor="#ffffff"
     bordercolor="#666666"
     borderopacity="1.0"
     inkscape:pageopacity="0.0"
     inkscape:pageshadow="2"
     inkscape:zoom="1.2279853"
     inkscape:cx="44.107676"
     inkscape:cy="43.164435"
     inkscape:current-layer="layer1"
     id="namedview4198"
     showgrid="false"
     units="mm"
     fit-margin-top="0.5"
     fit-margin-left="0.5"
     fit-margin-right="0.5"
     fit-margin-bottom="0.5"
     inkscape:window-width="463"
     inkscape:window-height="405"
     inkscape:window-x="130"
     inkscape:window-y="130"
     inkscape:window-maximized="0" />
  <metadata
     id="metadata4200">
    <rdf:RDF>
      <cc:Work
         rdf:about="">
        <dc:format>image/svg+xml</dc:format>
        <dc:type
           rdf:resource="http://purl.org/dc/dcmitype/StillImage" />
        <dc:title></dc:title>
      </cc:Work>
    </rdf:RDF>
  </metadata>
  <g
     inkscape:label="Layer 1"
     inkscape:groupmode="layer"
     id="layer1"
     transform="translate(-373.8312,-270.67796)">
    <g
       id="g752"
       transform="matrix(1.25,0,0,-1.25,540.46786,307.2371)">
      <path
         inkscape:connector-curvature="0"
         d="M 0,0 0,0.002 -0.004,0.004 C -0.002,0.003 -0.001,0.001 0,0"
         style="fill:#ffffff;fill-opacity:1;fill-rule:nonzero;stroke:none"
         id="path754" />
    </g>
    <g
       id="g756"
       transform="matrix(1.25,0,0,-1.25,539.77261,306.96261)">
      <path
         inkscape:connector-curvature="0"
         d="m 0,0 c 0.001,-0.055 0.003,-0.112 0.004,-0.166 -0.794,-0.439 -7.471,-1.474 -8.557,-1.593 -1.053,-0.115 -11.073,-0.329 -11.534,-0.312 -0.527,0.018 -1.826,0.378 -1.826,0.378 0,0 1.234,-0.74 1.826,-0.773 0.592,-0.033 10.201,0.066 11.583,0.23 1.382,0.165 7.997,1.119 8.77,1.744 0.13,0.106 0.222,0.198 0.284,0.277 L 0,0 z"
         style="fill:#ffffff;fill-opacity:1;fill-rule:nonzero;stroke:none"
         id="path758" />
    </g>
    <g
       id="g760"
       transform="matrix(1.25,0,0,-1.25,518.92148,313.45261)">
      <path
         inkscape:connector-curvature="0"
         d="m 0,0 c 3.123,0.029 7.982,0.111 8.934,0.225 0.899,0.107 3.955,0.631 6.194,1.157 L 15.6,1.496 c 0.415,0.103 0.789,0.205 1.102,0.303 l 0.084,0.5 C 15.009,1.766 9.839,0.806 8.885,0.702 7.832,0.587 -2.188,0.373 -2.649,0.389 c -0.527,0.019 -1.53,0.198 -1.53,0.198 0,0 0.938,-0.56 1.53,-0.592 0.153,-0.009 0.911,-0.009 1.975,-0.001 C -0.405,-0.043 0,0 0,0"
         style="fill:#ffffff;fill-opacity:1;fill-rule:nonzero;stroke:none"
         id="path762" />
    </g>
    <g
       id="g764"
       transform="matrix(1.25,0,0,-1.25,516.47398,300.74923)">
      <path
         inkscape:connector-curvature="0"
         d="m 0,0 -0.132,0.395 c 0,0 4.008,0.018 7.299,0.054 0.494,0.631 3.758,1.098 3.758,1.098 L 10.826,1.415 c 0,0 -2.698,-0.954 -2.797,-1.218 -0.098,-0.263 1.843,-2.566 3.126,-2.599 1.284,-0.033 2.896,3.126 2.896,3.126 l 0.025,0.052 c 1.967,0.204 3.617,0.442 3.617,0.442 -0.037,0.662 -0.077,1.324 -0.121,1.974 -0.315,4.676 -1.184,12.044 -2.402,14.282 -1.612,0.921 -8.424,2.073 -12.208,2.073 -3.785,0 -5.265,-0.264 -5.265,-0.264 0,0 0.789,-7.371 0.888,-11.221 0.099,-3.85 0.099,-8.819 0.099,-8.819 0,0 2.402,-1.612 5.758,-2.797 3.357,-1.185 6.68,-1.349 6.68,-1.349 0,0 5.133,1.27 7.345,4.845 C 18.472,-0.146 18.452,0.463 18.43,0.877 17.05,0.706 15.7,0.565 14.399,0.449 13.985,-0.296 12.491,-2.779 10.925,-2.863 9.299,-2.95 7.467,-0.935 7.15,0.014 2.824,-0.124 0,0 0,0"
         style="fill:#ffffff;fill-opacity:1;fill-rule:nonzero;stroke:none"
         id="path766" />
    </g>
    <g
       id="g768"
       transform="matrix(1.25,0,0,-1.25,488.60624,289.6506)">
      <path
         inkscape:connector-curvature="0"
         d="M 0,0 C 0.424,0.351 0.873,0.719 1.339,1.1 1.145,0.63 0.997,0.183 0.997,-0.082 0.918,-2.865 0.918,-5.738 0.997,-8.7 0.997,-8.792 1.009,-8.894 1.029,-8.998 0.635,-8.659 0.288,-8.355 0,-8.097 -0.176,-5.315 -0.176,-2.616 0,0"
         style="fill:#ef2e31;fill-opacity:1;fill-rule:nonzero;stroke:none"
         id="path770" />
    </g>
    <g
       id="g772"
       transform="matrix(1.25,0,0,-1.25,540.97585,310.03211)">
      <path
         inkscape:connector-curvature="0"
         d="m 0,0 c -0.067,-0.057 -0.164,-0.131 -0.302,-0.225 -0.625,-0.427 -7.355,-1.689 -8.457,-1.809 -1.053,-0.116 -11.073,-0.329 -11.534,-0.313 -0.527,0.019 -1.53,0.197 -1.53,0.197 0,0 0.938,-0.559 1.53,-0.592 0.154,-0.008 0.912,-0.008 1.975,0 -0.046,-0.606 -0.212,-2.123 -0.761,-3.107 -0.566,-0.054 -0.978,-0.085 -1.181,-0.085 -1.678,0 -5.627,1.152 -8.391,3.258 -1.066,0.812 -4.086,3.236 -7.065,5.679 -0.204,0.519 -0.405,1.145 -0.405,1.597 -0.131,4.937 -0.131,9.733 0,14.373 0,0.573 0.508,1.795 0.98,2.809 2.836,2.273 5.323,4.247 5.997,4.796 2.665,2.172 8.193,2.073 8.193,2.073 0,0 3.192,1.415 4.673,1.415 1.481,0 4.706,-0.46 5.989,-0.625 1.284,-0.165 1.481,-1.678 1.481,-1.678 0,0 3.422,-0.658 5.035,-1.58 1.217,-2.237 2.086,-9.605 2.402,-14.281 0.08,-1.184 0.147,-2.404 0.203,-3.598 C -2.55,8.132 -3.9,7.991 -5.202,7.875 -5.616,7.13 -7.111,4.647 -8.676,4.563 c -1.627,-0.087 -3.458,1.928 -3.775,2.877 -4.327,-0.138 -7.15,-0.014 -7.15,-0.014 l -0.132,0.395 c 0,0 4.008,0.018 7.298,0.055 0.494,0.631 3.759,1.097 3.759,1.097 L -8.775,8.841 c 0,0 -2.698,-0.954 -2.797,-1.217 -0.099,-0.264 1.843,-2.567 3.126,-2.6 1.283,-0.033 2.896,3.126 2.896,3.126 l 0.025,0.052 c 1.966,0.204 3.616,0.443 3.616,0.443 -0.036,0.662 -0.076,1.323 -0.12,1.973 -0.316,4.676 -1.185,12.044 -2.402,14.282 -1.613,0.921 -8.425,2.073 -12.209,2.073 -3.784,0 -5.265,-0.263 -5.265,-0.263 0,0 0.79,-7.371 0.889,-11.221 0.098,-3.851 0.098,-8.82 0.098,-8.82 0,0 2.402,-1.612 5.759,-2.797 3.356,-1.184 6.68,-1.349 6.68,-1.349 0,0 5.132,1.27 7.345,4.846 C -1.046,5.486 -0.992,3.702 -0.958,2.29 -1.752,1.85 -8.43,0.816 -9.516,0.697 -10.569,0.582 -20.589,0.368 -21.049,0.384 c -0.528,0.019 -1.827,0.379 -1.827,0.379 0,0 1.234,-0.741 1.827,-0.774 0.592,-0.033 10.201,0.066 11.583,0.231 1.382,0.164 7.996,1.119 8.769,1.744 0.131,0.106 0.223,0.198 0.285,0.278 C -0.226,2.045 0.11,1.62 0.11,1.108 0.11,0.771 0.071,0.305 0,0"
         style="fill:#ef2e31;fill-opacity:1;fill-rule:nonzero;stroke:none"
         id="path774" />
    </g>
    <g
       id="g776"
       transform="matrix(1.25,0,0,-1.25,537.83211,311.7251)">
      <path
         inkscape:connector-curvature="0"
         d="m 0,0 c -0.172,-0.898 -0.421,-1.717 -0.748,-2.457 l -0.675,0.115 c 0,0 -1.793,-1.3 -2.813,-1.365 -1.02,-0.066 -3.061,0.23 -3.061,0.23 l -4.294,-0.806 -3.537,1.464 0,1.437 c 3.123,0.029 7.981,0.111 8.934,0.225 C -5.296,-1.05 -2.24,-0.526 0,0"
         style="fill:#ef2e31;fill-opacity:1;fill-rule:nonzero;stroke:none"
         id="path778" />
    </g>
    <g
       id="g780"
       transform="matrix(1.25,0,0,-1.25,539.80923,311.2011)">
      <path
         inkscape:connector-curvature="0"
         d="m 0,0 c -0.13,-1.017 -0.791,-2.396 -1.293,-2.662 -0.039,-0.021 -0.186,-0.054 -0.423,-0.098 0.299,0.845 0.5,1.664 0.605,2.455 C -0.692,-0.201 -0.314,-0.098 0,0"
         style="fill:#ef2e31;fill-opacity:1;fill-rule:nonzero;stroke:none"
         id="path782" />
    </g>
    <g
       id="g784"
       transform="matrix(1.25,0,0,-1.25,495.92774,283.70523)">
      <path
         inkscape:connector-curvature="0"
         d="m 0,0 c -1.404,-1.128 -2.855,-2.299 -4.185,-3.384 -0.247,-0.553 -0.478,-1.149 -0.478,-1.456 -0.079,-2.78 -0.079,-5.653 0,-8.612 0,-0.153 0.037,-0.336 0.09,-0.522 1.136,-0.973 2.601,-2.195 4.123,-3.449 -0.093,0.329 -0.157,0.662 -0.158,0.951 -0.132,4.945 -0.132,9.741 -0.001,14.387 0,0.47 0.267,1.264 0.609,2.085"
         style="fill:#ef2e31;fill-opacity:1;fill-rule:nonzero;stroke:none"
         id="path786" />
    </g>
    <g
       id="g788"
       transform="matrix(1.25,0,0,-1.25,537.73985,297.7876)">
      <path
         inkscape:connector-curvature="0"
         d="m 0,0 c -0.461,4.08 -2.238,16.19 -13.261,16.19 -3.589,0 -4.994,-0.222 -4.994,-0.222 0,0 0.984,-6.001 1.078,-9.255 0.093,-3.254 0.278,-7.585 0.278,-7.585 l 6.501,-0.016 c 0,0 1.842,1.217 4.212,1.217 1.974,0 2.797,-0.526 2.797,-0.526 L 0,0 z m -3.422,8.556 c -2.48,3.119 -5.705,5.445 -9.609,6.713 4.393,-0.14 7.618,-2.466 9.609,-6.713"
         style="fill:#7b7979;fill-opacity:1;fill-rule:nonzero;stroke:none"
         id="path790" />
    </g>
    <g
       id="g792"
       transform="matrix(1.25,0,0,-1.25,500.96674,285.6326)">
      <path
         inkscape:connector-curvature="0"
         d="m 0,0 -3.093,-1.74 0,-7.072 L 0,-9.494 0,0 z"
         style="fill:#ffffff;fill-opacity:1;fill-rule:nonzero;stroke:none"
         id="path794" />
    </g>
    <g
       transform="matrix(1.25,0,0,-1.25,-408.30077,607.93323)"
       id="g796">
      <g
         id="g798"
         clip-path="url(#clipPath800)">
        <g
           id="g804"
           transform="translate(730.3098,259.4693)">
          <path
             inkscape:connector-curvature="0"
             d="m 0,0 -2.073,-1.166 c -0.132,-5.663 -0.132,-12.3 0,-19.912 L 0.23,-22.837 C -0.003,-17.125 -0.08,-9.513 0,0"
             style="fill:#ffffff;fill-opacity:1;fill-rule:nonzero;stroke:none"
             id="path806" />
        </g>
        <g
           id="g808"
           transform="translate(757.1741,241.239)">
          <path
             inkscape:connector-curvature="0"
             d="M 0,0 C 0.357,0 0.646,0.444 0.646,0.991 0.646,1.539 0.357,1.983 0,1.983 -0.357,1.983 -0.646,1.539 -0.646,0.991 -0.646,0.444 -0.357,0 0,0"
             style="fill:#ffffff;fill-opacity:1;fill-rule:nonzero;stroke:none"
             id="path810" />
        </g>
        <g
           id="g812"
           transform="translate(740.3257,239.9556)">
          <path
             inkscape:connector-curvature="0"
             d="M 0,0 C 0.52,0 0.942,0.591 0.942,1.32 0.942,2.05 0.52,2.641 0,2.641 -0.52,2.641 -0.942,2.05 -0.942,1.32 -0.942,0.591 -0.52,0 0,0"
             style="fill:#ffffff;fill-opacity:1;fill-rule:nonzero;stroke:none"
             id="path814" />
        </g>
        <g
           id="g816"
           transform="translate(736.562,246.4383)">
          <path
             inkscape:connector-curvature="0"
             d="m 0,0 c 0.009,5.535 -0.32,10.219 -1.185,14.578 l -4.113,-1.152 0,-11.846 C -3.402,1.168 -1.636,0.642 0,0"
             style="fill:#ffffff;fill-opacity:1;fill-rule:nonzero;stroke:none"
             id="path818" />
        </g>
      </g>
    </g>
    <g
       id="g820"
       transform="matrix(1.25,0,0,-1.25,492.28761,295.58585)">
      <path
         inkscape:connector-curvature="0"
         d="m 0,0 -1.218,0.269 0,3.103 L 0,4.057 0,0 z"
         style="fill:#ffffff;fill-opacity:1;fill-rule:nonzero;stroke:none"
         id="path822" />
    </g>
    <g
       transform="matrix(1.25,0,0,-1.25,-408.30077,607.93323)"
       id="g824">
      <g
         id="g826"
         clip-path="url(#clipPath828)">
        <g
           id="g832"
           transform="translate(721.9844,243.1656)">
          <path
             inkscape:connector-curvature="0"
             d="m 0,0 -1.053,0.804 c -0.088,4.278 -0.088,7.686 0,10.224 L 0,11.621 0,0 z"
             style="fill:#ffffff;fill-opacity:1;fill-rule:nonzero;stroke:none"
             id="path834" />
        </g>
        <g
           id="g836"
           transform="translate(722.7275,244.9391)">
          <path
             inkscape:connector-curvature="0"
             d="M 0,0 0.007,-0.35 C -0.256,-0.396 -0.508,-0.419 -0.745,-0.416 L -0.743,9.847 -0.741,-0.07 C -0.509,-0.073 -0.26,-0.048 0,0 m -1.308,10.823 c 0.424,0.212 0.863,0.282 1.321,0.238 l 0.009,0.348 c -0.504,0.044 -1,-0.033 -1.485,-0.276 C -2.437,10.646 -3.335,9.789 -4.027,8.861 L -4.04,8.241 c 0.682,1.028 1.652,2.042 2.732,2.582 m -0.51,-10.621 0.006,-0.388 c -0.906,0.391 -1.649,1.23 -2.219,2.163 l -0.013,0.727 c 0.545,-1.039 1.299,-2.037 2.226,-2.502 m 3.411,10.348 0,0.387 C 1.242,11.105 0.892,11.238 0.546,11.321 L 0.538,10.966 C 0.878,10.877 1.23,10.734 1.593,10.55 M 5.413,2.572 5.414,2.161 C 5.051,1.927 4.65,1.678 4.23,1.433 3.08,0.763 1.73,0.082 0.531,-0.234 L 0.524,0.122 c 1.632,0.45 3.585,1.6 4.889,2.45 m -0.727,6.342 0,-0.434 C 4.931,8.301 5.177,8.122 5.426,7.945 L 5.429,8.375 4.686,8.914 z M -5.331,6.261 C -5.334,5.91 -5.334,5.557 -5.332,5.203 -5.189,4.505 -4.82,3.386 -4.235,2.329 L -4.248,3.113 C -4.717,4.107 -4.992,5.079 -5.044,5.6 -5.098,6.135 -4.79,7.014 -4.243,7.92 L -4.23,8.577 C -4.787,7.771 -5.182,6.935 -5.331,6.261 M 15.665,9.275 15.648,9.704 C 14.933,9.459 14.266,9.19 13.597,8.877 l 0.031,-0.444 c 0.676,0.323 1.355,0.603 2.037,0.842 M 12.918,1.842 c 0.31,-0.111 0.616,-0.225 0.916,-0.343 l 0.001,0.108 c 0.622,-0.492 1.224,-0.839 1.94,-1.119 L 15.776,0.051 C 14.626,0.483 13.831,1 12.918,1.842"
             style="fill:#fcd006;fill-opacity:1;fill-rule:nonzero;stroke:none"
             id="path838" />
        </g>
        <g
           id="g840"
           transform="translate(722.741,256.0003)">
          <path
             inkscape:connector-curvature="0"
             d="m 0,0 c -0.458,0.044 -0.898,-0.026 -1.322,-0.238 -1.08,-0.54 -2.05,-1.555 -2.731,-2.582 -0.034,-1.809 -0.036,-3.655 -0.005,-5.537 0.546,-1.039 1.299,-2.037 2.226,-2.502 -0.065,3.733 -0.057,6.751 0.022,9.053 l 1.053,0.592 0.003,-9.917 c 0.232,-0.003 0.48,0.022 0.741,0.07 C -0.087,-7.286 -0.082,-3.599 0,0 m -2.27,-6.122 -1.218,0.268 0,3.104 1.218,0.685 0,-4.057 z m 6.943,3.541 0,-5.073 -3.093,0.682 0,6.461 C 1.216,-0.327 0.865,-0.184 0.524,-0.095 0.445,-3.624 0.44,-7.241 0.511,-10.94 c 1.632,0.45 3.585,1.601 4.888,2.451 -0.005,1.865 -0.001,3.656 0.013,5.373 -0.248,0.177 -0.495,0.356 -0.739,0.535 m -8.929,-0.56 c -0.027,-1.575 -0.028,-3.177 -0.006,-4.807 -0.468,0.994 -0.744,1.966 -0.796,2.487 -0.053,0.535 0.255,1.414 0.802,2.32 m 20.018,-7.432 c -0.003,1.294 -0.017,5.216 -0.098,8.382 l -0.013,0.405 c -0.682,-0.239 -1.361,-0.52 -2.036,-0.842 0.145,-2.142 0.208,-4.402 0.206,-6.826 0.623,-0.492 1.225,-0.839 1.941,-1.119"
             style="fill:#bfbebe;fill-opacity:1;fill-rule:nonzero;stroke:none"
             id="path842" />
        </g>
      </g>
    </g>
    <g
       id="g844"
       transform="matrix(1.25,0,0,-1.25,460.45048,282.65211)">
      <path
         inkscape:connector-curvature="0"
         d="M 0,0 -1.492,1.084 -2.984,0 l 0.57,1.754 -1.493,1.084 1.845,0 0.57,1.754 0.57,-1.754 1.844,0 L -0.57,1.754 0,0 z m 15.783,1.754 1.492,1.084 -1.844,0 -0.57,1.754 -0.57,-1.754 -1.844,0 L 13.939,1.754 13.369,0 14.861,1.084 16.353,0 15.783,1.754 z M 8.177,0 6.684,1.084 5.192,0 5.762,1.754 4.27,2.838 l 1.844,0 0.57,1.754 0.57,-1.754 1.845,0 L 7.607,1.754 8.177,0 z"
         style="fill:#ef2e31;fill-opacity:1;fill-rule:nonzero;stroke:none"
         id="path846" />
    </g>
    <g
       transform="matrix(1.25,0,0,-1.25,-408.30077,607.93323)"
       id="g848">
      <g
         id="g850"
         clip-path="url(#clipPath852)">
        <g
           id="g856"
           transform="translate(637.3989,246.5327)">
          <path
             inkscape:connector-curvature="0"
             d="m 0,0 0,12.864 -3.496,0 0,-4.617 c -0.734,0.889 -1.584,1.314 -2.723,1.314 -2.396,0 -4.057,-2.028 -4.057,-4.945 0,-0.811 0.155,-1.603 0.425,-2.356 0.657,-1.719 1.855,-2.55 3.709,-2.55 1.313,0 2.105,0.406 2.743,1.43 L -3.303,0 0,0 z m -3.496,4.693 c 0,-1.313 -0.676,-2.201 -1.68,-2.201 -0.947,0 -1.546,0.849 -1.546,2.182 0,1.371 0.618,2.241 1.604,2.241 0.985,0 1.622,-0.87 1.622,-2.222"
             style="fill:#ef2e31;fill-opacity:1;fill-rule:nonzero;stroke:none"
             id="path858" />
        </g>
        <g
           id="g860"
           transform="translate(653.4303,246.1222)">
          <path
             inkscape:connector-curvature="0"
             d="m 0,0 c -2.462,0 -3.808,1.24 -3.852,3.718 l 0.689,0 0,-0.178 c 0,-1.879 1.105,-2.912 3.144,-2.912 1.844,0 2.911,0.852 2.911,2.158 0,1.029 -0.373,1.388 -2.801,1.99 l -0.753,0.193 c -2.06,0.506 -2.82,1.082 -2.82,2.453 0,1.606 1.342,2.593 3.289,2.593 2.279,0 3.481,-1.044 3.481,-3.076 l 0,-0.179 -0.664,0 c -0.022,1.931 -0.947,2.588 -2.836,2.588 -1.651,0 -2.603,-0.774 -2.603,-1.926 0,-0.904 0.508,-1.393 2.296,-1.815 L 0.233,5.433 C 1.337,5.181 2.274,4.847 2.728,4.537 3.286,4.151 3.578,3.531 3.578,2.786 3.578,1.063 2.119,0 0,0 m 57.93,8.276 c 0.766,0.72 1.503,0.787 2.53,0.851 l 0,0.598 -0.218,0 c -0.91,0 -1.603,-0.158 -2.2,-0.529 C 57.482,8.848 57.104,8.43 56.77,7.755 l 0,1.97 -0.647,0 0,-9.493 0.647,0 0,4.66 c 0,1.575 0.38,2.658 1.16,3.384 m -2.802,-8.044 0,0.666 -0.516,0 -0.058,-0.019 c -0.568,0.003 -0.627,0.082 -0.642,0.58 l 0,0.362 0,5.099 c 0,0.944 -0.117,1.454 -0.521,1.964 -0.55,0.719 -1.601,1.092 -2.845,1.092 -2.316,0 -3.381,-1.091 -3.596,-3.351 l 0.685,0 c 0.216,1.925 0.982,2.685 2.95,2.685 1.854,0 2.641,-0.714 2.641,-2.313 l 0,-0.348 C 53.226,5.942 53.175,5.823 51.714,5.727 50.075,5.649 49.61,5.59 48.946,5.453 47.393,5.151 46.408,4.106 46.408,2.69 c 0,-1.661 1.414,-2.729 3.365,-2.729 1.507,0 2.691,0.66 3.453,1.924 l 0,-0.2 c 0,-1.091 0.264,-1.453 1.241,-1.453 l 0.309,0 0.352,0 z m -1.902,3.926 c 0,-2.05 -1.47,-3.549 -3.453,-3.549 -1.662,0 -2.679,0.846 -2.679,2.081 0,1.37 1.087,2.198 3.442,2.313 l 1.063,0.058 c 0.811,0.043 1.282,0.13 1.627,0.358 l 0,-1.261 z m -15.23,0.869 c 0,2.651 1.49,4.341 3.704,4.341 1.698,0 3.026,-0.902 3.113,-2.685 l 0.668,0 c -0.119,2.188 -1.731,3.332 -3.82,3.332 -2.595,0 -4.351,-2.056 -4.351,-5.027 0,-2.968 1.716,-5.026 4.293,-5.046 2.466,0 3.675,1.479 4.055,3.776 l -0.669,0 C 44.624,1.749 43.668,0.589 41.565,0.589 c -2.11,0 -3.569,1.719 -3.569,4.438 m -4.046,7.692 0.647,0 0,-2.974 1.99,0 0,-0.686 -1.97,0 0,-6.274 c -0.019,-1.586 0.248,-1.85 1.367,-1.867 l 0.506,0 0,-0.667 -0.526,0 c -1.625,0 -2.014,0.588 -2.014,2.516 l 0,6.272 -1.565,0 0,0.686 1.565,0 0,2.994 z m -2.01,-8.103 -7.67,0 c 0.112,-2.562 1.439,-4.007 3.562,-4.007 1.98,0 3.073,1.283 3.384,3.129 l 0.697,0 c -0.432,-2.197 -1.698,-3.777 -4.1,-3.777 -2.556,0 -4.274,2.018 -4.274,4.931 0,3.061 1.694,5.142 4.332,5.142 2.374,0 4.1,-1.931 4.1,-4.486 0,-0.312 -0.01,-0.621 -0.031,-0.932 m -4.088,4.732 c -2.103,0 -3.449,-1.48 -3.599,-4.046 l 7.038,0 c 0.013,0.103 0.013,0.17 0.013,0.246 0,2.216 -1.461,3.8 -3.452,3.8 m -5.094,-3.8 c 0,2.555 -1.726,4.486 -4.1,4.486 -2.639,0 -4.332,-2.081 -4.332,-5.142 0,-2.913 1.718,-4.931 4.274,-4.931 2.402,0 3.668,1.58 4.1,3.777 l -0.697,0 C 21.692,1.892 20.599,0.609 18.619,0.609 c -2.123,0 -3.45,1.445 -3.562,4.007 l 7.67,0 c 0.021,0.311 0.031,0.62 0.031,0.932 m -0.667,0 c 0,-0.076 0,-0.143 -0.013,-0.246 l -7.038,0 c 0.15,2.566 1.496,4.046 3.599,4.046 1.991,0 3.452,-1.584 3.452,-3.8 M 11.846,8.276 c 0.766,0.72 1.502,0.787 2.529,0.851 l 0,0.598 -0.218,0 c -0.91,0 -1.602,-0.158 -2.199,-0.529 C 11.397,8.848 11.019,8.43 10.686,7.755 l 0,1.97 -0.648,0 0,-9.493 0.648,0 0,4.66 c 0,1.575 0.379,2.658 1.16,3.384 m -5.96,4.443 0.647,0 0,-2.974 1.99,0 0,-0.686 -1.97,0 0,-6.274 C 6.534,1.199 6.802,0.935 7.921,0.918 l 0.505,0 0,-0.667 -0.526,0 c -1.625,0 -2.014,0.588 -2.014,2.516 l 0,6.272 -1.564,0 0,0.686 1.564,0 0,2.994 z"
             style="fill:#231f20;fill-opacity:1;fill-rule:nonzero;stroke:none"
             id="path862" />
        </g>
        <g
           id="g864"
           transform="translate(644.332,251.8739)">
          <path
             inkscape:connector-curvature="0"
             d="m 0,0 4.179,0 0,4.179 -1.326,-1.326 c -0.889,0.818 -2.068,1.326 -3.371,1.326 -2.501,0 -4.567,-1.84 -4.932,-4.24 l 2.585,0 c 0.321,0.996 1.244,1.722 2.347,1.722 0.608,0 1.161,-0.224 1.591,-0.588 L 0,0 z m -1.687,-0.58 -4.179,0 0,-4.179 1.192,1.192 c 0.893,-1.349 2.417,-2.243 4.156,-2.243 2.356,0 4.326,1.634 4.852,3.829 l -2.68,0 c -0.418,-0.776 -1.229,-1.31 -2.172,-1.31 -1.053,0 -1.935,0.663 -2.29,1.59 l 1.121,1.121 z"
             style="fill:#ef2e31;fill-opacity:1;fill-rule:nonzero;stroke:none"
             id="path866" />
        </g>
      </g>
    </g>
  </g>
</svg>
