<?xml version="1.0" encoding="utf-8"?>
<!-- Generator: Adobe Illustrator 21.0.2, SVG Export Plug-In . SVG Version: 6.00 Build 0)  -->
<svg version="1.1" id="Layer_1" xmlns="http://www.w3.org/2000/svg" xmlns:xlink="http://www.w3.org/1999/xlink" x="0px" y="0px"
	 viewBox="0 0 376 158" style="enable-background:new 0 0 376 158;" xml:space="preserve">
<style type="text/css">
	.st0{fill:#FFFFFF;}
	.st1{fill:#E41938;}
	.st2{fill:#FEC601;}
</style>
<g>
	<rect x="92.6" y="45.9" class="st0" width="278.7" height="68.4"/>
	<path d="M0,7.9C3.3,7.9,6.7,8,10,8c1.6,0,3.2,0.2,4.8,0.8c2.1,0.9,3.5,2.5,3.7,4.8c0.2,2.4-0.6,4.3-2.7,5.6
		c-0.3,0.2-0.5,0.3-0.9,0.6c0.6,0.3,1,0.5,1.4,0.7c2.1,1,3.5,2.6,3.6,5.1c0.1,2.6-1,4.5-3.3,5.8c-1.7,1-3.6,1.2-5.6,1.3
		c-3.7,0-7.3,0-11,0.1C0,24.4,0,16.2,0,7.9z M7.9,30.2c1.5-0.1,3.4,0.2,5.2-0.2c2.6-0.6,4-2,4-4.2c0-2.2-1.4-3.5-4-4
		c-3.2-0.5-6.4-0.1-9.5-0.3c-0.7,0-0.7,0.4-0.7,0.9c0,2.3,0,4.6,0,6.9c0,0.7,0.2,0.9,0.9,0.9C5,30.1,6.3,30.2,7.9,30.2z M7.6,19
		c1.4-0.1,3.2,0.2,4.9-0.3c2.2-0.7,3.4-2.2,3.3-4.4c-0.1-1.9-1.4-3.2-3.7-3.6c-2.8-0.4-5.6-0.1-8.4-0.2c-0.7,0-0.8,0.3-0.8,0.9
		c0,2.2,0,4.5,0,6.7C2.7,18.8,3,19,3.7,19C4.9,18.9,6.1,19,7.6,19z"/>
	<path class="st1" d="M269.7,117c-13.6,13.6-27.3,27.3-41,41c-0.5-0.5-0.3-1.1-0.3-1.6c0-9.5,0-19,0-28.6c0-1.5-0.4-1.8-1.8-1.8
		c-45.7,0-91.3,0-137,0c-2.4,0-2.1,0.3-2.1-2.1c0-27,0-54,0-81c0-2.3-0.3-2,2-2c42.1,0,84.2,0,126.3,0c0.6,0.6,1.2,1.3,1.8,1.9
		c2.1,2.2,4.5,4.2,6.4,6.6c-7.6,0-15.3,0-22.9,0c-1.2,0-1.6,0.2-1.6,1.5c0,18.5,0,36.9,0,55.4c0,1.1,0.3,1.4,1.4,1.4
		c8.6,0,17.2-0.1,25.7,0c1.3,0,1.8-0.2,1.7-1.7c-0.1-9.5,0-19,0-28.6c0-0.5-0.1-1.1,0.2-1.7c3.3,3.3,6.4,6.5,9.6,9.7
		c7.7,7.7,15.4,15.3,23.1,23C264.2,111.3,266.9,114.1,269.7,117z M99.6,78.4c0,9.3,0,18.6,0,27.9c0,1,0.1,1.5,1.3,1.5
		c16.8,0,33.7,0,50.5,0c1,0,1.2-0.3,1.2-1.2c-0.1-3.4-0.1-6.8,0-10.2c0-1.3-0.5-1.5-1.6-1.5c-6.8,0-13.7,0-20.5,0.1
		c-1.5,0-1.8-0.4-1.8-1.8c0.1-14.1,0-28.1,0.1-42.2c0-1.3-0.2-1.8-1.7-1.8c-8.6,0.1-17.3,0.1-25.9,0c-1.3,0-1.6,0.4-1.6,1.7
		C99.6,60,99.6,69.2,99.6,78.4z M191.3,78.5c0-9.3,0-18.5,0-27.8c0-1.1-0.1-1.6-1.4-1.6c-8.8,0.1-17.6,0-26.4,0
		c-1.1,0-1.4,0.4-1.4,1.4c0,18.6,0,37.2,0,55.8c0,1.1,0.4,1.4,1.4,1.4c8.7,0,17.5,0,26.2,0c1.2,0,1.6-0.3,1.6-1.5
		C191.3,97,191.3,87.7,191.3,78.5z"/>
	<path class="st2" d="M269.7,117c-2.8-2.8-5.5-5.7-8.3-8.5c7.4,0,14.7-0.1,22.1,0c1.2,0,1.6-0.3,1.6-1.6c0-18.5,0-36.9,0-55.4
		c0-1.2-0.3-1.6-1.6-1.6c-8.3,0.1-16.5,0.1-24.8,0c-1.5,0-1.7,0.5-1.7,1.8c0.1,9.5,0,19,0,28.6c0,0.5,0,1.1,0,1.9
		c-0.6-0.5-0.9-0.8-1.2-1.1c-7.5-7.5-15-15-22.5-22.5c-3.1-3.1-6-6.3-9.3-9.1c-1.9-2.4-4.3-4.4-6.4-6.6c-0.6-0.6-1.2-1.3-1.8-1.9
		c7-7.1,14.1-14.2,21.1-21.2c6.3-6.3,12.6-12.6,18.9-18.9c0.3-0.3,0.6-0.8,1.1-0.9c0.3,0.6,0.1,1.1,0.1,1.7c0,9.3,0,18.6,0,27.9
		c0,2,0,2,2,2c38.2,0,76.5,0,114.7,0c2.5,0,2.2-0.3,2.2,2.1c0,27.1,0,54.2,0,81.3c0,1.6-0.4,2-2,2c-34.5,0-68.9,0-103.4,0
		C270.3,117,270,117,269.7,117z M368,108.4c-0.6-0.7-1-1.1-1.4-1.5c-9.3-9.4-18.7-18.9-28.1-28.3c-1-1-0.8-1.4,0-2.3
		c8.5-8.4,16.9-16.8,25.3-25.3c0.4-0.4,0.9-0.7,1-1.4c-9.8,0-19.6,0-29.3,0c-0.7,0-1,0.4-1.5,0.8c-3.8,3.6-7.5,7.1-11.3,10.7
		c-0.5,0.5-1.1,1-1.9,1.7c0-4.2,0-8,0-11.9c0-1-0.2-1.4-1.3-1.4c-8.9,0-17.8,0-26.7,0c-1,0-1.2,0.3-1.2,1.3c0,18.7,0,37.5,0,56.2
		c0,1.1,0.4,1.4,1.4,1.4c8.8,0,17.6,0,26.4,0c1.1,0,1.4-0.4,1.4-1.4c-0.1-4.3,0-8.6,0-12.9c0-0.5-0.3-1,0.4-1.5
		c3.6,4.1,7.3,8.1,10.7,12.3c2.1,2.6,4.3,4,7.6,3.5c1.2-0.2,2.4,0,3.6,0C351.4,108.4,359.5,108.4,368,108.4z"/>
	<path d="M129.4,13.4c-2,2.9-4,5.8-6,8.7c-0.6,0.8-1.1,1.6-1.7,2.5c-1,1.5-1,1.5-2,0.1c-2.4-3.5-4.8-7-7.2-10.5
		c-0.2-0.3-0.4-0.6-0.7-0.9c-0.5,0.4-0.3,0.9-0.3,1.3c0,5.6,0,11.2,0,16.8c0,1.1-0.3,1.4-1.4,1.4c-1.1,0-1.4-0.3-1.4-1.4
		c0-7.2,0-14.3,0-21.5c0-0.6-0.5-1.6,0.5-1.7c1-0.2,2.2-0.5,3,0.9c1.5,2.5,3.2,4.9,4.8,7.3c0.9,1.3,1.8,2.6,2.6,3.9
		c0.7,1.3,1.2,0.9,1.8-0.1c2.4-3.7,4.9-7.3,7.2-11c0.8-1.4,1.9-1.1,3.1-1.1c0.6,0,0.5,0.5,0.5,0.9c0,7.6,0,15.2,0,22.7
		c0,1.4-0.9,0.9-1.6,1c-0.8,0.1-1.2,0-1.2-1c0-5.6,0-11.3,0-16.9c0-0.4,0-0.8-0.1-1.2C129.7,13.4,129.6,13.4,129.4,13.4z"/>
	<path d="M181.9,22.6c2.5,3.4,4.9,6.6,7.4,9.9c-2.1,0.4-3.5,0.2-4.7-1.7c-1.5-2.4-3.4-4.5-5-6.8c-0.5-0.7-1.1-1-2-1
		c-1.5,0.1-2.9,0.1-4.4,0c-1.2-0.1-1.5,0.4-1.5,1.5c0.1,2.2,0,4.5,0,6.7c0,1.1-0.2,1.5-1.4,1.4c-1,0-1.5-0.1-1.5-1.3
		c0.1-7.4,0-14.7,0-22.1c0-0.6-0.2-1.3,0.8-1.3c4,0.1,8-0.3,11.9,0.2c4.8,0.6,7.5,4.3,6.5,8.9c-0.6,2.9-2.7,4.5-5.4,5.3
		C182.7,22.4,182.4,22.5,181.9,22.6z M171.8,15.5c0,1.4,0,2.7,0,4.1c0,0.6,0.1,1,0.8,1c2.8-0.1,5.6,0.1,8.3-0.1c3-0.2,4.9-2.4,4.8-5
		c-0.1-2.6-1.9-4.5-4.9-4.6c-2.7-0.2-5.3-0.1-8-0.1c-0.9,0-1,0.4-1,1.1C171.8,13,171.8,14.2,171.8,15.5z"/>
	<path d="M138.1,20.3c0-7.2,5.5-12.8,12.6-12.7c7.1,0,12.5,5.5,12.5,12.7c0,7.2-5.5,12.7-12.7,12.7C143.4,33,138.1,27.6,138.1,20.3z
		 M140.9,20.2c0,5.8,4.2,10.3,9.7,10.3c5.4,0,9.6-4.3,9.7-10c0.1-5.7-4.2-10.3-9.7-10.3C145.2,10.1,141,14.5,140.9,20.2z"/>
	<path d="M194.5,20.2c0-3.7,0-7.3,0-11c0-0.9,0.2-1.3,1.2-1.2c5.1,0.1,10.3,0.1,15.4,0c1.2,0,1.2,0.5,1.2,1.4c0,1-0.2,1.2-1.2,1.2
		c-4.1-0.1-8.3,0-12.4-0.1c-1.2,0-1.5,0.4-1.5,1.5c0.1,1.9,0.1,3.9,0,5.8c0,0.9,0.3,1.1,1.2,1.1c3.7,0,7.3,0,11,0
		c1,0,1.4,0.2,1.4,1.3c0,1-0.3,1.3-1.3,1.3c-3.6-0.1-7.1,0-10.7-0.1c-1.1,0-1.6,0.2-1.5,1.4c0.1,2,0.1,4,0,6c0,1.1,0.3,1.3,1.3,1.3
		c4.2,0,8.4,0,12.6,0c0.9,0,1.4,0,1.4,1.2c0,1.1-0.3,1.4-1.4,1.4c-5.1-0.1-10.1-0.1-15.2,0c-1.3,0-1.4-0.4-1.4-1.5
		C194.5,27.5,194.5,23.9,194.5,20.2z"/>
	<path d="M23.5,32.5c0.2-1.2,0.8-2.1,1.3-3.2C27.8,22.6,30.9,15.8,34,9c0.4-0.8,0.8-1.3,1.7-1.2c0.8,0.1,1.5-0.1,1.9,0.9
		C41,16.4,44.5,24,47.9,31.7c0.1,0.3,0.2,0.6,0.3,0.9c-2.8,0.2-3.1,0.3-3.8-2.2c-1-3.5-3-4.8-6.6-4.3c-2.5,0.4-5.1,0.1-7.7,0
		c-0.8,0-1.2,0.3-1.5,1c-0.5,1.2-1.1,2.4-1.6,3.6C26.1,32.8,26.1,32.8,23.5,32.5z M35.8,11.1c-1.9,4.1-3.6,8-5.3,11.8
		c-0.2,0.4-0.2,0.7,0.4,0.7c3.4,0,6.8,0,10.5,0C39.5,19.4,37.7,15.4,35.8,11.1z"/>
	<path d="M81.6,21.8c0,3.2-0.1,6.4,0,9.6c0,1.3-0.5,1.3-1.6,1.4c-1.2,0.1-1.3-0.4-1.3-1.5c0-6.4,0-12.7,0-19.1
		c0-1.2-0.3-1.6-1.5-1.6c-1.9,0.1-3.9,0-5.8,0c-1.1,0-1-0.6-1-1.3c0-0.6-0.2-1.4,0.9-1.3C77.3,8,83.1,8,89,8c1.1,0,0.9,0.7,0.8,1.2
		c0,0.6,0.4,1.4-0.8,1.4c-2,0-4.1,0-6.1,0c-1,0-1.3,0.2-1.3,1.3C81.6,15.2,81.6,18.5,81.6,21.8z"/>
	<path d="M53.2,20.3c0-3.6,0-7.2,0-10.8c0-1.2,0.3-1.5,1.5-1.5C55.8,8,56,8.3,56,9.4c0,6.3,0,12.6-0.1,19c0,1.5,0.5,1.8,1.8,1.8
		c3.6-0.1,7.2,0,10.8-0.1c1,0,1.3,0.3,1.3,1.3c0,1-0.3,1.3-1.3,1.3c-4.7-0.1-9.4-0.1-14.1,0c-1.1,0-1.3-0.3-1.3-1.3
		C53.2,27.7,53.2,24,53.2,20.3z"/>
	<path d="M96.8,20.3c0-3.7,0.1-7.4,0-11.1C96.7,8,97.3,8,98.2,8c0.8,0,1.4-0.1,1.4,1.2c-0.1,7.5-0.1,14.9,0,22.4
		c0,1.1-0.5,1.2-1.3,1.1c-0.7,0-1.6,0.2-1.5-1.1C96.8,27.8,96.8,24.1,96.8,20.3z"/>
</g>
</svg>
