<svg xmlns="http://www.w3.org/2000/svg" viewBox="0 0 360 133.03"><title>result2</title><path d="M18.13,103.86h2.66l6.22,9,6-9h2.64v19.33h-3V109.8l-5.3,7.68h-.77l-5.42-7.71v13.42h-3Z" transform="translate(-18 -18.05)"/><path d="M46.74,103.86H49l7.63,19.33H53.5l-1.69-4.28H43.88l-1.67,4.28h-3.1ZM45,116h5.72l-2.86-7.35Z" transform="translate(-18 -18.05)"/><path d="M60.11,123.19V103.86H67a9.82,9.82,0,0,1,3.36.5,4.84,4.84,0,0,1,2.13,1.37,5.36,5.36,0,0,1,1.06,1.89,7.49,7.49,0,0,1,.32,2.26,6,6,0,0,1-1,3.51A5.2,5.2,0,0,1,70,115.46l5.22,7.73H71.55l-4.75-7.1H63.12v7.1Zm3-16.18V113H67a4.07,4.07,0,0,0,2.69-.81,2.75,2.75,0,0,0,1-2.25,2.68,2.68,0,0,0-.86-2.13,4.54,4.54,0,0,0-3-.75Z" transform="translate(-18 -18.05)"/><path d="M86,114.83v8.37H83v-8.37l-7-11h3.73l4.8,7.7,4.9-7.7H93Z" transform="translate(-18 -18.05)"/><path d="M96.39,103.86h3V120h9.87v3.15H96.39Z" transform="translate(-18 -18.05)"/><path d="M119.63,103.86h2.29l7.63,19.33H126.4l-1.69-4.28h-7.93l-1.67,4.28H112ZM117.87,116h5.72l-2.86-7.35Z" transform="translate(-18 -18.05)"/><path d="M145.54,123.19,135.94,110v13.17H133V103.86h2.34l9.6,13.23V103.86h2.93v19.33Z" transform="translate(-18 -18.05)"/><path d="M153.25,103.86h5.45a12.66,12.66,0,0,1,4.56.75,7.3,7.3,0,0,1,3.07,2.09,8.62,8.62,0,0,1,1.64,3,11.66,11.66,0,0,1,.52,3.62,10.19,10.19,0,0,1-2.54,7.17q-2.53,2.74-7.58,2.75h-5.12Zm3,3.15v13h2.34q3.47,0,5.11-1.81a7.1,7.1,0,0,0,1.65-5q0-6.27-6.71-6.27Z" transform="translate(-18 -18.05)"/><path d="M180.64,103.86h5.45a12.66,12.66,0,0,1,4.56.75,7.3,7.3,0,0,1,3.07,2.09,8.62,8.62,0,0,1,1.64,3,11.66,11.66,0,0,1,.52,3.62,10.19,10.19,0,0,1-2.54,7.17q-2.53,2.74-7.58,2.75h-5.12Zm3,3.15v13H186q3.47,0,5.11-1.81a7.1,7.1,0,0,0,1.65-5q0-6.27-6.71-6.27Z" transform="translate(-18 -18.05)"/><path d="M200.3,103.86h12.93V107h-9.92v4.86h9.27v3h-9.27V120h10.17v3.15H200.3Z" transform="translate(-18 -18.05)"/><path d="M218.15,123.19V103.86h7a10.43,10.43,0,0,1,3.59.54,4.91,4.91,0,0,1,2.24,1.51,6.17,6.17,0,0,1,1.08,2,7.86,7.86,0,0,1,.32,2.31,7.12,7.12,0,0,1-.39,2.33,6.25,6.25,0,0,1-1.19,2,5.45,5.45,0,0,1-2.26,1.46,10,10,0,0,1-3.42.54h-4v6.63Zm3-16.21v6.46h4q4.18,0,4.18-3.26t-4-3.2Z" transform="translate(-18 -18.05)"/><path d="M241,103.86h2.29l7.63,19.33h-3.16L246,118.91h-7.93l-1.67,4.28h-3.11ZM239.21,116h5.72l-2.86-7.35Z" transform="translate(-18 -18.05)"/><path d="M254.34,123.19V103.86h6.84a9.82,9.82,0,0,1,3.36.5,4.84,4.84,0,0,1,2.13,1.37,5.36,5.36,0,0,1,1.06,1.89,7.49,7.49,0,0,1,.32,2.26,6,6,0,0,1-1,3.51,5.16,5.16,0,0,1-2.78,2.07l5.22,7.73h-3.65L261,116.1h-3.68v7.1Zm3-16.18V113h3.9a4,4,0,0,0,2.68-.81,2.75,2.75,0,0,0,1-2.25,2.68,2.68,0,0,0-.86-2.13,4.54,4.54,0,0,0-2.95-.75Z" transform="translate(-18 -18.05)"/><path d="M271.19,103.86h14.69V107H280v16.18h-3V107h-5.84Z" transform="translate(-18 -18.05)"/><path d="M289.36,103.86H292l6.22,9,6-9h2.64v19.33h-3V109.8l-5.29,7.68h-.77l-5.42-7.71v13.42h-3Z" transform="translate(-18 -18.05)"/><path d="M312.26,103.86h12.93V107h-9.92v4.86h9.27v3h-9.27V120h10.17v3.15H312.26Z" transform="translate(-18 -18.05)"/><path d="M342.63,123.19,333,110v13.17h-2.9V103.86h2.34l9.6,13.23V103.86h3v19.33Z" transform="translate(-18 -18.05)"/><path d="M348.44,103.86h14.69V107h-5.84v16.18h-3V107h-5.84Z" transform="translate(-18 -18.05)"/><path d="M46.42,134.12a8.47,8.47,0,0,1,12-.7,7.71,7.71,0,0,1,.7.7,11,11,0,0,1,0,14.13,8.47,8.47,0,0,1-12,.67,7.06,7.06,0,0,1-.67-.67,10.92,10.92,0,0,1,0-14.1ZM48.67,146a5.42,5.42,0,0,0,7.65.54,5.5,5.5,0,0,0,.54-.54,7,7,0,0,0,1.65-4.82,6.9,6.9,0,0,0-1.7-4.81,5.36,5.36,0,0,0-7.56-.58,5.29,5.29,0,0,0-.58.58,7.7,7.7,0,0,0,0,9.62Z" transform="translate(-18 -18.05)"/><path d="M66.08,131.48h12.8v3.15h-9.8v5.47h9.15v3.15H69.09v7.57h-3Z" transform="translate(-18 -18.05)"/><path d="M89.25,131.48h14.69v3.15H98.1v16.18h-3V134.63H89.25Z" transform="translate(-18 -18.05)"/><path d="M107.42,150.81V131.48h6.84a9.82,9.82,0,0,1,3.36.5,4.84,4.84,0,0,1,2.13,1.37,5.36,5.36,0,0,1,1.06,1.89,7.49,7.49,0,0,1,.32,2.26,6,6,0,0,1-1,3.51,5.16,5.16,0,0,1-2.78,2.07l5.22,7.73h-3.65l-4.75-7.1h-3.68v7.1Zm3-16.18v5.94h3.9a4.07,4.07,0,0,0,2.69-.81,2.75,2.75,0,0,0,1-2.25,2.68,2.68,0,0,0-.86-2.13,4.54,4.54,0,0,0-3-.75Z" transform="translate(-18 -18.05)"/><path d="M132.82,131.48h2.29l7.63,19.33h-3.16l-1.69-4.28H130l-1.67,4.28h-3.11Zm-1.77,12.18h5.72l-2.86-7.35Z" transform="translate(-18 -18.05)"/><path d="M158.73,150.81l-9.6-13.17v13.17H146.2V131.48h2.34l9.6,13.23V131.48h2.93v19.33Z" transform="translate(-18 -18.05)"/><path d="M175.85,144.07a4,4,0,0,0-1.54-1c-.69-.25-1.38-.46-2.09-.64s-1.52-.42-2.29-.69a10.84,10.84,0,0,1-2.09-1,4.51,4.51,0,0,1-1.54-1.62,5,5,0,0,1,1.33-6.35,7.4,7.4,0,0,1,4.89-1.59,8.51,8.51,0,0,1,6.74,2.76l-1.64,2.37a7.4,7.4,0,0,0-5.17-2,5.39,5.39,0,0,0-2.59.57,1.87,1.87,0,0,0-.25,3.2,5.28,5.28,0,0,0,2,.88c.79.19,1.66.44,2.59.75a26.14,26.14,0,0,1,2.59,1,4.74,4.74,0,0,1,2,1.71,4.9,4.9,0,0,1,.8,2.83,5.09,5.09,0,0,1-1.94,4.11,7.25,7.25,0,0,1-4.75,1.6,10.15,10.15,0,0,1-4.4-1,8.6,8.6,0,0,1-3.26-2.53l1.79-2.35a7.71,7.71,0,0,0,6.14,2.76,4.19,4.19,0,0,0,2.44-.62,2,2,0,0,0,.87-1.73A2,2,0,0,0,175.85,144.07Z" transform="translate(-18 -18.05)"/><path d="M183.94,150.81V131.48h7a10.43,10.43,0,0,1,3.59.54,4.91,4.91,0,0,1,2.24,1.51,6.36,6.36,0,0,1,1.08,2,7.86,7.86,0,0,1,.32,2.31,7.12,7.12,0,0,1-.39,2.33,6.25,6.25,0,0,1-1.19,2,5.45,5.45,0,0,1-2.26,1.46,10,10,0,0,1-3.42.54h-4v6.63Zm3-16.21v6.46h4q4.19,0,4.18-3.26t-4-3.2Z" transform="translate(-18 -18.05)"/><path d="M204.13,134.12a8.47,8.47,0,0,1,12-.7,7.71,7.71,0,0,1,.7.7,11,11,0,0,1,0,14.13,8.47,8.47,0,0,1-12,.67,7.06,7.06,0,0,1-.67-.67,10.92,10.92,0,0,1,0-14.1ZM206.38,146a5.42,5.42,0,0,0,7.65.54,5.5,5.5,0,0,0,.54-.54,7,7,0,0,0,1.65-4.82,6.9,6.9,0,0,0-1.7-4.81,5.36,5.36,0,0,0-7.56-.58,5.29,5.29,0,0,0-.58.58,7.7,7.7,0,0,0,0,9.62Z" transform="translate(-18 -18.05)"/><path d="M223.79,150.81V131.48h6.84a9.82,9.82,0,0,1,3.36.5,4.84,4.84,0,0,1,2.13,1.37,5.36,5.36,0,0,1,1.06,1.89,7.49,7.49,0,0,1,.32,2.26,6,6,0,0,1-1,3.51,5.16,5.16,0,0,1-2.78,2.07l5.22,7.73h-3.65l-4.75-7.1H226.8v7.1Zm3-16.18v5.94h3.9a4,4,0,0,0,2.68-.81,2.75,2.75,0,0,0,1-2.25,2.68,2.68,0,0,0-.86-2.13,4.54,4.54,0,0,0-2.95-.75Z" transform="translate(-18 -18.05)"/><path d="M240.64,131.48h14.69v3.15h-5.84v16.18h-3V134.63h-5.84Z" transform="translate(-18 -18.05)"/><path d="M262.58,131.48h2.29l7.63,19.33h-3.16l-1.69-4.28h-7.93l-1.67,4.28H255Zm-1.77,12.18h5.72l-2.86-7.35Z" transform="translate(-18 -18.05)"/><path d="M272.13,131.48h14.69v3.15H281v16.18h-3V134.63h-5.84Z" transform="translate(-18 -18.05)"/><path d="M290.3,131.48h3v19.33h-3Z" transform="translate(-18 -18.05)"/><path d="M300.25,134.12a8.47,8.47,0,0,1,12-.7,7.71,7.71,0,0,1,.7.7,11,11,0,0,1,0,14.13,8.47,8.47,0,0,1-12,.67,7.06,7.06,0,0,1-.67-.67,10.92,10.92,0,0,1,0-14.1ZM302.5,146a5.42,5.42,0,0,0,7.65.54,5.5,5.5,0,0,0,.54-.54,7,7,0,0,0,1.65-4.82,6.9,6.9,0,0,0-1.7-4.81,5.36,5.36,0,0,0-7.56-.58,5.29,5.29,0,0,0-.58.58,7.7,7.7,0,0,0,0,9.62Z" transform="translate(-18 -18.05)"/><path d="M332.44,150.81l-9.6-13.17v13.17h-2.93V131.48h2.34l9.6,13.23V131.48h2.93v19.33Z" transform="translate(-18 -18.05)"/><path d="M344.31,90.24h3.87V91h-1.51v3.22h-.77V91h-1.6Zm4.47,0h.67l1.68,1.93,1.6-1.93h.67v3.94h-.78V91.34l-1.5,1.82h0l-1.52-1.82v2.84h-.78Z" transform="translate(-18 -18.05)"/><path d="M224.84,47.57h0v-.79A10,10,0,0,1,225,45.6a13.49,13.49,0,0,0-7.29-10.12A13.4,13.4,0,0,0,212.35,34l-.13.24h0a28.66,28.66,0,0,0-1.93,4.7c-.17.55-.32,1.1-.46,1.65a29.05,29.05,0,0,0-.84,6.95h0v8.27h15.84Z" transform="translate(-18 -18.05)"/><path d="M287.47,18.5H238.08a29,29,0,0,0-13.29,3.23l-.27.15.15.07A29.19,29.19,0,0,1,237.1,34.31h50.23l.14-.24Z" transform="translate(-18 -18.05)"/><polygon points="115.51 57.35 131.27 36.41 131.27 1.06 131.27 0 112.13 0 100.19 15.87 73.47 51.38 73.47 0.81 73.47 0 54.32 0 0 72.19 19.75 72.19 57.7 21.76 57.7 72.19 73.47 72.19 77.56 72.19 115.51 21.76 115.51 57.35"/><path d="M225.06,87l-.15-.07a28.78,28.78,0,0,1-12.42-12.38H153.66L169,54.21H149.27L133.51,75.15V90.39h78c.6,0,1.19,0,1.78,0a14.87,14.87,0,0,0,1.65-.15l.53-.08,1.1-.17.62-.12,1-.21.63-.16,1-.26.62-.19.94-.32.58-.21,1-.41.47-.2c.48-.22,1-.44,1.43-.69h0Z" transform="translate(-18 -18.05)" style="fill:#fdb913"/><path d="M212.22,34.28a13.32,13.32,0,0,1,12.57,12.51V62.07a7.48,7.48,0,0,1-.13,1.17,13.53,13.53,0,0,0,12.57,11.57l.14-.24a29.49,29.49,0,0,0,2.39-6.35c.14-.55.26-1.12.36-1.69a29.08,29.08,0,0,0,.48-5.26V47.57a29.08,29.08,0,0,0-.48-5.26c-.11-.57-.23-1.13-.36-1.69a29.19,29.19,0,0,0-15-18.91,29,29,0,0,0-13.29-3.23H163.84l-11.9,15.76h59.57l.71,0Z" transform="translate(-18 -18.05)" style="fill:#fdb913"/><path d="M316.09,47.57c0-.56,0-1.11,0-1.66v-.49a9.26,9.26,0,0,0-.11-1.17v-.52q-.07-.58-.18-1.17l-.08-.44h0c-.09-.45-.18-.9-.29-1.35v-.21c-.15-.61-.34-1.21-.53-1.8a29.16,29.16,0,0,0-1.11-3h0c-.23-.51-.47-1-.72-1.51h0l-.14-.25H287.47l-.14.24h.38l.52,0a13.48,13.48,0,0,1,4.41,1.18h0a11,11,0,0,1,1.07.57h.05c.33.2.67.41,1,.64l.1.07c.3.22.59.45.86.69l.14.13q.39.34.75.72l.07.08.11.12.54.62.1.11.21.28c.18.24.36.47.52.72l.22.37.06.11c.12.2.24.39.35.6s.15.31.22.46.22.44.31.67a4.14,4.14,0,0,1,.14.39l.06.17c.08.21.16.41.22.63l.18.68c.06.23.1.38.14.57s.09.56.13.84.05.3.07.45c0,.44.07.89.07,1.34V61.29a8.54,8.54,0,0,1-.07,1.34,1,1,0,0,1-.07.45,8.44,8.44,0,0,0-.13.84c-.06.27-.09.38-.14.57s-.11.46-.18.68-.15.42-.22.63l-.06.17a1.14,1.14,0,0,1-.14.39c-.05.12-.21.45-.31.67s-.14.31-.22.46-.23.4-.35.6l-.06.11-.22.37c-.16.25-.34.49-.52.72l-.21.28-.1.11c-.17.21-.35.42-.54.62l-.11.12-.07.08q-.36.38-.75.72l-.14.13c-.28.24-.57.47-.86.69l-.1.07a10,10,0,0,1-1,.64h-.05a11,11,0,0,1-1.07.57h0a13.48,13.48,0,0,1-4.41,1.18l-.52,0H237.37a13.32,13.32,0,0,1-12.58-12.5v-.79h0V54.85H209V61.3h0a29,29,0,0,0,3.23,13.29h0a29.13,29.13,0,0,0,25.86,15.8H287a29.11,29.11,0,0,0,25.86-15.8h0c.25-.49.49-1,.72-1.51h0a29.16,29.16,0,0,0,1.11-3c.19-.6.38-1.19.53-1.8v-.21c.11-.45.2-.9.29-1.35h0l.08-.44q.11-.59.18-1.17v-.52c0-.39.08-.78.11-1.17V63h0c0-.55.05-1.1.05-1.66h0V47.57h.16Z" transform="translate(-18 -18.05)"/><polygon points="269.22 0.43 269.22 16.23 306.68 16.23 306.68 72.19 322.44 72.19 322.44 16.23 344.31 16.23 360 0.54 360 0.43 269.22 0.43" style="fill:#a30c33"/></svg>