<?xml version="1.0" encoding="UTF-8" standalone="no"?>
<!-- Created with Inkscape (http://www.inkscape.org/) -->

<svg
   xmlns:dc="http://purl.org/dc/elements/1.1/"
   xmlns:cc="http://creativecommons.org/ns#"
   xmlns:rdf="http://www.w3.org/1999/02/22-rdf-syntax-ns#"
   xmlns:svg="http://www.w3.org/2000/svg"
   xmlns="http://www.w3.org/2000/svg"
   xmlns:sodipodi="http://sodipodi.sourceforge.net/DTD/sodipodi-0.dtd"
   xmlns:inkscape="http://www.inkscape.org/namespaces/inkscape"
   width="74.5"
   height="32.700001"
   viewBox="0 0 74.5 32.700002"
   id="svg4915"
   version="1.1"
   inkscape:version="0.91 r13725"
   sodipodi:docname="mia airport.svg">
  <defs
     id="defs4917" />
  <sodipodi:namedview
     id="base"
     pagecolor="#ffffff"
     bordercolor="#666666"
     borderopacity="1.0"
     inkscape:pageopacity="0.0"
     inkscape:pageshadow="2"
     inkscape:zoom="4.5259396"
     inkscape:cx="83.197356"
     inkscape:cy="45.289634"
     inkscape:document-units="px"
     inkscape:current-layer="layer1"
     showgrid="false"
     fit-margin-top="0"
     fit-margin-left="0"
     fit-margin-right="0"
     fit-margin-bottom="0"
     units="px"
     inkscape:window-width="1280"
     inkscape:window-height="744"
     inkscape:window-x="-4"
     inkscape:window-y="-4"
     inkscape:window-maximized="1" />
  <metadata
     id="metadata4920">
    <rdf:RDF>
      <cc:Work
         rdf:about="">
        <dc:format>image/svg+xml</dc:format>
        <dc:type
           rdf:resource="http://purl.org/dc/dcmitype/StillImage" />
        <dc:title></dc:title>
      </cc:Work>
    </rdf:RDF>
  </metadata>
  <g
     inkscape:label="Layer 1"
     inkscape:groupmode="layer"
     id="layer1"
     transform="translate(1170.1519,-874.44843)">
    <g
       id="g5185"
       transform="translate(0.228,-0.24349244)">
      <path
         id="path5159"
         d="m -1133.8189,904.06443 10.102,0.031 0.088,-28.976 -1.613,-0.004 -8.488,-0.026 -0.089,28.975 m -0.674,-28.978 -11.49,-0.035 -2.172,7.04 c -0.543,1.725 -0.944,3.25 -1.287,4.637 -0.316,1.386 -0.546,2.686 -0.719,3.931 l -0.17,-0.001 c -0.193,-1.952 -0.723,-4.444 -1.563,-7.475 -0.14,-0.426 -0.252,-0.765 -0.308,-0.991 l -2.043,-7.165 -10.723,-0.033 -5.042,28.988 10.159,0.003 1.365,-11.54 c 0.088,-0.878 0.147,-1.755 0.235,-2.604 0.059,-0.848 0.147,-1.753 0.206,-2.63 0.111,0.821 0.278,1.699 0.501,2.633 0.195,0.906 0.475,1.896 0.783,2.945 l 3.333,11.244 5.943,-0.01 3.542,-11.194 c 0.343,-1.047 0.601,-2.036 0.802,-2.941 0.23,-0.933 0.402,-1.81 0.518,-2.63 0.054,0.877 0.136,1.755 0.19,2.633 0.082,0.849 0.136,1.726 0.246,2.604 l 1.21,11.548 6.367,0.02 0.117,-28.977 z m 11.569,29.011 5.715,0.019 0.947,-3.873 3.904,0.012 0.021,-6.877 -2.179,-0.006 0.916,-3.252 c 0.43,-1.64 0.745,-2.912 0.889,-3.817 0.172,-0.904 0.26,-1.726 0.319,-2.517 l 0.084,0 0.027,-8.631 -10.526,-0.004 -0.117,28.946 z m 10.565,-3.843 3.934,0.013 0.95,3.851 11.233,0.034 -10.069,-29.007 -5.97,0.01 -0.027,8.631 0.086,10e-4 c 0.025,0.791 0.136,1.612 0.274,2.519 0.167,0.905 0.448,2.18 0.895,3.822 l 0.867,3.257 -2.151,-0.007 -0.022,6.876 z"
         inkscape:connector-curvature="0"
         style="fill:#005094" />
      <path
         id="path5161"
         d="m -1166.3979,906.93643 0.01,-2.096 0.481,0.002 0,2.095 -0.483,-10e-4 m 2.582,-2.087 -10e-4,0.425 -0.485,0.848 0.482,10e-4 -10e-4,0.368 -0.68,-0.002 -0.256,0.452 -0.48,-0.002 1.194,-2.09 0.227,0 z m -6.344,2.074 0.01,-2.094 0.396,10e-4 0.987,1.277 0.966,-1.271 0.396,0.001 -0.01,2.096 -0.453,-0.002 0,-1.272 c 0,-0.029 0,-0.057 0,-0.113 0,-0.028 10e-4,-0.085 0.029,-0.112 -0.028,0.056 -0.057,0.084 -0.085,0.111 -0.029,0.058 -0.029,0.085 -0.057,0.085 l -0.795,1.072 -0.086,0 -0.79,-1.077 c -0.028,-0.028 -0.057,-0.057 -0.085,-0.112 10e-4,-0.029 -0.028,-0.058 -0.028,-0.086 0,0.028 0,0.086 0,0.113 0,0.028 0,0.057 0,0.113 l 0,1.271 -0.395,-10e-4 z m 23.005,0.072 0.01,-2.095 2.122,0.007 0,0.368 -1.642,-0.005 -10e-4,0.454 0.962,0.003 -10e-4,0.367 -0.963,-0.004 -10e-4,0.51 1.67,0.005 -10e-4,0.396 -2.151,-0.006 z m -1.581,-1.704 0,1.698 -0.481,-10e-4 0,-1.699 -0.961,-0.003 0,-0.396 2.405,0.008 0,0.396 -0.963,-0.003 z m -4.503,1.685 0.01,-2.095 0.339,10e-4 1.467,1.25 c 0.057,0.029 0.085,0.085 0.113,0.114 0.057,0.028 0.085,0.085 0.113,0.113 0,-0.113 0,-0.198 0,-0.254 0,-0.058 -0.027,-0.085 -0.027,-0.113 l 0,-1.104 0.452,10e-4 -0.01,2.095 -0.34,-10e-4 -1.523,-1.278 c -0.057,-0.057 -0.085,-0.085 -0.113,-0.113 -0.029,0 -0.057,-0.028 -0.057,-0.057 0,0.057 0,0.113 0,0.17 0,0.057 0,0.113 0,0.142 l 0,1.131 -0.425,-0.002 z m -1.557,-0.005 0.01,-2.095 0.481,10e-4 -0.01,2.096 -0.481,-0.002 z m -3.14,-0.01 0.01,-2.095 0.48,0.002 -0.01,2.094 -0.481,-0.001 z m -3.764,-0.011 0.01,-2.094 0.397,10e-4 0.987,1.276 0.965,-1.271 0.397,10e-4 -0.01,2.094 -0.454,-0.001 0,-1.271 c 0,-0.029 0,-0.058 10e-4,-0.114 0,-0.028 0,-0.085 0,-0.113 -0.029,0.058 -0.029,0.085 -0.057,0.113 -0.029,0.057 -0.029,0.085 -0.057,0.085 l -0.795,1.072 -0.085,0 -0.789,-1.077 c -0.027,-0.029 -0.057,-0.057 -0.085,-0.113 10e-4,-0.029 -0.028,-0.057 -0.056,-0.085 0.028,0.028 0.028,0.084 0.028,0.113 0,0.028 0,0.056 0,0.113 l 0,1.271 -0.397,0 z m -2.12,-0.459 0,-0.368 0.453,0.002 -0.45,-0.851 10e-4,-0.425 0.255,10e-4 1.182,2.098 -0.538,-0.002 -0.253,-0.453 -0.651,-0.002 z m 20.859,-1.578 -10e-4,0.368 -0.652,-0.002 0,0.596 0.652,10e-4 0,0.538 -0.2,-0.199 -0.452,-10e-4 0,0.792 -0.48,-0.002 0.01,-2.094 1.133,0.003 z m 2.115,2.101 0.01,-2.095 0.341,10e-4 1.467,1.25 c 0.056,0.028 0.084,0.085 0.141,0.114 0.028,0.028 0.056,0.085 0.084,0.113 0,-0.113 0,-0.198 0,-0.254 0,-0.058 0,-0.085 0,-0.113 l 0,-1.105 0.424,0.003 -0.01,2.094 -0.339,-10e-4 -1.523,-1.277 c -0.028,-0.057 -0.057,-0.086 -0.086,-0.114 -0.027,0 -0.057,-0.028 -0.083,-0.057 0,0.056 -10e-4,0.113 -10e-4,0.17 0,0.056 0.027,0.113 0.026,0.141 l 0,1.133 -0.453,-0.003 z m -2.119,-0.6 0,-0.538 0.452,0.002 c 0.085,0 0.142,-0.027 0.17,-0.056 0.029,0 0.057,-0.057 0.057,-0.113 l 10e-4,-0.255 c 0,-0.057 -0.028,-0.115 -0.056,-0.143 -0.028,0 -0.085,-0.028 -0.169,-0.028 l -0.453,-0.002 10e-4,-0.368 0.65,0.002 c 0.17,10e-4 0.311,0.03 0.368,0.115 0.085,0.057 0.112,0.17 0.112,0.311 l 0,0.482 c 0,0.142 -0.028,0.255 -0.114,0.311 -0.056,0.057 -0.198,0.084 -0.368,0.084 l -0.254,-10e-4 0.959,0.796 -0.707,-0.004 -0.648,-0.595 z m 6.654,-1.481 0,0.425 -0.455,0.848 0.452,0.002 -10e-4,0.368 -0.651,-0.003 -0.256,0.452 -0.48,-10e-4 1.194,-2.091 0.198,0 z m 1.438,2.043 -1.184,-2.042 -0.254,-10e-4 0,0.425 0.449,0.851 -0.452,-10e-4 -10e-4,0.368 0.678,0.002 0.254,0.453 0.51,10e-4 10e-4,-0.056 z m 0.01,-2.038 -10e-4,0.396 -0.057,0 10e-4,-0.396 0.057,0 z m 2.936,2.102 0.01,-2.094 0.481,0.002 -0.01,2.094 -0.48,-0.002 z m -2.937,-1.707 0.904,0.003 -0.01,1.699 0.509,0.002 0,-1.699 0.933,0.003 0,-0.396 -2.347,-0.007 -10e-4,0.395 z m -0.01,1.699 10e-4,-0.056 0.027,0.056 -0.028,0 z m 5.751,-2.076 0,0.396 -0.792,-0.003 0,1.303 0.792,0.002 -10e-4,0.396 -0.763,-0.002 c -0.2,-0.001 -0.341,-0.028 -0.426,-0.086 -0.056,-0.085 -0.112,-0.198 -0.112,-0.396 l 0,-1.104 c 0,-0.198 0.057,-0.341 0.114,-0.396 0.085,-0.057 0.226,-0.112 0.426,-0.111 l 0.764,10e-4 z m 2.314,2.101 0.01,-2.095 0.34,10e-4 1.466,1.25 c 0.057,0.029 0.085,0.085 0.141,0.114 0.028,0.028 0.057,0.085 0.085,0.113 0,-0.113 0,-0.198 10e-4,-0.255 0,-0.057 0,-0.084 0,-0.112 l 0,-1.104 0.426,10e-4 -0.01,2.094 -0.339,0 -1.525,-1.277 c -0.028,-0.057 -0.084,-0.086 -0.112,-0.114 -0.029,0 -0.029,-0.028 -0.057,-0.057 0,0.057 0,0.114 0,0.17 -10e-4,0.057 -10e-4,0.113 -10e-4,0.141 l 0,1.132 -0.424,-0.002 z m -2.322,-0.008 10e-4,-0.396 0.792,0.003 0,-1.303 -0.792,-0.002 0,-0.396 0.763,0.002 c 0.226,10e-4 0.339,0.059 0.424,0.115 0.056,0.056 0.112,0.198 0.112,0.397 l 0,1.103 c 0,0.199 -0.057,0.312 -0.114,0.396 -0.085,0.056 -0.198,0.084 -0.424,0.082 l -0.764,-10e-4 z m 6.854,-2.072 -10e-4,0.424 -0.455,0.849 0.452,10e-4 0,0.368 -0.65,-0.002 -0.256,0.451 -0.481,-0.002 1.194,-2.09 0.198,10e-4 z m 2.144,2.101 0.01,-2.095 0.481,0.002 -0.01,1.698 1.557,0.005 0,0.396 -2.038,-0.006 z m -2.149,-0.459 0,-0.368 0.454,0.002 -0.451,-0.852 10e-4,-0.424 0.257,0 1.209,2.099 -0.566,-0.002 -0.253,-0.453 -0.652,-0.002 z m 7.504,-1.62 -10e-4,0.424 -0.484,0.849 0.481,0.002 -10e-4,0.368 -0.679,-0.002 -0.256,0.45 -0.48,-10e-4 1.194,-2.091 0.226,10e-4 z m 2.116,2.102 0.01,-2.096 0.48,0.002 -0.01,2.095 -0.481,-10e-4 z m -2.121,-0.459 10e-4,-0.368 0.453,10e-4 -0.45,-0.852 10e-4,-0.424 0.255,0.001 1.183,2.098 -0.538,-10e-4 -0.253,-0.453 -0.652,-0.002 z m 4.816,-1.627 -10e-4,0.366 -0.651,-10e-4 0,0.596 0.651,0.002 0,0.537 -0.169,-0.199 -0.481,-10e-4 0,0.792 -0.481,-0.002 0.01,-2.094 1.131,0.004 z m 0,1.5 0,-0.537 0.452,10e-4 c 0.085,0 0.142,-0.028 0.17,-0.057 0.028,0 0.057,-0.056 0.057,-0.112 l 10e-4,-0.254 c 0,-0.059 -0.028,-0.115 -0.056,-0.145 -0.028,0 -0.085,-0.028 -0.17,-0.028 l -0.452,-0.002 10e-4,-0.366 0.679,0.002 c 0.169,0 0.282,0.028 0.34,0.113 0.085,0.058 0.113,0.17 0.112,0.312 l -10e-4,0.482 c -10e-4,0.142 -0.029,0.255 -0.115,0.311 -0.058,0.057 -0.171,0.085 -0.341,0.084 l -0.282,0 0.96,0.794 -0.709,-0.002 -0.648,-0.596 z m 3.287,-1.491 0,0.368 -0.679,-0.002 0,0.567 0.679,0.002 -10e-4,0.367 -0.679,-0.002 0,0.792 -0.481,-0.002 0.01,-2.094 1.16,0.004 z m -0.01,1.303 10e-4,-0.367 0.425,10e-4 c 0.085,0 0.142,-0.027 0.171,-0.056 0.028,0 0.056,-0.057 0.056,-0.113 l 10e-4,-0.226 c 0,-0.059 -0.027,-0.115 -0.056,-0.144 -0.028,-10e-4 -0.085,-0.028 -0.17,-0.028 l -0.425,-0.002 0,-0.368 0.652,0.003 c 0.169,0 0.282,0.029 0.367,0.114 0.056,0.057 0.113,0.17 0.112,0.312 l -10e-4,0.454 c -10e-4,0.141 -0.058,0.254 -0.114,0.31 -0.086,0.058 -0.199,0.113 -0.368,0.112 l -0.652,-0.002 z m 3.118,-1.293 -10e-4,0.396 -0.793,-0.002 0,1.302 0.793,0.003 -10e-4,0.395 -0.765,-0.002 c -0.198,0 -0.339,-0.028 -0.424,-0.086 -0.056,-0.085 -0.084,-0.198 -0.084,-0.396 l 0,-1.104 c 0,-0.199 0.029,-0.341 0.086,-0.396 0.085,-0.058 0.227,-0.113 0.424,-0.112 l 0.765,0.002 z m -0.01,2.093 0,-0.395 0.82,0.002 0,-1.302 -0.82,-0.003 0,-0.396 0.793,0.002 c 0.197,10e-4 0.339,0.059 0.395,0.115 0.084,0.057 0.112,0.199 0.112,0.397 l 0,1.104 c 0,0.198 -0.029,0.311 -0.114,0.396 -0.057,0.057 -0.198,0.083 -0.396,0.083 l -0.792,-0.003 z m 3.487,-2.083 0,0.367 -0.679,-10e-4 -10e-4,0.595 0.679,0.002 0,0.537 -0.197,-0.197 -0.482,-0.002 0,0.792 -0.482,-10e-4 0.01,-2.096 1.162,0.004 z m 2.997,0.406 -0.01,1.698 -0.479,-10e-4 0,-1.698 -0.963,-0.004 10e-4,-0.396 2.433,0.009 -10e-4,0.396 -0.99,-0.004 z m -3.002,1.094 0,-0.537 0.424,10e-4 c 0.085,0 0.141,-0.027 0.17,-0.056 0.028,0 0.056,-0.056 0.056,-0.113 l 10e-4,-0.254 c 0,-0.058 -0.028,-0.114 -0.056,-0.143 -0.028,-10e-4 -0.084,-0.029 -0.17,-0.029 l -0.424,-0.002 0,-0.367 0.65,0.002 c 0.17,10e-4 0.283,0.029 0.339,0.114 0.084,0.057 0.113,0.17 0.113,0.313 l 0,0.481 c -10e-4,0.142 -0.029,0.254 -0.114,0.312 -0.057,0.056 -0.17,0.084 -0.34,0.083 l -0.283,0 0.96,0.794 -0.708,-0.002 -0.62,-0.597 z"
         inkscape:connector-curvature="0" />
      <path
         id="path5165"
         d="m -1133.8469,904.06443 0.317,-2.064 3.376,-3.045 c 0.01,-1.953 0.012,-3.904 0.018,-5.857 0.019,-6.311 -5.939,-0.981 -8.234,-0.053 0,-0.936 -0.248,-1.983 0.433,-2.604 3.434,-3.158 3.862,-4.289 7.295,-7.391 0,-1.415 0.037,-2.83 0.07,-4.216 0.01,-2.603 0.464,-3.904 1.88,-3.899 1.413,0.004 1.863,1.307 1.855,3.882 0.024,1.415 0.048,2.83 0.044,4.245 3.442,3.123 3.863,4.229 7.276,7.437 0.707,0.625 0.421,1.642 0.418,2.604 -2.289,-0.969 -8.216,-6.335 -8.235,0.003 -0.01,1.953 -0.012,3.905 -0.018,5.858 l 3.358,3.038 0.277,2.094 -10.13,-0.032"
         inkscape:connector-curvature="0"
         style="fill:#cfd0d1" />
    </g>
  </g>
</svg>
