<?xml version="1.0" encoding="utf-8"?>
<!-- Generator: Adobe Illustrator 21.0.0, SVG Export Plug-In . SVG Version: 6.00 Build 0)  -->
<svg version="1.1" id="Layer_1" xmlns="http://www.w3.org/2000/svg" xmlns:xlink="http://www.w3.org/1999/xlink" x="0px" y="0px"
	 viewBox="0 0 455 500" style="enable-background:new 0 0 455 500;" xml:space="preserve">
<style type="text/css">
	.st0{fill:#0039A6;}
	.st1{fill:#FFFFFF;}
</style>
<path class="st0" d="M0.4,106.9C45.6,42.3,120.6,0,205.4,0c138.1,0,250,111.9,250,250c0,138.1-111.9,250-250,250
	C124,500,51.6,461,6,400.8"/>
<path class="st1" d="M34,395.8c0,0,0-87.4-0.8-97.3c0-9.5-4.7-64.2-3.7-73.4l2.6,0.1l32.8,165.3l45.9-8.1l26.7-153.1
	c0.8,0,2.2,0,3,0c1.4,9.4-2.4,53.8-2.4,63.3c-0.8,9.9-0.8,85-0.8,85l46.5-8.1V139l-72.6-12.6L90.8,267.6
	c-0.7,0-20.6-148.4-20.6-148.4L0,107l5.7,293.8"/>
<polygon class="st1" points="329.4,321.1 351.8,318.2 354.7,339.6 380.9,335.1 355.8,169.2 324.6,163.8 293,350.5 326.3,344.6 "/>
<polygon class="st1" points="195.9,200.5 231.1,203.6 231.2,361.2 274.2,353.7 274.2,207.4 302,209.7 302,159.5 195.9,141.1 "/>
<polygon class="st0" points="339.4,225.6 334.4,281.2 347.3,280.4 342.5,225.6 "/>
</svg>
