<?xml version="1.0" encoding="utf-8"?>
<!-- Generator: Adobe Illustrator 15.0.2, SVG Export Plug-In . SVG Version: 6.00 Build 0)  -->
<!DOCTYPE svg PUBLIC "-//W3C//DTD SVG 1.1//EN" "http://www.w3.org/Graphics/SVG/1.1/DTD/svg11.dtd">
<svg version="1.1" id="Layer_1" xmlns="http://www.w3.org/2000/svg" xmlns:xlink="http://www.w3.org/1999/xlink" x="0px" y="0px"
	 width="200px" height="45px" viewBox="0 0 200 45" enable-background="new 0 0 200 45" xml:space="preserve">
<path d="M3.946,7.437v14.159H0.461V2.863c0.491-3.485,4.574-1.961,4.574-1.961l1.307,1.961l6.754,10.239V0.684h3.92v12.852
	c-1.306,4.302-5.01,3.159-5.01,3.159l-1.633-1.09L3.946,7.437z"/>
<polygon points="34.422,1.014 34.422,3.473 30.273,3.473 30.273,14.843 27.384,14.843 27.384,3.473 23.236,3.473 23.236,1.014 "/>
<path d="M39,3.379v3.75h3.092c0.613,0,1.074-0.075,1.381-0.228c0.542-0.264,0.815-0.787,0.815-1.571
	c0-0.845-0.263-1.413-0.789-1.704c-0.296-0.165-0.739-0.247-1.328-0.247H39z M44.908,1.37c0.507,0.22,0.937,0.541,1.29,0.966
	c0.291,0.348,0.523,0.737,0.692,1.161c0.17,0.426,0.255,0.908,0.255,1.454c0,0.655-0.163,1.3-0.492,1.933
	c-0.328,0.635-0.868,1.084-1.623,1.346c0.623,0.255,1.066,0.62,1.326,1.09c0.26,0.47,0.389,1.192,0.389,2.165v0.931
	c0,0.634,0.025,1.063,0.076,1.29c0.077,0.358,0.256,0.621,0.539,0.79v0.348h-3.14c-0.089-0.307-0.153-0.554-0.189-0.742
	c-0.078-0.391-0.118-0.789-0.125-1.196l-0.019-1.29c-0.012-0.884-0.163-1.476-0.454-1.771c-0.291-0.294-0.834-0.441-1.632-0.441H39
	v5.439h-2.856V1.014h6.589C43.676,1.033,44.401,1.152,44.908,1.37"/>
<path d="M53.667,9.618h3.524l-1.736-5.443L53.667,9.618z M53.86,1.014h3.258l4.863,13.829h-3.124l-0.912-2.86h-5.057l-0.94,2.86
	h-3.005L53.86,1.014z"/>
<polygon points="63.738,1.014 66.748,1.014 72.219,10.642 72.219,1.014 74.894,1.014 74.894,14.843 72.023,14.843 66.413,5.03 
	66.413,14.843 63.738,14.843 "/>
<path d="M79.671,10.57c0.087,0.634,0.262,1.107,0.519,1.418c0.473,0.573,1.282,0.856,2.43,0.856c0.686,0,1.244-0.075,1.671-0.225
	c0.812-0.288,1.219-0.824,1.219-1.607c0-0.458-0.2-0.811-0.601-1.061c-0.399-0.244-1.031-0.461-1.896-0.649l-1.478-0.328
	c-1.451-0.325-2.453-0.677-3.008-1.059C77.589,7.28,77.12,6.284,77.12,4.927c0-1.238,0.453-2.265,1.359-3.084
	c0.905-0.819,2.235-1.228,3.989-1.228c1.466,0,2.716,0.386,3.75,1.157c1.035,0.772,1.577,1.892,1.627,3.359H85.08
	c-0.051-0.82-0.418-1.403-1.103-1.748c-0.455-0.228-1.023-0.342-1.702-0.342c-0.753,0-1.356,0.15-1.807,0.447
	c-0.45,0.296-0.673,0.712-0.673,1.245c0,0.488,0.22,0.854,0.664,1.094c0.286,0.163,0.892,0.351,1.818,0.57l2.404,0.573
	c1.052,0.25,1.842,0.583,2.368,1.001c0.817,0.648,1.227,1.588,1.227,2.819c0,1.26-0.485,2.307-1.453,3.14
	c-0.97,0.834-2.338,1.25-4.107,1.25c-1.805,0-3.224-0.408-4.259-1.229c-1.034-0.819-1.551-1.948-1.551-3.381H79.671z"/>
<rect x="90.122" y="1.013" width="2.857" height="13.83"/>
<polygon points="105.773,1.014 105.773,3.473 101.624,3.473 101.624,14.843 98.735,14.843 98.735,3.473 94.586,3.473 94.586,1.014 
	"/>
<polygon points="29.062,22.594 29.062,23.485 26.541,23.485 26.541,30.092 25.511,30.092 25.511,23.485 22.992,23.485 
	22.992,22.594 "/>
<path d="M30.429,22.578h0.922v2.802c0.217-0.277,0.413-0.476,0.586-0.589c0.297-0.195,0.666-0.294,1.108-0.294
	c0.792,0,1.328,0.278,1.611,0.833c0.153,0.303,0.229,0.721,0.229,1.259v3.503h-0.937v-3.436c0-0.399-0.05-0.695-0.153-0.88
	c-0.169-0.298-0.482-0.448-0.942-0.448c-0.382,0-0.729,0.131-1.038,0.391c-0.31,0.261-0.464,0.755-0.464,1.482v2.891h-0.922V22.578z
	"/>
<path d="M40.492,26.911c-0.039-0.397-0.124-0.714-0.257-0.952c-0.248-0.44-0.664-0.662-1.244-0.662
	c-0.417,0-0.765,0.153-1.047,0.457c-0.282,0.304-0.432,0.69-0.448,1.158H40.492z M40.174,24.771c0.36,0.182,0.636,0.417,0.824,0.705
	c0.182,0.273,0.304,0.596,0.364,0.96c0.055,0.252,0.081,0.657,0.081,1.212h-3.964c0.018,0.552,0.147,0.996,0.389,1.328
	c0.242,0.333,0.619,0.501,1.126,0.501c0.473,0,0.852-0.156,1.136-0.473c0.154-0.181,0.264-0.394,0.329-0.634h0.908
	c-0.025,0.203-0.103,0.426-0.238,0.671c-0.135,0.247-0.285,0.448-0.449,0.604c-0.276,0.271-0.617,0.455-1.025,0.549
	c-0.217,0.056-0.466,0.082-0.74,0.082c-0.674,0-1.246-0.247-1.716-0.742c-0.468-0.495-0.702-1.187-0.702-2.078
	c0-0.877,0.236-1.589,0.708-2.136c0.472-0.548,1.09-0.821,1.853-0.821C39.44,24.499,39.813,24.588,40.174,24.771"/>
<polygon points="47.214,22.594 48.63,28.685 50.341,22.594 51.424,22.594 53.146,28.733 54.565,22.594 55.676,22.594 53.71,30.092 
	52.642,30.092 50.898,23.875 49.15,30.092 48.081,30.092 46.119,22.594 "/>
<path d="M58.005,29.25c0.195,0.151,0.424,0.227,0.69,0.227c0.325,0,0.637-0.072,0.94-0.214c0.513-0.237,0.768-0.638,0.768-1.202
	v-0.736c-0.111,0.076-0.255,0.141-0.432,0.192c-0.175,0.051-0.348,0.088-0.516,0.106l-0.554,0.064
	c-0.332,0.038-0.583,0.105-0.753,0.2c-0.291,0.156-0.435,0.405-0.435,0.75C57.714,28.896,57.812,29.102,58.005,29.25 M59.944,26.794
	c0.211-0.026,0.353-0.115,0.423-0.265c0.045-0.081,0.066-0.197,0.066-0.349c0-0.309-0.11-0.533-0.332-0.673
	c-0.222-0.141-0.539-0.211-0.952-0.211c-0.479,0-0.816,0.129-1.018,0.385c-0.11,0.141-0.185,0.351-0.217,0.631h-0.861
	c0.018-0.678,0.235-1.151,0.655-1.416c0.419-0.266,0.905-0.398,1.458-0.398c0.641,0,1.162,0.126,1.563,0.379
	c0.396,0.253,0.595,0.636,0.595,1.15v3.133c0,0.096,0.021,0.172,0.059,0.23c0.041,0.058,0.123,0.085,0.251,0.085
	c0.042,0,0.088-0.003,0.141-0.007c0.05-0.006,0.105-0.013,0.165-0.022v0.672c-0.144,0.042-0.254,0.068-0.329,0.08
	c-0.075,0.01-0.178,0.015-0.309,0.015c-0.319,0-0.551-0.112-0.693-0.335c-0.075-0.121-0.129-0.287-0.16-0.505
	c-0.188,0.244-0.456,0.456-0.805,0.635c-0.351,0.179-0.737,0.267-1.159,0.267c-0.507,0-0.921-0.153-1.243-0.458
	c-0.32-0.307-0.48-0.69-0.48-1.153c0-0.504,0.157-0.895,0.473-1.173c0.316-0.278,0.731-0.447,1.246-0.511L59.944,26.794z"/>
<path d="M66.792,24.621h1.015c-0.129,0.351-0.416,1.153-0.861,2.403c-0.335,0.94-0.612,1.707-0.837,2.3
	c-0.533,1.396-0.908,2.244-1.126,2.551c-0.219,0.307-0.594,0.459-1.127,0.459c-0.13,0-0.229-0.006-0.299-0.015
	c-0.071-0.01-0.157-0.028-0.26-0.056v-0.825c0.162,0.044,0.278,0.07,0.35,0.082c0.072,0.009,0.135,0.015,0.189,0.015
	c0.172,0,0.297-0.026,0.377-0.085c0.08-0.056,0.147-0.126,0.201-0.209c0.019-0.026,0.081-0.167,0.185-0.423
	c0.107-0.254,0.184-0.443,0.232-0.567l-2.035-5.631h1.049l1.473,4.457L66.792,24.621z"/>
<polygon points="78.15,22.594 78.15,23.485 75.629,23.485 75.629,30.092 74.6,30.092 74.6,23.485 72.081,23.485 72.081,22.594 "/>
<path d="M82.931,28.789c0.225-0.458,0.335-0.969,0.335-1.53c0-0.508-0.079-0.923-0.241-1.24c-0.257-0.502-0.696-0.752-1.322-0.752
	c-0.552,0-0.957,0.213-1.209,0.64c-0.251,0.426-0.377,0.941-0.377,1.542c0,0.579,0.126,1.063,0.377,1.448
	c0.252,0.386,0.654,0.579,1.2,0.579C82.295,29.477,82.708,29.247,82.931,28.789 M83.495,25.17c0.483,0.47,0.726,1.157,0.726,2.066
	c0,0.88-0.215,1.605-0.641,2.18c-0.424,0.573-1.085,0.859-1.98,0.859c-0.746,0-1.339-0.252-1.779-0.761
	c-0.439-0.505-0.658-1.19-0.658-2.043c0-0.917,0.232-1.646,0.694-2.188c0.461-0.545,1.083-0.815,1.864-0.815
	C82.421,24.468,83.012,24.703,83.495,25.17"/>
<path d="M94.448,22.801c0.733,0.391,1.181,1.074,1.345,2.052h-0.999c-0.121-0.542-0.367-0.937-0.743-1.184
	c-0.376-0.247-0.851-0.369-1.422-0.369c-0.68,0-1.251,0.26-1.717,0.778c-0.464,0.521-0.696,1.295-0.696,2.324
	c0,0.892,0.191,1.616,0.574,2.175c0.383,0.558,1.007,0.837,1.874,0.837c0.664,0,1.212-0.195,1.646-0.587
	c0.435-0.394,0.658-1.025,0.668-1.9h-2.35v-0.846h3.287v4.011h-0.648l-0.244-0.968c-0.339,0.38-0.637,0.642-0.899,0.789
	c-0.438,0.251-0.994,0.377-1.671,0.377c-0.874,0-1.625-0.288-2.253-0.864c-0.687-0.72-1.031-1.711-1.031-2.971
	c0-1.257,0.336-2.257,1.004-2.999c0.638-0.708,1.461-1.063,2.474-1.063C93.342,22.393,93.941,22.529,94.448,22.801"/>
<path d="M101.416,28.789c0.222-0.458,0.335-0.969,0.335-1.53c0-0.508-0.081-0.923-0.243-1.24c-0.255-0.502-0.694-0.752-1.32-0.752
	c-0.554,0-0.956,0.213-1.208,0.64c-0.253,0.426-0.377,0.941-0.377,1.542c0,0.579,0.125,1.063,0.377,1.448
	c0.252,0.386,0.65,0.579,1.198,0.579C100.78,29.477,101.191,29.247,101.416,28.789 M101.979,25.17
	c0.482,0.47,0.723,1.157,0.723,2.066c0,0.88-0.211,1.605-0.638,2.18c-0.424,0.573-1.085,0.859-1.979,0.859
	c-0.746,0-1.339-0.252-1.779-0.761c-0.439-0.505-0.658-1.19-0.658-2.043c0-0.917,0.232-1.646,0.693-2.188
	c0.463-0.545,1.084-0.815,1.866-0.815C100.904,24.468,101.496,24.703,101.979,25.17"/>
<rect x="104.591" y="29" width="1.06" height="1.09"/>
<polygon fill="#F5853E" points="112.099,1.011 129.308,1.011 158.934,43.925 142.16,43.925 "/>
<polygon fill="#B61D8E" points="128.106,1.011 145.316,1.011 174.94,43.925 158.168,43.925 "/>
<polygon fill="#004F99" points="144.605,1.011 161.815,1.011 191.441,43.925 174.666,43.925 "/>
<path d="M5.607,10.541v6.701c0,0,3.098,4.389,7.73,4.389c5.605,0,8.522-4.356,8.522-6.126V0.735l-3.906-0.022
	c0,0-0.097,12.897-0.091,13.123c0.034,1.176-1.439,4.054-4.75,4.054C9.805,17.889,5.607,10.541,5.607,10.541"/>
<path d="M195.658,40.722h0.429c0.487,0,0.9-0.178,0.9-0.635c0-0.323-0.236-0.649-0.9-0.649c-0.192,0-0.324,0.016-0.429,0.031V40.722
	z M195.658,42.772h-0.589v-3.701c0.31-0.046,0.604-0.09,1.047-0.09c0.562,0,0.929,0.118,1.15,0.281
	c0.222,0.162,0.339,0.414,0.339,0.767c0,0.488-0.324,0.781-0.723,0.899v0.031c0.325,0.059,0.547,0.354,0.62,0.899
	c0.088,0.574,0.178,0.796,0.236,0.915h-0.62c-0.089-0.119-0.178-0.458-0.249-0.946c-0.09-0.47-0.325-0.646-0.798-0.646h-0.414
	V42.772z M196.277,38.037c-1.46,0-2.653,1.254-2.653,2.802c0,1.579,1.193,2.817,2.669,2.817c1.476,0.015,2.655-1.238,2.655-2.803
	c0-1.563-1.18-2.817-2.655-2.817H196.277z M196.293,37.521c1.813,0,3.26,1.476,3.26,3.318c0,1.875-1.446,3.334-3.275,3.334
	c-1.813,0-3.287-1.46-3.287-3.334c0-1.842,1.474-3.318,3.287-3.318H196.293z"/>
</svg>
