<?xml version="1.0" encoding="utf-8"?>
<!-- Generator: Adobe Illustrator 15.0.2, SVG Export Plug-In . SVG Version: 6.00 Build 0)  -->
<!DOCTYPE svg PUBLIC "-//W3C//DTD SVG 1.1//EN" "http://www.w3.org/Graphics/SVG/1.1/DTD/svg11.dtd">
<svg version="1.1" id="Layer_1" xmlns="http://www.w3.org/2000/svg" xmlns:xlink="http://www.w3.org/1999/xlink" x="0px" y="0px"
	 width="186.689px" height="200px" viewBox="0 0 186.689 200" enable-background="new 0 0 186.689 200" xml:space="preserve">
<path fill="#003F62" d="M96.105,71.733H82.821v24.064c0,0,0.013,0,0.017,0v0.816c-14.545,0.793-29.67,2.167-44.373,4.59
	c1.632,2.557,3.426,4.986,5.382,7.283c21.594-6.133,47.583-10.623,68.652-12.319 M93.638,0.769
	c-36.105,0-65.367,29.265-65.367,65.369c0,9.135,1.875,17.827,5.259,25.722c15.15-0.347,27.676,0.019,32.287,0.232
	c0.03,0.013,0.064,0.017,0.094,0.025V19.465h35.138c9.772,0,17.346,2.745,22.399,7.795c4.283,4.285,6.589,10.324,6.589,17.569v0.222
	c0,12.408-6.699,20.207-16.467,23.827l18.772,27.45l-0.371,0.023c-26.171,5.157-51.95,12.003-74.043,24.542
	c3.708,2.42,7.667,4.479,11.839,6.115c20.401-15.134,46.888-23.998,83.586-34.258C156.984,84.621,159,75.613,159,66.137
	C159,30.034,129.734,0.769,93.638,0.769 M112.909,45.928v-0.217c0-7.25-5.055-10.985-13.292-10.985H82.821V56.8h17.132
	C108.191,56.8,112.909,52.408,112.909,45.928 M104.002,130.682c20.605-3.282,37.989-16.19,47.416-33.969
	C130.387,107.161,115.117,118.267,104.002,130.682"/>
<polyline fill="#003F62" points="1.103,152.829 5.735,152.829 13.099,162.295 13.099,152.829 18.009,152.829 18.009,170.737 
	13.662,170.737 6.012,160.91 6.012,170.737 1.103,170.737 "/>
<path fill="#003F62" d="M23.123,161.83v-0.051c0-5.14,4.146-9.312,9.67-9.312c5.527,0,9.619,4.121,9.619,9.265v0.047
	c0,5.148-4.143,9.316-9.67,9.316C27.218,171.096,23.123,166.975,23.123,161.83 M37.344,161.83v-0.051
	c0-2.583-1.867-4.833-4.603-4.833c-2.71,0-4.526,2.199-4.526,4.786v0.047c0,2.583,1.862,4.837,4.577,4.837
	C35.529,166.616,37.344,164.413,37.344,161.83"/>
<path fill="#003F62" d="M47.542,152.829h8.473c2.736,0,4.632,0.717,5.83,1.943c1.053,1.023,1.589,2.404,1.589,4.168v0.052
	c0,2.736-1.458,4.556-3.686,5.502l4.27,6.243h-5.728l-3.605-5.43h-2.174v5.43h-4.969 M55.785,161.421
	c1.688,0,2.659-0.818,2.659-2.122v-0.051c0-1.406-1.023-2.123-2.685-2.123h-3.248v4.296H55.785z"/>
<polyline fill="#003F62" points="72.87,157.177 66.963,157.177 67.496,152.829 83.738,152.829 83.205,157.177 77.831,157.177 
	77.831,170.737 72.87,170.737 "/>
<polyline fill="#003F62" points="87.936,152.829 92.896,152.829 92.896,159.533 99.268,159.533 99.268,152.829 104.229,152.829 
	104.229,170.737 99.268,170.737 99.268,163.932 92.896,163.932 92.896,170.737 87.936,170.737 "/>
<polyline fill="#003F62" points="109.96,152.829 124.36,152.829 123.828,157.049 114.87,157.049 114.87,159.759 122.933,159.759 
	122.4,163.672 114.87,163.672 114.87,166.514 124.488,166.514 123.956,170.737 109.96,170.737 "/>
<path fill="#003F62" d="M135.77,152.697h4.781l7.624,18.04h-5.322l-1.309-3.2h-6.904l-1.278,3.2h-5.217 M140.116,163.672
	l-1.994-5.089l-2.021,5.089H140.116z"/>
<path fill="#003F62" d="M150.855,168.074l2.762-3.304c1.765,1.407,3.733,2.148,5.809,2.148c1.326,0,2.042-0.456,2.042-1.228v-0.051
	c0-0.742-0.584-1.146-3.018-1.714c-3.81-0.869-6.755-1.943-6.755-5.625v-0.051c0-3.324,2.638-5.732,6.934-5.732
	c3.043,0,5.426,0.822,7.369,2.382l-2.485,3.504c-1.636-1.151-3.426-1.765-5.012-1.765c-1.201,0-1.789,0.512-1.789,1.15v0.052
	c0,0.817,0.613,1.176,3.098,1.738c4.117,0.896,6.674,2.225,6.674,5.579v0.051c0,3.656-2.89,5.83-7.236,5.83
	C156.072,171.04,153.055,170.047,150.855,168.074"/>
<polyline fill="#003F62" points="175.306,157.177 169.403,157.177 169.936,152.829 186.173,152.829 185.64,157.177 180.266,157.177 
	180.266,170.737 175.306,170.737 "/>
<path fill="#003F62" d="M15.115,181.617h8.468c2.736,0,4.628,0.717,5.83,1.943c1.053,1.027,1.585,2.404,1.585,4.173v0.047
	c0,2.736-1.458,4.552-3.682,5.502l4.274,6.243h-5.736l-3.605-5.425h-2.174v5.425h-4.96 M23.349,190.214
	c1.692,0,2.664-0.823,2.664-2.123v-0.051c0-1.41-1.027-2.127-2.689-2.127h-3.248v4.301H23.349z"/>
<polyline fill="#003F62" points="36.062,181.617 50.466,181.617 49.934,185.841 40.971,185.841 40.971,188.552 49.039,188.552 
	48.506,192.464 40.971,192.464 40.971,195.302 50.59,195.302 50.057,199.525 36.062,199.525 "/>
<path fill="#003F62" d="M54.941,190.623v-0.052c0-5.216,4.096-9.308,9.645-9.308c3.149,0,5.374,0.963,7.266,2.608l-2.919,3.499
	c-1.279-1.074-2.557-1.684-4.322-1.684c-2.583,0-4.577,2.174-4.577,4.909v0.052c0,2.89,2.02,4.961,4.858,4.961
	c1.206,0,2.127-0.256,2.868-0.742v-2.173h-3.533l0.533-3.636h7.705v8.059c-1.892,1.561-4.526,2.762-7.778,2.762
	C59.109,199.879,54.941,196.044,54.941,190.623"/>
<rect x="77.882" y="181.617" fill="#003F62" width="4.991" height="17.904"/>
<path fill="#003F62" d="M88.089,190.623v-0.052c0-5.144,4.143-9.308,9.674-9.308c5.523,0,9.619,4.113,9.619,9.257v0.051
	c0,5.145-4.146,9.308-9.674,9.308C92.185,199.879,88.089,195.763,88.089,190.623 M102.314,190.623v-0.052
	c0-2.582-1.871-4.837-4.607-4.837c-2.714,0-4.53,2.199-4.53,4.786v0.051c0,2.583,1.871,4.833,4.586,4.833
	C100.499,195.404,102.314,193.205,102.314,190.623"/>
<polyline fill="#003F62" points="112.518,181.617 117.146,181.617 124.514,191.083 124.514,181.617 129.424,181.617 
	129.424,199.525 125.076,199.525 117.431,189.702 117.431,199.525 112.518,199.525 "/>
<path fill="#003F62" d="M141.339,181.485h4.786l7.625,18.04h-5.323l-1.305-3.2h-6.903l-1.283,3.2h-5.216 M145.69,192.464
	l-1.994-5.093l-2.021,5.093H145.69z"/>
<polyline fill="#003F62" points="158.045,181.617 163.011,181.617 163.011,195.179 171.679,195.179 171.146,199.525 
	158.045,199.525 "/>
<path fill="#003F62" d="M175.079,182.781c-0.025-0.627-0.545-0.822-1.005-0.822c-0.346,0-0.93,0.098-0.93,0.711
	c0,0.346,0.247,0.461,0.481,0.516l1.159,0.269c0.524,0.12,0.921,0.439,0.921,1.083c0,0.963-0.895,1.223-1.585,1.223
	c-0.755,0-1.049-0.226-1.228-0.388c-0.346-0.311-0.409-0.647-0.409-1.031h0.507c0,0.737,0.605,0.955,1.125,0.955
	c0.393,0,1.057-0.106,1.057-0.69c0-0.418-0.195-0.555-0.86-0.712l-0.831-0.192c-0.265-0.067-0.865-0.247-0.865-0.954
	c0-0.635,0.413-1.253,1.394-1.253c1.419,0,1.564,0.844,1.585,1.287"/>
<path fill="#003F62" d="M179.733,185.653v-2.395c0-0.12,0.017-0.631,0.017-1.011h-0.017l-1.134,3.405h-0.545l-1.143-3.396h-0.009
	c0,0.371,0.009,0.882,0.009,1.002v2.395h-0.533v-4.053h0.789l1.154,3.427h0.014l1.15-3.427h0.784v4.053"/>
</svg>
