<?xml version="1.0" encoding="UTF-8" standalone="no"?>
<!-- Created with Inkscape (http://www.inkscape.org/) -->
<svg
   xmlns:svg="http://www.w3.org/2000/svg"
   xmlns="http://www.w3.org/2000/svg"
   version="1.0"
   width="249.9995"
   height="114.993"
   id="svg2">
  <defs
     id="defs5" />
  <path
     d="M 170.36087,55.088188 C 170.94826,55.088188 171.52177,55.238908 172.08137,55.540348 C 172.64093,55.841788 173.07684,56.273058 173.38912,56.834178 C 173.70135,57.395318 173.85749,57.980398 173.85749,58.589438 C 173.85749,59.192308 173.70368,59.771968 173.39606,60.328428 C 173.08844,60.884948 172.65716,61.317008 172.10224,61.624628 C 171.54728,61.932268 170.96682,62.086058 170.36087,62.086058 C 169.75492,62.086058 169.17447,61.932268 168.61952,61.624628 C 168.06456,61.317008 167.63251,60.884948 167.32334,60.328428 C 167.0142,59.771968 166.85962,59.192308 166.85962,58.589438 C 166.85962,57.980398 167.01653,57.395318 167.33032,56.834178 C 167.64409,56.273058 168.08079,55.841788 168.6404,55.540348 C 169.19996,55.238908 169.77346,55.088188 170.36087,55.088188 L 170.36087,55.088188 z M 170.36087,55.667878 C 169.86929,55.667878 169.39087,55.793858 168.92559,56.045818 C 168.46031,56.297798 168.09626,56.657968 167.83347,57.126338 C 167.57069,57.594708 167.43929,58.082418 167.43929,58.589438 C 167.43929,59.093388 167.56836,59.576438 167.82651,60.038648 C 168.08466,60.500828 168.44561,60.861018 168.90937,61.119148 C 169.37311,61.377308 169.85693,61.506388 170.36087,61.506388 C 170.86479,61.506388 171.34865,61.377308 171.8124,61.119148 C 172.27612,60.861018 172.63628,60.500828 172.89291,60.038648 C 173.1495,59.576438 173.2778,59.093388 173.27782,58.589438 C 173.2778,58.082418 173.14718,57.594708 172.88596,57.126338 C 172.62471,56.657968 172.26066,56.297798 171.79385,56.045818 C 171.32701,55.793858 170.84935,55.667878 170.36087,55.667878 L 170.36087,55.667878 z M 168.82588,60.523238 L 168.82588,56.757668 L 170.11972,56.757668 C 170.56183,56.757668 170.88181,56.792458 171.07967,56.862008 C 171.27755,56.931578 171.43522,57.052918 171.55271,57.226038 C 171.67018,57.399178 171.72892,57.583128 171.72893,57.777878 C 171.72892,58.053048 171.63075,58.292648 171.43445,58.496698 C 171.2381,58.700728 170.97765,58.815108 170.65303,58.839848 C 170.78596,58.895498 170.89262,58.961958 170.97301,59.039258 C 171.1245,59.187658 171.31,59.436518 171.52952,59.785898 L 171.98862,60.523238 L 171.24664,60.523238 L 170.91271,59.929668 C 170.64994,59.462808 170.43815,59.170658 170.2774,59.053178 C 170.1661,58.966608 170.00378,58.923348 169.79047,58.923348 L 169.43338,58.923348 L 169.43338,60.523238 L 168.82588,60.523238 z M 169.43338,58.403948 L 170.17074,58.403948 C 170.52318,58.403948 170.76354,58.351378 170.89185,58.246268 C 171.02015,58.141148 171.08431,58.002038 171.08431,57.828888 C 171.08431,57.717588 171.05339,57.617908 170.99156,57.529788 C 170.92971,57.441688 170.84393,57.375988 170.73419,57.332708 C 170.62443,57.289428 170.42116,57.267788 170.12437,57.267778 L 169.43338,57.267778 L 169.43338,58.403948 z "
     style="font-size:12px;font-style:normal;font-variant:normal;font-weight:normal;font-stretch:normal;text-align:start;line-height:125%;writing-mode:lr-tb;text-anchor:start;fill:#ed154b;fill-opacity:1;stroke:none;stroke-opacity:1;font-family:Roadgeek 2005 Series D"
     id="flowRoot4144" />
  <path
     d="M 122.53266,89.575028 L 102.903,89.575028 L 102.903,80.690018 L 150.01423,80.690018 L 150.01423,89.575028 L 131.21105,89.575028 L 131.18827,114.98886 L 122.50933,114.98886 L 122.53266,89.575028 z "
     style="fill:#000000"
     id="path2197" />
  <path
     d="M 0.001614283,80.869968 L 0.001614283,98.123418 L 0,114.96283 L 9.0948685,114.98886 L 9.0932543,108.87454 L 9.0932543,102.37221 L 24.951967,102.31409 C 40.812959,102.25747 40.811471,102.48062 42.418505,101.56104 C 44.948485,100.11336 46.598419,98.282418 47.69398,95.698758 C 48.179227,94.554408 48.238681,93.958798 48.24445,91.627768 C 48.250879,89.029998 48.246913,89.027438 47.379195,87.275648 C 46.359761,85.217538 44.57488,83.161728 42.95606,82.193878 C 40.71553,80.854348 41.414413,80.869948 19.689406,80.869968 L 0.001614283,80.869968 z M 9.2998824,89.548348 L 39.880852,89.771128 L 39.880852,93.903688 L 9.2998824,93.680908 L 9.2998824,89.548348 z "
     style="fill:#000000"
     id="path2195" />
  <path
     d="M 76.558969,80.792698 C 61.299545,80.792698 61.26447,80.795838 59.796258,81.257608 C 56.675193,82.281118 54.242594,84.665408 52.564271,87.430618 C 51.969619,88.642868 51.971018,88.644538 51.9121,101.8171 L 51.853987,114.98965 L 60.751912,114.98965 L 60.751912,104.03836 L 91.539513,104.03836 L 91.572037,114.993 L 100.62781,114.993 L 100.58596,102.11414 C 100.52699,89.033868 100.52854,89.033868 99.765895,87.495198 C 98.245557,84.427838 95.614489,81.960158 93.011738,81.154298 C 91.951941,80.826148 90.50792,80.792668 76.558969,80.792698 z M 91.539513,89.574388 L 91.539513,95.153348 L 60.738998,95.153348 L 60.855227,89.677698 L 91.539513,89.574388 z "
     style="fill:#000000"
     id="path2191" />
  <path
     d="M 162.9285,114.85476 C 159.50501,114.44826 157.7533,113.63077 155.47077,111.3743 C 153.63189,109.55642 152.84368,108.20589 152.48469,106.25786 C 152.34616,105.50613 152.28836,102.04111 152.32788,96.856268 C 152.39045,88.645208 152.39045,88.645208 152.99149,87.405428 C 153.38678,86.590058 154.10127,85.670528 155.07873,84.719258 C 157.5224,82.341048 160.01814,81.079798 163.02638,80.702808 C 164.9088,80.466898 194.56212,80.388698 195.93733,80.616008 C 196.71221,80.744098 196.71221,80.744098 196.71221,85.055058 L 196.71221,89.366028 L 162.3086,89.471718 L 162.20066,106.31191 L 196.71221,106.31191 L 196.71221,110.51901 C 196.71221,114.7261 196.71221,114.7261 195.6274,114.8564 C 194.51823,114.98964 164.05145,114.9881 162.9285,114.85476 z "
     style="fill:#000000"
     id="path2187" />
  <path
     d="M 225.00196,80.527938 C 210.61793,80.593738 210.44043,80.598898 209.09803,81.050968 C 206.35322,81.975408 203.41961,84.422138 202.0856,86.894668 C 201.36238,88.235058 201.36238,88.231268 201.36238,97.632878 C 201.36238,107.03447 201.36068,107.03526 202.13726,108.66166 C 203.66433,111.85995 207.00843,114.2603 210.15616,114.7149 C 220.7419,115.08017 232.35517,115.05565 241.61318,114.7457 C 245.31559,114.45856 249.16791,109.74706 249.81026,106.41458 C 249.97331,105.56853 250.02953,102.64845 249.9846,97.219628 C 249.9103,88.248918 249.90138,88.210508 248.20888,85.725928 C 246.32396,82.958838 243.66435,81.098898 240.98335,80.682908 C 235.66348,80.429858 230.32809,80.506598 225.00196,80.527938 z M 210.14407,89.367768 L 240.82836,89.471078 L 240.93817,106.31127 L 210.14407,106.31127 L 210.14407,89.367768 z "
     style="fill:#000000"
     id="path2185" />
  <path
     d="M 122.32604,61.667458 C 117.55074,61.250378 113.18588,60.524338 108.68859,59.399098 C 104.32017,58.306098 104.58583,58.800898 106.19697,54.758168 C 110.25132,44.584878 114.91655,36.080938 119.87468,29.825998 C 122.07799,27.046428 127.14647,22.012728 130.28124,19.490868 C 136.41945,14.552788 143.06824,11.046418 147.88381,10.207808 C 150.05746,9.829278 156.16695,10.081068 158.03938,10.626338 C 162.18035,11.832228 164.06493,13.787568 164.06493,16.878138 C 164.06493,19.724678 162.71044,22.321228 160.22364,24.241848 C 155.39027,27.974808 142.77075,32.021768 130.8106,33.674338 C 129.5107,33.853948 128.40266,34.045398 128.34827,34.099788 C 128.29388,34.154168 129.08558,34.198658 130.1076,34.198658 C 138.95315,34.198658 154.54734,30.281038 161.99866,26.186858 C 166.95224,23.465078 169.22661,20.882158 169.22661,17.978348 C 169.22661,13.869138 164.44082,10.455628 156.62633,8.991098 C 142.14529,6.277188 123.02744,10.313348 107.2422,19.417118 C 102.4394,22.187018 97.14188,26.003888 91.978343,30.414738 C 88.903861,33.041048 83.918063,37.978888 82.058419,40.239248 C 81.335295,41.118178 80.6593,41.785188 80.556212,41.721478 C 80.175116,41.485958 78.504647,37.871658 77.965197,36.115488 C 77.458444,34.465748 77.408319,34.003438 77.410103,30.995938 C 77.412438,27.063248 77.743671,25.568428 79.336163,22.303828 C 88.056706,4.426768 120.66306,-4.794962 149.29103,2.519198 C 162.25754,5.832008 172.31773,12.177408 177.37531,20.233188 C 181.13975,26.229238 181.58937,33.049498 178.63292,39.309318 C 177.33139,42.065098 175.84187,44.116428 173.25989,46.708948 C 169.91225,50.070258 166.80775,52.265478 162.00498,54.667328 C 155.19085,58.075088 147.46561,60.273758 138.44304,61.373298 C 135.14917,61.774698 125.55798,61.949748 122.32604,61.667458 z "
     style="fill:#ed154b;fill-opacity:1"
     id="path2173" />
  <path
     d="M 92.817047,53.024958 C 90.567295,51.684668 88.580032,50.303808 86.614735,48.715248 C 86.337527,48.491188 86.534324,48.103938 88.13736,45.719148 C 91.22518,41.125468 94.579232,37.122238 99.273055,32.428088 C 104.11194,27.588898 107.54314,24.732488 112.51121,21.407618 C 121.30072,15.525288 129.96311,11.908548 139.74496,10.036918 C 142.69243,9.472958 143.12645,9.511138 140.79147,10.128958 C 134.53023,11.785648 128.04836,15.676818 120.56971,22.268468 C 112.7158,29.190818 105.28283,38.552468 97.650207,51.134968 L 95.525078,54.638278 L 92.817047,53.024958 z "
     style="fill:#ed154b;fill-opacity:1"
     id="path2171" />
</svg>
