<?xml version="1.0" encoding="UTF-8" standalone="no"?>
<!-- Created with Inkscape (http://www.inkscape.org/) -->
<svg xmlns:dc="http://purl.org/dc/elements/1.1/" xmlns:cc="http://creativecommons.org/ns#" xmlns:rdf="http://www.w3.org/1999/02/22-rdf-syntax-ns#" xmlns:svg="http://www.w3.org/2000/svg" xmlns="http://www.w3.org/2000/svg" xmlns:sodipodi="http://sodipodi.sourceforge.net/DTD/sodipodi-0.dtd" xmlns:inkscape="http://www.inkscape.org/namespaces/inkscape" width="413.65118" height="407.74048" id="svg2" version="1.1" inkscape:version="0.48.2 r9819" sodipodi:docname="T Logo.svg">
  <defs id="defs4"/>
  <sodipodi:namedview id="base" pagecolor="#ffffff" bordercolor="#666666" borderopacity="1.0" inkscape:pageopacity="0.0" inkscape:pageshadow="2" inkscape:zoom="0.35" inkscape:cx="300.39703" inkscape:cy="-43.937597" inkscape:document-units="px" inkscape:current-layer="layer1" showgrid="false" fit-margin-top="10" fit-margin-left="10" fit-margin-right="10" fit-margin-bottom="10" inkscape:window-width="1600" inkscape:window-height="838" inkscape:window-x="-8" inkscape:window-y="-8" inkscape:window-maximized="1"/>
  <metadata id="metadata7">
    <rdf:RDF>
      <cc:Work rdf:about="">
        <dc:format>image/svg+xml</dc:format>
        <dc:type rdf:resource="http://purl.org/dc/dcmitype/StillImage"/>
        <dc:title/>
      </cc:Work>
    </rdf:RDF>
  </metadata>
  <g inkscape:label="Layer 1" inkscape:groupmode="layer" id="layer1" transform="translate(-74.603, -80.6841)">
    <g id="g2996" transform="matrix(1.29032, 0, 0, 1.29032, 39.4317, 54.1344)">
      <path id="path2986" d="m 155.934,296.021 c 0,0 -91.719,-19.734 -91.719,-120.944 0,0 1.51,-101.121 111.449,-118.623 0,0 11.462,-1.895 22.951,-0.096 110.753,17.11 112.243,118.719 112.243,118.719 0,101.21 -91.693,120.944 -91.693,120.944 v -108.31 h 62.461 v -28.029 h -90.902 v 169.143 c 0,0 142.262,-2.783 149.363,-150.584 0,0 1.414,-129.159 -140.491,-149.314 -9.086,-1.246 -23.52,-0.168 -23.52,-0.168 C 32.708,46.851 35.01,178.24 35.01,178.24 42.13,326.042 184.371,328.824 184.371,328.824 V 159.682 h -90.88 v 28.029 h 62.443 v 108.31" inkscape:connector-curvature="0" style="fill:#595a5c"/>
      <rect id="rect2988" height="28.450001" width="188.179" y="125.5" x="93.253998" style="fill:#595a5c"/>
    </g>
  </g>
</svg>