<?xml version="1.0" encoding="utf-8"?>
<!-- Generator: Adobe Illustrator 22.1.0, SVG Export Plug-In . SVG Version: 6.00 Build 0)  -->
<svg version="1.1" id="Layer_1" xmlns="http://www.w3.org/2000/svg" xmlns:xlink="http://www.w3.org/1999/xlink" x="0px" y="0px"
	 viewBox="0 0 718.6 144" style="enable-background:new 0 0 718.6 144;" xml:space="preserve">
<style type="text/css">
	.Arched_x0020_Green{fill:url(#SVGID_1_);stroke:#FFFFFF;stroke-width:0.25;stroke-miterlimit:1;}
	.st0{fill-rule:evenodd;clip-rule:evenodd;fill:#68BD45;}
	.st1{fill-rule:evenodd;clip-rule:evenodd;fill:#38B2E6;}
	.st2{fill-rule:evenodd;clip-rule:evenodd;fill:#FFFFFF;}
	.st3{fill-rule:evenodd;clip-rule:evenodd;fill:#3B5AA8;}
</style>
<linearGradient id="SVGID_1_" gradientUnits="userSpaceOnUse" x1="0" y1="0" x2="0.7071" y2="-0.7071">
	<stop  offset="0" style="stop-color:#20AC4B"/>
	<stop  offset="0.9831" style="stop-color:#19361A"/>
</linearGradient>
<g>
	<path class="st0" d="M92.2,37.8c0.1,0,0.2,0,0.3,0C92.4,38,92.2,38,92.2,37.8z"/>
	<path class="st0" d="M82.2,28.4c0,0.2,0.3,0.1,0.4,0.1c0.2,0.4,0.7,0.3,0.8,0.6c0.1,0,0.3,0,0.4,0c-0.1,0.2,0.4,0.1,0.5,0.3
		c0.2,0,0.3,0,0.5,0c-0.1,0.1,0,0.1,0,0.2c0.2,0,0.3,0,0.5,0c0,0,0,0.1,0,0.1c0.1,0,0.3,0,0.3,0c0,0,0,0.1,0,0.2
		c0.2,0.1,0.1,0,0.2,0.1c0,0,0.2,0,0.2,0c0,0.1-0.1,0.1,0,0.2c0.1,0,0.3,0,0.3,0.1c0.1,0.1,0.2,0.3,0.3,0.3c0.2,0.1,0.5,0,0.9,0
		c0.2,0.3,0.5,0.2,0.8,0.5c0.2,0,0.3,0,0.5,0c-0.1,0.1,0,0.1,0,0.2c0.7,0,0.6,0.5,1.3,0.4c0,0-0.1,0.2,0,0.1c0.4,0,0.4,0.2,0.9,0.2
		c0,0.1-0.1,0,0,0.1c0.4,0,0.6,0.2,1,0.2c0,0.1-0.1,0,0,0.1c0.2,0.1,0.4,0,0.6,0c-0.2,0.2,0.6,0.1,0.9,0.1c0,0.1-0.1,0,0,0.1
		c0.4,0,0.7,0.3,1.3,0.2c0.1,0,0,0.1,0.1,0.2c0.8-0.1,1,0.2,1.7,0.1c0.1,0,0,0.1,0.1,0.2c0.7-0.1,0.8,0.2,1.5,0.1
		c0.1,0,0,0.1,0.1,0.2c0.3,0,0.6,0,0.9,0c-0.2,0.2,0.6,0.1,0.9,0.1c-0.1,0.1,0,0.1,0,0.2c0.8-0.1,0.9,0.2,1.6,0.1
		c0.1,0.3,0.6,0.1,0.9,0.2c0,0-0.1,0.2,0,0.1c1,0.3,2.5,0.1,3.7,0.2c-0.1,0-0.1,0-0.1,0c0.8,0,1.4,0.3,2.3,0.2c0,0-0.1,0.2,0,0.1
		c0.5,0,0.8,0.2,1.4,0.2c0,0-0.1,0.2,0,0.1c0.5,0,0.9,0.2,1.5,0.2c0,0.1-0.1,0,0,0.1c0.5,0,0.8,0.2,1.4,0.2c-0.1,0.1,0,0.1,0,0.2
		c0.4,0,0.5,0.2,1,0.1c0,0.1-0.1,0-0.1,0.1c0.2,0.1,0.6,0,0.9,0c-0.2,0.2,0.6,0.1,0.8,0.1c0,0.1-0.1,0,0,0.1c0.5,0,0.8,0.2,1.4,0.2
		c0,0.1-0.1,0-0.1,0.1c2,0.3,4.6,0.1,6.9,0.2c-0.1,0.1,0,0.1,0,0.2c1.2,0,2.5,0,3.7,0c0.1,0,0-0.1,0.1-0.2c0.5,0,0.5-0.2,1-0.2
		c0.1-0.1-0.2-0.1,0-0.1c0.4,0,0.9-0.1,1-0.3c1.8-0.1,3.1,0.1,4.5-0.3c0.6-0.2,1-1.3,1.3-1.8c0.2-0.1,0.5-0.1,0.8-0.1
		c0.2,0,0.4-0.2,0.5-0.2c0.4-0.1,0.7,0,1-0.1c0.4-0.3,0.4-0.8,0.9-1c0.6-0.2,1.5,0.2,2.1-0.2c0.1-0.6,1-0.7,2-0.5
		c0.8,0.1,1.6,0.4,2.5,0.5c0.9,0.1,2.2-0.1,2.6,0.5c0.4-0.1,0.7,0.4,1.3,0.3c-0.1,0.1,0,0,0.1,0c0.5,0.4,1.6,0.4,2.2,0.7
		c1-0.1,1.8,0.2,2.6,0.4c0.8-0.1,1.4,0.2,2.2,0.4c0.4,0.1,0.9,0.4,1.3,0.5c0.2,0,0.3-0.1,0.4,0c0,0,0.1,0.1,0.2,0.1
		c0.1,0,0.3,0,0.4,0c0.1,0,0,0.1,0.1,0.1c0.2,0,0.3,0,0.4,0c0,0.3,1,0.2,1,0.5c0.7,0,1.3-0.1,1.6,0.3c0.4,0,0.7,0,1,0.1
		c0.1,0,0,0.1,0.1,0.2c0.1,0,0.3,0,0.4,0c0.1,0,0.2,0.2,0.5,0.1c-0.2,0.3,0.3,0.1,0.5,0.2c0,0-0.2,0.2,0,0.1c0.1,0,0.3,0,0.4,0
		c-0.1,0.1,0,0.1,0,0.2c0.8,0,1.1,0.6,2,0.6c0,0-0.1,0.2,0,0.1c0.4,0.1,0.8,0.2,1,0.3c0.5,0,0.9,0.2,1.6,0.1
		c0.2,0.2,0.4,0.3,0.7,0.3c0,0.2,0.5,0.3,0.8,0.3c0,0.2,0.5,0.1,0.6,0.3c0.2,0,0.3,0,0.5,0c0,0.1-0.1,0-0.1,0.1
		c0.7,0,0.7,0.5,1.3,0.5c0,0.1,0,0.2,0.1,0.2c0.7,0.1,1,0.4,1.4,0.6c0.2,0,0.3,0,0.5,0c0,0.2,0.5,0.1,0.6,0.3c0.1,0,0.3,0,0.4,0
		c0.2,0.2,0.5,0.3,0.9,0.3c0.1,0.2,0.5,0.2,0.9,0.3c-0.2,0.2,0.3,0.1,0.3,0.3c0.1,0,0.3,0,0.4,0c0,0-0.1,0.2,0,0.1
		c0.4,0,0.3,0.2,0.7,0.2c-0.2,0.2,0.4,0.1,0.3,0.3c0.1,0,0.3,0,0.4,0c-0.1,0.2,0.3,0.3,0.6,0.3c-0.1,0.3,0.3,0.1,0.3,0.3
		c0.2,0,0.3,0,0.5,0c-0.1,0.1-0.1,0.1,0,0.2c0.3,0,0.5,0,0.7,0c0.1,0,0,0.1,0,0.1c0.1,0,0.3,0,0.3,0c0,0,0,0.2,0,0.2
		c0.1,0,0.2,0,0.3,0c0.2,0.1,0,0.1,0.1,0.1c0.1,0,0.3,0,0.4,0c-0.1,0.1,0,0.1,0,0.2c0.3-0.1,0.4,0.1,0.4,0.1c0.1,0,0.2,0,0.3,0
		c0,0,0,0.2,0,0.2c0.2,0.2,0.2-0.1,0.3,0.1c0,0.1,0.7,0.2,0.9,0.2c0,0-0.1,0.2,0,0.1c0.5,0.1,0.6,0.4,1.1,0.5c0,0.3,0.6,0.3,0.7,0.6
		c0.1,0,0.3,0,0.4,0c0,0.2,0.3,0.3,0.6,0.3c-0.1,0.2,0.3,0.1,0.3,0.3c0.1,0,0.3,0,0.4,0c-0.1,0.1,0,0.1,0,0.2c0.8,0,0.8,0.5,1.5,0.4
		c0,0.1,0,0.1,0,0.2c0.2,0,0.4,0,0.6,0c-0.1,0.2,0.5,0,0.4,0.3c0.1,0,0.3,0,0.4,0c0.3,0.3,0.3,0.6,0.8,0.6c0.3,0.5,1.1,0.6,1.1,1.5
		c0,0.1,0.2,0,0.2,0.1c0,0.4,0.1,0.5,0.3,0.8c0,0.5,0,1,0,1.6c0.2,0.2,0.3,0.7,0.4,0.8c0,0.3,0,0.7,0,1c-0.6,0.1-0.9,0.7-1.4,1.1
		c-0.6-0.1-1.4-0.3-1.9,0c-0.1,0.3,0,0.3-0.2,0.4c-0.6,0.1-0.5-0.2-1.1-0.1c-0.1,0-0.1-0.1-0.1-0.2c-0.5,0-0.8-0.3-1.1-0.4
		c-0.3-0.1-0.7,0-0.9-0.2c-0.1,0-0.3,0-0.4,0c0.1-0.1,0-0.1,0-0.2c-0.6,0.1-0.6-0.2-1.2-0.1c0-0.1,0.1,0,0-0.1
		c-0.2-0.1-0.5,0-0.4,0.1c-0.1,0-0.3,0-0.4,0c-0.2,0.2-0.3,0.4-0.4,0.5c0,0.4-0.2,0.7-0.4,0.9c-0.3-0.1-0.2,0.1-0.3,0.1
		c-0.2,0-0.5,0.1-0.6,0c0.1,0,0.1,0,0.1,0c-0.8-0.1-1.8,0-2.7,0c0,0.1,0,0.2-0.1,0.1c0,0.2,0,0.4,0,0.6c-0.6,0.1-1.5-0.1-2.1,0
		c0,0.2,0.2,0.1,0.1,0.4c0.2,0.1,0.3,0.3,0.5,0.3c0,0.1,0,0.1,0,0.2c0.3,0.1,0.4,0.6,0.7,0.7c-0.1,0.1,0.2,0.2,0.2,0.4
		c0.1,0.1,0.1-0.1,0.1,0c0,0.2,0,0.4,0,0.5c-0.2,0-0.4,0-0.6,0c0,0,0-0.1,0-0.1c-0.1-0.1-0.3-0.1-0.3-0.2c-0.1,0-0.2,0-0.3,0
		c-0.1-0.1-0.1-0.2-0.4-0.2c0-0.3-0.6-0.4-0.7-0.6c-0.2,0-0.3,0-0.5,0c0,0,0-0.1,0-0.1c-0.3,0-0.4-0.2-0.7-0.2
		c0-0.2-0.3-0.3-0.6-0.3c0.1-0.3-0.2-0.1-0.3-0.2c0,0,0-0.2-0.3-0.1c0-0.3-0.7-0.4-0.7-0.6c-0.2,0-0.5,0.1-0.7,0c0.1,0,0.1,0,0.1,0
		c-0.4-0.2-0.8-0.3-1.4-0.2c0.2-0.3-0.6-0.1-0.7-0.2c0.1,0,0.2,0,0.2,0c-0.3-0.1-0.6,0-0.9,0c0,0,0.1-0.2,0-0.1
		c-0.4-0.1-0.8,0-1-0.2c0,0,0-0.2,0-0.2c-0.1,0-0.3,0-0.4,0c0,0,0-0.1,0-0.1c0,0-0.2,0-0.3,0c-0.2-0.1-0.2-0.3-0.6-0.2
		c0,0,0-0.1,0-0.1c-0.7,0-0.7-0.5-1.4-0.5c0,0,0-0.1,0-0.1c-0.4-0.1-0.8-0.1-1-0.3c-0.8,0.1-1.4-0.1-1.7,0c0.1-0.2-0.7-0.1-1-0.1
		c-0.1-0.3-0.9-0.3-1.3-0.6c-0.1,0-0.3,0-0.4,0c0,0,0.1-0.2,0-0.1c-0.6-0.1-0.8-0.4-1.4-0.5c0-0.1,0-0.1,0-0.2
		c-0.4,0.1-0.3-0.2-0.7-0.1c0.1-0.1,0.1-0.1,0-0.2c-0.7-0.1-1-0.6-1.8-0.6c0,0,0-0.1,0-0.1c-0.7,0-0.9-0.5-1.8-0.5
		c0,0,0.1-0.2,0-0.1c-0.5,0-1-0.1-1.4-0.2c0-0.2-0.4-0.3-0.8-0.3c0,0,0.1-0.2,0-0.1c-0.4,0-0.3-0.2-0.8-0.2c0.1-0.1,0-0.1,0-0.2
		c-0.4,0.1-0.2-0.2-0.7-0.1c0-0.3-0.6-0.1-0.7-0.5c-0.3,0-0.8,0.1-0.7-0.1c-0.6,0-1.3,0-2.1,0c0,0,0.1-0.2,0-0.1
		c-0.3,0-0.5-0.2-0.9-0.2c0.1-0.1,0.1-0.1,0-0.2c-0.5,0.1-0.4-0.2-0.9-0.1c0-0.1,0-0.1,0-0.2c-0.8,0-1-0.4-1.9-0.3
		c0-0.1,0.1,0,0-0.1c-0.2,0-0.4,0-0.5,0.1c0.1,0,0.1,0,0.1,0c-0.4-0.1-0.5,0.2-0.5,0.3c-0.3-0.1-0.2,0.2-0.4,0.2
		c-0.1-0.2-0.6-0.2-0.9-0.2c0.1-0.1,0-0.1,0-0.1c-0.4,0-0.7-0.1-1.1,0c0.1-0.1-0.1,0-0.1-0.1c-0.4,0.1-1.1-0.1-1.3,0.1
		c-0.2,0-0.4,0-0.5,0c-0.1,0.1,0,0.2-0.2,0.1c-0.1,0.3-0.4,0.5-0.7,0.6c-0.1,0.1,0,0.2,0,0.2c-0.4,0-0.6,0.2-1.2,0.1
		c-0.1,0.1,0,0.2,0,0.2c-0.3,0-0.7,0-1,0c-0.2,0.1-0.3,0.3-0.6,0.3c-0.2,0.2-0.2,0.5-0.4,0.6c0,0.2,0,0.4-0.1,0.5c0,0.1,0,0.3,0,0.4
		c0,0-0.1,0-0.1,0c0,0.5-0.3,0.8-0.6,1.1c-0.5,0-0.5,0.2-1,0.2c-0.1,0.2,0.1,0,0.1,0.1c-0.4,0-1.2-0.1-1.1,0.1c-0.2,0-0.3,0-0.5,0
		c-0.1,0.2-0.3,0.2-0.5,0.3c0,0.1,0.1,0.3-0.1,0.3c0,0.1,0,0.2,0,0.3c-0.1-0.1-0.2,0.1-0.2,0.1c-0.5,0.1-1,0-1.6,0
		c0-0.1,0.1,0,0-0.1c-0.5,0-0.5-0.2-1-0.2c0,0,0.1-0.2,0-0.1c-0.4,0-0.5-0.2-1-0.2c0,0,0.1-0.2,0-0.1c-0.4,0-0.7-0.2-1.2-0.2
		c0.2-0.4-0.9,0-0.7-0.3c-0.2,0-0.4,0-0.5,0.1c0.1,0,0.2,0,0.2,0c-0.6,0-1.1,0-1.7,0c0.1-0.1,0-0.1,0-0.1c-0.2,0-0.5,0.1-0.6,0
		c0.1,0,0.1,0,0.1-0.1c-0.5,0-0.5-0.2-1.1-0.2c0.1-0.1,0.1-0.1,0-0.2c-0.5,0.1-0.4-0.2-1-0.1c0-0.1,0-0.1,0-0.2
		c-0.3,0-0.4,0-0.6-0.1c-0.6,0.1-0.6-0.3-1.2-0.2c0-0.2-0.4-0.3-0.7-0.3c0,0,0-0.1,0-0.1c-0.4,0-0.5-0.2-0.8-0.2
		c0.2-0.2-0.2-0.1-0.3-0.2c0,0-0.1-0.2-0.4-0.1c0-0.2-0.3-0.1-0.3-0.3c0-0.1-0.3,0-0.4,0c0-0.2-0.4-0.3-0.7-0.3c0-0.1,0.1,0,0-0.1
		c-0.4,0-0.6-0.2-1-0.2c0-0.3-0.8-0.2-0.8-0.5c-0.5,0.1-0.7-0.2-1.2-0.1c0,0,0.1-0.2,0-0.1c-0.7,0-1.2-0.1-1.8-0.2
		c0,0,0.1-0.2,0-0.1c-0.6,0-0.9-0.4-1.6-0.3c0-0.1,0.1,0,0-0.1c-0.5,0-0.7-0.2-1.2-0.2c-0.1-0.2-0.6-0.3-1-0.3c0,0,0.1-0.2,0-0.1
		c-0.4-0.1-0.4-0.2-1-0.2c0,0,0-0.1,0-0.1c-0.5,0-0.8-0.2-1.4-0.2c0,0,0-0.1,0-0.1c-0.6,0-0.8-0.1-1.3-0.2c0-0.1,0.1,0,0-0.1
		c-0.4,0-0.5-0.2-0.9-0.2c0-0.2-0.4-0.3-0.7-0.3c0-0.2-0.4-0.3-0.7-0.3c0-0.1,0-0.1,0-0.2c-0.5,0.1-0.3-0.2-0.8-0.1
		c0,0,0.1-0.2,0-0.1c-0.3,0-0.5-0.2-0.9-0.2c0-0.1,0-0.1,0-0.2c-0.2,0-0.3,0-0.5,0c0.2-0.2-0.4,0-0.3-0.3c-0.4,0-0.4-0.3-0.8-0.2
		c0-0.1-0.2-0.2-0.4-0.1c-0.1-0.3-0.6-0.3-0.7-0.6c-0.1,0-0.1,0-0.2,0c-0.2-0.3-0.3-0.5-0.7-0.6c0-0.3-0.4-0.3-0.5-0.5
		c0-0.2,0-0.5,0-0.7c0.3,0.1,0.3-0.1,0.4-0.3c-0.3-0.3-0.2-0.7-0.7-0.8c0.1-0.1-0.2-0.3-0.4-0.3c-0.1-0.3-0.3-0.4-0.5-0.7
		c0-0.2,0-0.4,0-0.6c0.1,0,0.2,0,0.3,0c0-0.2,0.1-0.1,0.3-0.2c-0.3-0.1-0.3-0.4-0.7-0.4c0-0.1,0-0.1,0-0.2c-0.3,0.1-0.3-0.2-0.6-0.1
		c0.1-0.1,0.1-0.1,0-0.2c-0.2,0-0.4,0-0.6,0c0.1-0.1,0-0.1,0-0.1c-0.8,0.1-1-0.4-1.7-0.3c0-0.2-0.2-0.1-0.2-0.3c0-0.1,0.2,0,0.2-0.2
		c-0.4,0-0.5-0.4-1.1-0.3c0-0.3-0.6-0.2-0.6-0.6c-0.4,0-0.4-0.4-0.9-0.3c0,0,0.1-0.2,0-0.1c-0.3,0-0.3-0.2-0.8-0.2
		c0.1-0.1,0.1-0.1,0-0.2c-0.4,0.1-0.4-0.2-0.7-0.1c0-0.2-0.4-0.3-0.7-0.3c0.1-0.1,0.1-0.1,0-0.2c-0.7-0.1-1-0.8-1.7-0.9
		c0.1-0.1-0.2-0.3-0.4-0.3c-0.1-0.2-0.1-0.3-0.3-0.3c0.1-0.1-0.1-0.3-0.3-0.3c0-0.3-0.5-0.3-0.6-0.6c-0.1,0-0.2,0-0.3,0
		c0.1-0.2-0.3-0.2-0.3-0.3c0-0.1,0-0.2,0-0.3c0.1,0,0.1-0.1,0.3,0c0-0.1-0.1-0.1-0.1-0.1c0.3,0,0.6,0,0.5-0.1c0.2,0.2,1,0.2,1.4,0.1
		c-0.3,0-0.2-0.4-0.4-0.5c0-0.1,0-0.3,0-0.3c-0.4-0.3-0.7-0.7-1.1-1.1c0.1-0.4-0.2-0.5-0.2-0.7c-0.3,0-0.4-0.3-0.9-0.3
		c0.1-0.2-0.2-0.2-0.3-0.3c0-0.1,0-0.2,0-0.3C82,28.4,82.1,28.4,82.2,28.4z M92.5,37.9c-0.1,0-0.2,0-0.3,0
		C92.2,38,92.4,38,92.5,37.9z"/>
</g>
<g>
	<path class="st1" d="M77.4,51.4c0.1,0,0.2,0,0.3,0C77.6,51.5,77.3,51.6,77.4,51.4z"/>
	<path class="st1" d="M67.3,41.9c0,0.2,0.3,0.1,0.4,0.1c0.2,0.4,0.7,0.3,0.8,0.6c0.1,0,0.3,0,0.4,0c-0.1,0.2,0.4,0.1,0.5,0.3
		c0.2,0,0.3,0,0.5,0c-0.1,0.1,0,0.1,0,0.2c0.2,0,0.3,0,0.5,0c0,0,0,0.1,0,0.1c0.1,0,0.3,0,0.3,0c0,0,0,0.1,0,0.2
		c0.2,0.1,0.1,0,0.2,0.1c0,0,0.2,0,0.2,0c0,0.1-0.1,0.1,0,0.2c0.1,0,0.3,0,0.3,0.1c0.1,0.1,0.2,0.3,0.3,0.3c0.2,0.1,0.5,0,0.9,0
		c0.2,0.3,0.5,0.2,0.8,0.5c0.2,0,0.3,0,0.5,0c-0.1,0.1,0,0.1,0,0.2c0.7,0,0.6,0.5,1.3,0.4c0,0-0.1,0.2,0,0.1c0.4,0,0.4,0.2,0.9,0.2
		c0,0.1-0.1,0,0,0.1c0.4,0,0.6,0.2,1,0.2c0,0.1-0.1,0,0,0.1c0.1,0.1,0.4,0,0.6,0c-0.2,0.2,0.6,0.1,0.9,0.1c0,0.1-0.1,0,0,0.1
		c0.4,0,0.7,0.3,1.3,0.2c0.1,0,0,0.1,0.1,0.2c0.8-0.1,1,0.2,1.7,0.1c0.1,0,0,0.1,0.1,0.2c0.7-0.1,0.8,0.2,1.5,0.1
		c0.1,0,0,0.1,0.1,0.2c0.3,0,0.6,0,0.9,0c-0.2,0.2,0.6,0.1,0.9,0.1c-0.1,0.1,0,0.1,0,0.2c0.8-0.1,0.9,0.2,1.6,0.1
		c0.1,0.3,0.6,0.1,0.9,0.2c0,0-0.1,0.2,0,0.1c1,0.3,2.5,0.1,3.7,0.2c-0.1,0-0.1,0-0.1,0c0.8,0,1.4,0.3,2.3,0.2c0,0-0.1,0.2,0,0.1
		c0.5,0,0.8,0.2,1.4,0.2c0,0-0.1,0.2,0,0.1c0.5,0,0.9,0.2,1.5,0.2c0,0.1-0.1,0,0,0.1c0.5,0,0.8,0.2,1.4,0.2c-0.1,0.1,0,0.1,0,0.2
		c0.4,0,0.5,0.2,1,0.1c0,0.1-0.1,0-0.1,0.1c0.2,0.1,0.6,0,0.9,0c-0.2,0.2,0.6,0.1,0.8,0.1c0,0.1-0.1,0,0,0.1c0.5,0,0.8,0.2,1.4,0.2
		c0,0.1-0.1,0-0.1,0.1c2,0.3,4.6,0.1,6.9,0.2c-0.1,0.1,0,0.1,0,0.2c1.2,0,2.5,0,3.7,0c0.1,0,0-0.1,0.1-0.2c0.5,0,0.5-0.2,1-0.2
		c0.1-0.1-0.2-0.1,0-0.1c0.4,0,0.9-0.1,1-0.3c1.8-0.1,3.1,0.1,4.5-0.3c0.6-0.2,1-1.3,1.3-1.8c0.2-0.1,0.5-0.1,0.8-0.1
		c0.2,0,0.4-0.2,0.5-0.2c0.4-0.1,0.7,0,1-0.1c0.4-0.3,0.4-0.8,0.9-1c0.6-0.2,1.5,0.2,2.1-0.2c0.1-0.6,1-0.7,2-0.5
		c0.8,0.1,1.6,0.4,2.5,0.5c0.9,0.1,2.2-0.1,2.6,0.5c0.4-0.1,0.7,0.4,1.3,0.3c-0.1,0.1,0,0,0.1,0c0.5,0.4,1.6,0.4,2.2,0.7
		c1-0.1,1.8,0.2,2.6,0.4c0.8-0.1,1.4,0.2,2.2,0.4c0.4,0.1,0.9,0.4,1.3,0.5c0.2,0,0.3-0.1,0.4,0c0,0,0.1,0.1,0.2,0.1
		c0.1,0,0.3,0,0.4,0c0.1,0,0,0.1,0.1,0.1c0.2,0,0.3,0,0.4,0c0,0.3,1,0.2,1,0.5c0.7,0,1.3-0.1,1.6,0.3c0.4,0,0.7,0,1,0.1
		c0.1,0,0,0.1,0.1,0.2c0.1,0,0.3,0,0.4,0c0.1,0,0.2,0.2,0.5,0.1c-0.2,0.3,0.3,0.1,0.5,0.2c0,0-0.2,0.2,0,0.1c0.1,0,0.3,0,0.4,0
		c-0.1,0.1,0,0.1,0,0.2c0.8,0,1.1,0.6,2,0.6c0,0-0.1,0.2,0,0.1c0.4,0.1,0.8,0.2,1,0.3c0.5,0,0.9,0.2,1.6,0.1
		c0.2,0.2,0.4,0.3,0.7,0.3c0,0.2,0.5,0.3,0.8,0.3c0,0.2,0.5,0.1,0.6,0.3c0.2,0,0.3,0,0.5,0c0,0.1-0.1,0-0.1,0.1
		c0.7,0,0.7,0.5,1.3,0.5c0,0.1,0,0.2,0.1,0.2c0.7,0.1,1,0.4,1.4,0.6c0.2,0,0.3,0,0.5,0c0,0.2,0.5,0.1,0.6,0.3c0.1,0,0.3,0,0.4,0
		c0.2,0.2,0.5,0.3,0.9,0.3c0.1,0.2,0.5,0.2,0.9,0.3c-0.2,0.2,0.3,0.1,0.3,0.3c0.1,0,0.3,0,0.4,0c0,0-0.1,0.2,0,0.1
		c0.4,0,0.3,0.2,0.7,0.2c-0.2,0.2,0.4,0.1,0.3,0.3c0.1,0,0.3,0,0.4,0c-0.1,0.2,0.3,0.3,0.6,0.3c-0.1,0.3,0.3,0.1,0.3,0.3
		c0.2,0,0.3,0,0.5,0c-0.1,0.1-0.1,0.1,0,0.2c0.3,0,0.5,0,0.7,0c0.1,0,0,0.1,0,0.1c0.1,0,0.3,0,0.3,0c0,0,0,0.2,0,0.2
		c0.1,0,0.2,0,0.3,0c0.2,0.1,0,0.1,0.1,0.1c0.1,0,0.3,0,0.4,0c-0.1,0.1,0,0.1,0,0.2c0.3-0.1,0.4,0.1,0.4,0.1c0.1,0,0.2,0,0.3,0
		c0,0,0,0.2,0,0.2c0.2,0.2,0.2-0.1,0.3,0.1c0,0.1,0.7,0.2,0.9,0.2c0,0-0.1,0.2,0,0.1c0.5,0.1,0.7,0.4,1.1,0.5c0,0.3,0.6,0.3,0.7,0.6
		c0.1,0,0.3,0,0.4,0c0,0.2,0.3,0.3,0.6,0.3c-0.1,0.2,0.3,0.1,0.3,0.3c0.1,0,0.3,0,0.4,0c-0.1,0.1,0,0.1,0,0.2c0.8,0,0.8,0.5,1.5,0.4
		c-0.1,0.1-0.1,0.1,0,0.2c0.2,0,0.4,0,0.6,0c-0.1,0.2,0.5,0,0.4,0.3c0.1,0,0.3,0,0.4,0c0.3,0.3,0.3,0.6,0.8,0.6
		c0.3,0.5,1.1,0.6,1.1,1.5c0,0.1,0.2,0,0.2,0.1c0,0.4,0.1,0.5,0.3,0.8c0,0.5,0,1,0,1.6c0.2,0.2,0.3,0.7,0.4,0.8c0,0.3,0,0.7,0,1
		c-0.6,0.1-0.9,0.7-1.4,1.1c-0.6-0.1-1.4-0.3-1.9,0c-0.1,0.3-0.1,0.3-0.2,0.4c-0.6,0.1-0.5-0.2-1.1-0.1c-0.1,0-0.1-0.1-0.1-0.2
		c-0.5,0-0.8-0.3-1.1-0.4c-0.3-0.1-0.7,0-0.9-0.2c-0.1,0-0.3,0-0.4,0c0.1-0.1,0-0.1,0-0.2c-0.6,0.1-0.6-0.2-1.2-0.1
		c0-0.1,0.1,0,0-0.1c-0.2-0.1-0.5,0-0.4,0.1c-0.1,0-0.3,0-0.4,0c-0.2,0.2-0.3,0.4-0.4,0.5c0,0.4-0.2,0.7-0.4,0.9
		c-0.3-0.1-0.2,0.1-0.3,0.1c-0.2,0-0.5,0.1-0.6,0c0.1,0,0.1,0,0.1,0c-0.8-0.1-1.8,0-2.7,0c0,0.1,0,0.2-0.1,0.1c0,0.2,0,0.4,0,0.6
		c-0.6,0.1-1.5-0.1-2.1,0c0,0.2,0.2,0.1,0.1,0.4c0.2,0.1,0.3,0.3,0.5,0.3c0,0.1,0,0.1,0,0.2c0.3,0.1,0.4,0.6,0.7,0.7
		c-0.1,0.1,0.2,0.2,0.2,0.4c0.1,0.1,0.1-0.1,0.1,0c0,0.2,0,0.4,0,0.5c-0.2,0-0.4,0-0.6,0c0,0,0-0.1,0-0.1c-0.1-0.1-0.3-0.1-0.3-0.2
		c-0.1,0-0.2,0-0.3,0c-0.1-0.1-0.1-0.2-0.4-0.2c0-0.3-0.6-0.4-0.7-0.6c-0.2,0-0.3,0-0.5,0c0,0,0-0.1,0-0.1c-0.3,0-0.4-0.2-0.7-0.2
		c0-0.2-0.3-0.3-0.6-0.3c0.1-0.3-0.2-0.1-0.3-0.2c0,0,0-0.2-0.3-0.1c0-0.3-0.7-0.4-0.7-0.6c-0.2,0-0.5,0.1-0.7,0c0.1,0,0.1,0,0.1,0
		c-0.4-0.2-0.8-0.3-1.4-0.2c0.2-0.3-0.6-0.1-0.7-0.2c0.1,0,0.2,0,0.2,0c-0.3-0.1-0.6,0-0.9,0c0,0,0.1-0.2,0-0.1
		c-0.4-0.1-0.8,0-1-0.2c0,0,0-0.2,0-0.2c-0.1,0-0.3,0-0.4,0c0,0,0-0.1,0-0.1c0,0-0.2,0-0.3,0c-0.2-0.1-0.2-0.3-0.6-0.2
		c0,0,0-0.1,0-0.1c-0.7,0-0.7-0.5-1.4-0.5c0,0,0-0.1,0-0.1c-0.4-0.1-0.8-0.1-1-0.3c-0.8,0.1-1.4-0.1-1.7,0c0.1-0.2-0.7-0.1-1-0.1
		c-0.1-0.3-0.9-0.3-1.3-0.6c-0.1,0-0.3,0-0.4,0c0,0,0.1-0.2,0-0.1c-0.6-0.1-0.8-0.4-1.4-0.5c0-0.1,0-0.1,0-0.2
		c-0.4,0.1-0.3-0.2-0.7-0.1c0.1-0.1,0.1-0.1,0-0.2c-0.7-0.1-1-0.6-1.8-0.6c0,0,0-0.1,0-0.1c-0.7,0-0.9-0.5-1.8-0.5
		c0,0,0.1-0.2,0-0.1c-0.5,0-1-0.1-1.4-0.2c0-0.2-0.4-0.3-0.8-0.3c0,0,0.1-0.2,0-0.1c-0.4,0-0.3-0.2-0.8-0.2c0.1-0.1,0-0.1,0-0.2
		c-0.4,0.1-0.2-0.2-0.7-0.1c0-0.3-0.6-0.1-0.7-0.5c-0.3,0-0.8,0.1-0.7-0.1c-0.6,0-1.3,0-2.1,0c0,0,0.1-0.2,0-0.1
		c-0.3,0-0.5-0.2-0.9-0.2c0.1-0.1,0.1-0.1,0-0.2c-0.5,0.1-0.4-0.2-0.9-0.1c0-0.1,0-0.1,0-0.2c-0.8,0-1-0.4-1.9-0.3
		c0-0.1,0.1,0,0-0.1c-0.2,0-0.4,0-0.5,0.1c0.1,0,0.1,0,0.1,0c-0.4-0.1-0.5,0.2-0.5,0.3c-0.3-0.1-0.2,0.2-0.4,0.2
		c-0.1-0.2-0.6-0.2-0.9-0.2c0.1-0.1,0-0.1,0-0.1c-0.4,0-0.7-0.1-1.1,0c0.1-0.1-0.1,0-0.1-0.1c-0.4,0.1-1.1-0.1-1.3,0.1
		c-0.2,0-0.4,0-0.5,0c-0.1,0.1,0,0.2-0.2,0.1c-0.1,0.3-0.4,0.5-0.7,0.6c-0.1,0.1,0,0.2,0,0.2c-0.4,0-0.6,0.2-1.2,0.1
		c-0.1,0.1,0,0.2,0,0.2c-0.3,0-0.7,0-1,0c-0.2,0.1-0.3,0.3-0.6,0.3c-0.2,0.2-0.2,0.5-0.4,0.6c0,0.2,0,0.4-0.1,0.5c0,0.1,0,0.3,0,0.4
		c0,0-0.1,0-0.1,0c0,0.5-0.3,0.8-0.6,1.1c-0.5,0-0.5,0.2-1,0.2c-0.1,0.2,0.1,0,0.1,0.1c-0.4,0-1.2-0.1-1.1,0.1c-0.2,0-0.3,0-0.5,0
		c-0.1,0.2-0.3,0.2-0.5,0.3c0,0.1,0.1,0.3-0.1,0.3c0,0.1,0,0.2,0,0.3c-0.1-0.1-0.2,0.1-0.2,0.1c-0.5,0.1-1,0-1.6,0
		c0-0.1,0.1,0,0-0.1c-0.5,0-0.5-0.2-1-0.2c0,0,0.1-0.2,0-0.1c-0.4,0-0.5-0.2-1-0.2c0,0,0.1-0.2,0-0.1c-0.4,0-0.7-0.2-1.2-0.2
		c0.2-0.4-0.9,0-0.7-0.3c-0.2,0-0.4,0-0.5,0.1c0.1,0,0.2,0,0.2,0c-0.6,0-1.1,0-1.7,0c0.1-0.1,0-0.1,0-0.1c-0.2,0-0.5,0.1-0.6,0
		c0.1,0,0.1,0,0.1-0.1c-0.5,0-0.5-0.2-1.1-0.2c0.1-0.1,0.1-0.1,0-0.2c-0.5,0.1-0.4-0.2-1-0.1c0-0.1,0-0.1,0-0.2
		c-0.3,0-0.4,0-0.6-0.1c-0.6,0.1-0.6-0.3-1.2-0.2c0-0.2-0.4-0.3-0.7-0.3c0,0,0-0.1,0-0.1c-0.4,0-0.5-0.2-0.8-0.2
		c0.2-0.2-0.2-0.1-0.3-0.2c0,0-0.1-0.2-0.4-0.1c0-0.2-0.3-0.1-0.3-0.3c0-0.1-0.3,0-0.4,0c0-0.2-0.4-0.3-0.7-0.3c0-0.1,0.1,0,0-0.1
		c-0.4,0-0.6-0.2-1-0.2c0-0.3-0.8-0.2-0.8-0.5c-0.5,0.1-0.7-0.2-1.2-0.1c0,0,0.1-0.2,0-0.1c-0.7,0-1.2-0.1-1.8-0.2
		c0,0,0.1-0.2,0-0.1c-0.6,0-0.9-0.4-1.6-0.3c0-0.1,0.1,0,0-0.1c-0.5,0-0.7-0.2-1.2-0.2c-0.1-0.2-0.6-0.3-1-0.3c0,0,0.1-0.2,0-0.1
		c-0.4-0.1-0.4-0.2-1-0.2c0,0,0-0.1,0-0.1c-0.5,0-0.8-0.2-1.4-0.2c0,0,0-0.1,0-0.1c-0.6,0-0.8-0.1-1.3-0.2c0-0.1,0.1,0,0-0.1
		c-0.4,0-0.5-0.2-0.9-0.2c0-0.2-0.4-0.3-0.7-0.3c0-0.2-0.4-0.3-0.7-0.3c0-0.1,0-0.1,0-0.2c-0.5,0.1-0.3-0.2-0.8-0.1
		c0,0,0.1-0.2,0-0.1c-0.3,0-0.5-0.2-0.9-0.2c0-0.1,0-0.1,0-0.2c-0.2,0-0.3,0-0.5,0c0.2-0.2-0.4,0-0.3-0.3c-0.4,0-0.4-0.3-0.8-0.2
		c0-0.1-0.2-0.2-0.4-0.1c-0.1-0.3-0.6-0.3-0.7-0.6c-0.1,0-0.1,0-0.2,0c-0.2-0.3-0.3-0.5-0.7-0.6c0-0.3-0.4-0.3-0.5-0.5
		c0-0.2,0-0.5,0-0.7c0.3,0.1,0.3-0.1,0.4-0.3c-0.3-0.3-0.2-0.7-0.7-0.8c0.1-0.1-0.2-0.3-0.4-0.3c-0.1-0.3-0.3-0.4-0.5-0.7
		c0-0.2,0-0.4,0-0.6c0.1,0,0.2,0,0.3,0c0-0.2,0.1-0.1,0.3-0.2c-0.3-0.1-0.3-0.4-0.7-0.4c0-0.1,0-0.1,0-0.2c-0.3,0.1-0.3-0.2-0.6-0.1
		c0.1-0.1,0.1-0.1,0-0.2c-0.2,0-0.4,0-0.6,0c0.1-0.1,0-0.1,0-0.1c-0.8,0.1-1-0.4-1.7-0.3c0-0.2-0.2-0.1-0.2-0.3c0-0.1,0.2,0,0.2-0.2
		c-0.4,0-0.5-0.4-1.1-0.3c0-0.3-0.6-0.2-0.6-0.6c-0.4,0-0.4-0.4-0.9-0.3c0,0,0.1-0.2,0-0.1c-0.3,0-0.3-0.2-0.8-0.2
		c0.1-0.1,0.1-0.1,0-0.2c-0.4,0.1-0.4-0.2-0.7-0.1c0-0.2-0.4-0.3-0.7-0.3c0.1-0.1,0.1-0.1,0-0.2c-0.7-0.1-1-0.8-1.7-0.9
		c0.1-0.1-0.2-0.3-0.4-0.3c-0.1-0.2-0.1-0.3-0.3-0.3c0.1-0.1-0.1-0.3-0.3-0.3c0-0.3-0.5-0.3-0.6-0.6c-0.1,0-0.2,0-0.3,0
		c0.1-0.2-0.3-0.2-0.3-0.3c0-0.1,0-0.2,0-0.3c0.1,0,0.1-0.1,0.3,0c0-0.1-0.1-0.1-0.1-0.1c0.3,0,0.6,0,0.5-0.1c0.2,0.2,1,0.2,1.4,0.1
		c-0.3,0-0.2-0.4-0.4-0.5c0-0.1,0-0.3,0-0.3c-0.4-0.3-0.7-0.7-1.1-1.1c0.1-0.4-0.2-0.5-0.2-0.7c-0.3,0-0.4-0.3-0.9-0.3
		c0.1-0.2-0.2-0.2-0.3-0.3c0-0.1,0-0.2,0-0.3C67.2,41.9,67.3,41.9,67.3,41.9z M77.6,51.4c-0.1,0-0.2,0-0.3,0
		C77.3,51.6,77.6,51.5,77.6,51.4z"/>
</g>
<path class="st2" d="M59.3,64.1c0.1,0,0.2,0,0.3,0C59.5,64.2,59.3,64.2,59.3,64.1z"/>
<path class="st3" d="M49.3,54.6c0,0.2,0.3,0.1,0.4,0.1c0.2,0.4,0.7,0.3,0.8,0.6c0.1,0,0.3,0,0.4,0c-0.1,0.2,0.4,0.1,0.5,0.3
	c0.2,0,0.3,0,0.5,0c-0.1,0.1,0,0.1,0,0.2c0.2,0,0.3,0,0.5,0c0,0,0,0.1,0,0.1c0.1,0,0.3,0,0.3,0c0,0,0,0.2,0,0.2
	c0.2,0.1,0.1,0,0.2,0.1c0,0,0.2,0,0.2,0c0,0.1-0.1,0.1,0,0.2c0.1,0,0.3,0,0.3,0.1c0.1,0.1,0.2,0.3,0.3,0.3c0.2,0.1,0.5,0,0.9,0
	c0.2,0.3,0.5,0.2,0.8,0.5c0.2,0,0.3,0,0.5,0c-0.1,0.1,0,0.1,0,0.2c0.7,0,0.6,0.5,1.3,0.4c0,0-0.1,0.2,0,0.1c0.4,0,0.4,0.2,0.9,0.2
	c0,0.1-0.1,0,0,0.1c0.4,0,0.6,0.2,1,0.2c0,0.1-0.1,0,0,0.1c0.1,0.1,0.4,0,0.6,0c-0.2,0.2,0.6,0.1,0.9,0.1c0,0.1-0.1,0,0,0.1
	c0.4,0,0.7,0.3,1.3,0.2c0.1,0,0,0.1,0.1,0.2c0.8-0.1,1,0.2,1.7,0.1c0.1,0,0,0.1,0.1,0.2c0.7-0.1,0.8,0.2,1.5,0.1
	c0.1,0,0,0.1,0.1,0.2c0.3,0,0.6,0,0.9,0c-0.2,0.2,0.6,0.1,0.9,0.1c-0.1,0.1,0,0.1,0,0.2c0.8-0.1,0.9,0.2,1.6,0.1
	c0.1,0.3,0.6,0.1,0.9,0.2c0,0-0.1,0.2,0,0.1c1,0.3,2.5,0.1,3.7,0.2c-0.1,0-0.1,0-0.1,0c0.8,0,1.4,0.3,2.3,0.2c0,0-0.1,0.2,0,0.1
	c0.5,0,0.8,0.2,1.4,0.2c0,0-0.1,0.2,0,0.1c0.5,0,0.9,0.2,1.5,0.2c0,0.1-0.1,0,0,0.1c0.5,0,0.8,0.2,1.4,0.2c-0.1,0.1,0,0.1,0,0.2
	c0.4,0,0.5,0.2,1,0.1c0,0.1-0.1,0-0.1,0.1c0.2,0.1,0.6,0,0.9,0c-0.2,0.2,0.6,0.1,0.8,0.1c0,0.1-0.1,0,0,0.1c0.5,0,0.8,0.2,1.4,0.2
	c0,0.1-0.1,0-0.1,0.1c2,0.3,4.6,0.1,6.9,0.2c-0.1,0.1,0,0.1,0,0.2c1.2,0,2.5,0,3.7,0c0.1,0,0-0.1,0.1-0.2c0.5,0,0.5-0.2,1-0.2
	c0.1-0.1-0.2-0.1,0-0.1c0.4,0,0.9-0.1,1-0.3c1.8-0.1,3.1,0.1,4.5-0.3c0.6-0.2,1-1.3,1.3-1.8c0.2-0.1,0.5-0.1,0.8-0.1
	c0.2,0,0.4-0.2,0.5-0.2c0.4-0.1,0.7,0,1-0.1c0.4-0.3,0.4-0.8,0.9-1c0.6-0.2,1.5,0.2,2.1-0.2c0.1-0.6,1-0.7,2-0.5
	c0.8,0.1,1.6,0.4,2.5,0.5c0.9,0.1,2.2-0.1,2.6,0.5c0.4-0.1,0.7,0.4,1.3,0.3c-0.1,0.1,0,0,0.1,0c0.5,0.4,1.6,0.4,2.2,0.7
	c1-0.1,1.8,0.2,2.6,0.4c0.8-0.1,1.4,0.2,2.2,0.4c0.4,0.1,0.9,0.4,1.3,0.5c0.2,0,0.3-0.1,0.4,0c0,0,0.1,0.1,0.2,0.1
	c0.1,0,0.3,0,0.4,0c0.1,0,0,0.1,0.1,0.1c0.2,0,0.3,0,0.4,0c0,0.3,1,0.2,1,0.5c0.7,0,1.3-0.1,1.6,0.3c0.4,0,0.7,0,1,0.1
	c0.1,0,0,0.1,0.1,0.2c0.1,0,0.3,0,0.4,0c0.1,0,0.2,0.2,0.5,0.1c-0.2,0.3,0.3,0.1,0.5,0.2c0,0-0.2,0.2,0,0.1c0.1,0,0.3,0,0.4,0
	c-0.1,0.1,0,0.1,0,0.2c0.8,0,1.1,0.6,2,0.6c0,0-0.1,0.2,0,0.1c0.4,0.1,0.8,0.2,1,0.3c0.5,0,0.9,0.2,1.6,0.1c0.2,0.2,0.4,0.3,0.7,0.3
	c0,0.2,0.5,0.3,0.8,0.3c0,0.2,0.5,0.1,0.6,0.3c0.2,0,0.3,0,0.5,0c0,0.1-0.1,0-0.1,0.1c0.7,0,0.7,0.5,1.3,0.5c0,0.1,0,0.2,0.1,0.2
	c0.7,0.1,1,0.4,1.4,0.6c0.2,0,0.3,0,0.5,0c0,0.2,0.5,0.1,0.6,0.3c0.1,0,0.3,0,0.4,0c0.2,0.2,0.5,0.3,0.9,0.3
	c0.1,0.2,0.5,0.2,0.9,0.3c-0.2,0.2,0.3,0.1,0.3,0.3c0.1,0,0.3,0,0.4,0c0,0-0.1,0.2,0,0.1c0.4,0,0.3,0.2,0.7,0.2
	c-0.2,0.2,0.4,0.1,0.3,0.3c0.1,0,0.3,0,0.4,0c-0.1,0.2,0.3,0.3,0.6,0.3c-0.1,0.3,0.3,0.1,0.3,0.3c0.2,0,0.3,0,0.5,0
	c0,0.1,0,0.1,0,0.2c0.3,0,0.5,0,0.7,0c0.1,0,0,0.1,0,0.1c0.1,0,0.3,0,0.3,0c0,0,0,0.2,0,0.2c0.1,0,0.2,0,0.3,0
	c0.2,0.1,0,0.1,0.1,0.1c0.1,0,0.3,0,0.4,0c-0.1,0.1,0,0.1,0,0.2c0.3-0.1,0.4,0.1,0.4,0.1c0.1,0,0.2,0,0.3,0c0,0,0,0.2,0,0.2
	c0.2,0.2,0.2-0.1,0.3,0.1c0,0.1,0.7,0.2,0.9,0.2c0,0-0.1,0.2,0,0.1c0.5,0.1,0.7,0.4,1.1,0.5c0,0.3,0.6,0.3,0.7,0.6
	c0.1,0,0.3,0,0.4,0c0,0.2,0.3,0.3,0.6,0.3c-0.1,0.2,0.3,0.1,0.3,0.3c0.1,0,0.3,0,0.4,0c-0.1,0.1,0,0.1,0,0.2c0.8,0,0.8,0.5,1.5,0.4
	c-0.1,0.1-0.1,0.1,0,0.2c0.2,0,0.4,0,0.6,0c-0.1,0.2,0.5,0,0.4,0.3c0.1,0,0.3,0,0.4,0c0.3,0.3,0.3,0.6,0.8,0.6
	c0.3,0.5,1.1,0.6,1.1,1.5c0,0.1,0.2,0,0.2,0.1c0,0.4,0.1,0.5,0.3,0.8c0,0.5,0,1,0,1.6c0.2,0.2,0.3,0.7,0.4,0.8c0,0.3,0,0.7,0,1
	c-0.6,0.1-0.9,0.7-1.4,1.1c-0.6-0.1-1.4-0.3-1.9,0c-0.1,0.3-0.1,0.3-0.2,0.4c-0.6,0.1-0.5-0.2-1.1-0.1c-0.1,0-0.1-0.1-0.1-0.2
	c-0.5,0-0.8-0.3-1.1-0.4c-0.3-0.1-0.7,0-0.9-0.2c-0.1,0-0.3,0-0.4,0c0.1-0.1,0-0.1,0-0.2c-0.6,0.1-0.6-0.2-1.2-0.1
	c0-0.1,0.1,0,0-0.1c-0.2-0.1-0.5,0-0.4,0.1c-0.1,0-0.3,0-0.4,0c-0.2,0.2-0.3,0.4-0.4,0.5c0,0.4-0.2,0.7-0.4,0.9
	c-0.3-0.1-0.2,0.1-0.3,0.1c-0.2,0-0.5,0.1-0.6,0c0.1,0,0.1,0,0.1,0c-0.8-0.1-1.8,0-2.7,0c0,0.1,0,0.2-0.1,0.1c0,0.2,0,0.4,0,0.6
	c-0.6,0.1-1.5-0.1-2.1,0c0,0.2,0.2,0.1,0.1,0.4c0.2,0.1,0.3,0.3,0.5,0.3c0,0.1,0,0.1,0,0.2c0.3,0.1,0.4,0.6,0.7,0.7
	c-0.1,0.1,0.2,0.2,0.2,0.4c0.1,0.1,0.1-0.1,0.1,0c0,0.2,0,0.4,0,0.5c-0.2,0-0.4,0-0.6,0c0,0,0-0.1,0-0.1c-0.1-0.1-0.3-0.1-0.3-0.2
	c-0.1,0-0.2,0-0.3,0c-0.1-0.1-0.1-0.2-0.4-0.2c0-0.3-0.6-0.4-0.7-0.6c-0.2,0-0.3,0-0.5,0c0,0,0-0.1,0-0.1c-0.3,0-0.4-0.2-0.7-0.2
	c0-0.2-0.3-0.3-0.6-0.3c0.1-0.3-0.2-0.1-0.3-0.2c0,0,0-0.2-0.3-0.1c0-0.3-0.7-0.4-0.7-0.6c-0.2,0-0.5,0.1-0.7,0c0.1,0,0.1,0,0.1,0
	c-0.4-0.2-0.8-0.3-1.4-0.2c0.2-0.3-0.6-0.1-0.7-0.2c0.1,0,0.2,0,0.2,0c-0.3-0.1-0.6,0-0.9,0c0,0,0.1-0.2,0-0.1c-0.4-0.1-0.8,0-1-0.2
	c0,0,0-0.2,0-0.2c-0.1,0-0.3,0-0.4,0c0,0,0-0.1,0-0.1c0,0-0.2,0-0.3,0c-0.2-0.1-0.2-0.3-0.6-0.2c0,0,0-0.1,0-0.1
	c-0.7,0-0.7-0.5-1.4-0.5c0,0,0-0.1,0-0.1c-0.4-0.1-0.8-0.1-1-0.3c-0.8,0.1-1.4-0.1-1.7,0c0.1-0.2-0.7-0.1-1-0.1
	c-0.1-0.3-0.9-0.3-1.3-0.6c-0.1,0-0.3,0-0.4,0c0,0,0.1-0.2,0-0.1c-0.6-0.1-0.8-0.4-1.4-0.5c0.1-0.1,0.1-0.1,0-0.2
	c-0.4,0.1-0.3-0.2-0.7-0.1c0.1-0.1,0.1-0.1,0-0.2c-0.7-0.1-1-0.6-1.8-0.6c0,0,0-0.1,0-0.1c-0.7,0-0.9-0.5-1.8-0.5c0,0,0.1-0.2,0-0.1
	c-0.5,0-1-0.1-1.4-0.2c0-0.2-0.4-0.3-0.8-0.3c0,0,0.1-0.2,0-0.1c-0.4,0-0.3-0.2-0.8-0.2c0.1-0.1,0-0.1,0-0.2
	c-0.4,0.1-0.2-0.2-0.7-0.1c0-0.3-0.6-0.1-0.7-0.5c-0.3,0-0.8,0.1-0.7-0.1c-0.6,0-1.3,0-2.1,0c0,0,0.1-0.2,0-0.1
	c-0.3,0-0.5-0.2-0.9-0.2c0.1-0.1,0.1-0.1,0-0.2c-0.5,0.1-0.4-0.2-0.9-0.1c0-0.1,0-0.1,0-0.2c-0.8,0-1-0.4-1.9-0.3c0-0.1,0.1,0,0-0.1
	c-0.2,0-0.4,0-0.5,0.1c0.1,0,0.1,0,0.1,0c-0.4-0.1-0.5,0.2-0.5,0.3c-0.3-0.1-0.2,0.2-0.4,0.2c-0.1-0.2-0.6-0.2-0.9-0.2
	c0.1-0.1,0-0.1,0-0.1c-0.4,0-0.7-0.1-1.1,0c0.1-0.1-0.1,0-0.1-0.1c-0.4,0.1-1.1-0.1-1.3,0.1c-0.2,0-0.4,0-0.5,0
	c-0.1,0.1,0,0.2-0.2,0.1c-0.1,0.3-0.4,0.5-0.7,0.6c-0.1,0.1,0,0.2,0,0.2c-0.4,0-0.6,0.2-1.2,0.1c-0.1,0.1,0,0.2,0,0.2
	c-0.3,0-0.7,0-1,0c-0.2,0.1-0.3,0.3-0.6,0.3c-0.2,0.2-0.2,0.5-0.4,0.6c0,0.2,0,0.4-0.1,0.5c0,0.1,0,0.3,0,0.4c0,0-0.1,0-0.1,0
	c0,0.5-0.3,0.8-0.6,1.1c-0.5,0-0.5,0.2-1,0.2c-0.1,0.2,0.1,0,0.1,0.1c-0.4,0-1.2-0.1-1.1,0.1c-0.2,0-0.3,0-0.5,0
	c-0.1,0.2-0.3,0.2-0.5,0.3c0,0.1,0.1,0.3-0.1,0.3c0,0.1,0,0.2,0,0.3c-0.1-0.1-0.2,0.1-0.2,0.1c-0.5,0.1-1,0-1.6,0c0-0.1,0.1,0,0-0.1
	c-0.5,0-0.5-0.2-1-0.2c0,0,0.1-0.2,0-0.1c-0.4,0-0.5-0.2-1-0.2c0,0,0.1-0.2,0-0.1c-0.4,0-0.7-0.2-1.2-0.2c0.2-0.4-0.9,0-0.7-0.3
	c-0.2,0-0.4,0-0.5,0.1c0.1,0,0.2,0,0.2,0c-0.6,0-1.1,0-1.7,0c0.1-0.1,0-0.1,0-0.1c-0.2,0-0.5,0.1-0.6,0c0.1,0,0.1,0,0.1-0.1
	c-0.5,0-0.5-0.2-1.1-0.2c0.1-0.1,0.1-0.1,0-0.2c-0.5,0.1-0.4-0.2-1-0.1c0-0.1,0-0.1,0-0.2c-0.3,0-0.4,0-0.6-0.1
	c-0.6,0.1-0.6-0.3-1.2-0.2c0-0.2-0.4-0.3-0.7-0.3c0,0,0-0.1,0-0.1c-0.4,0-0.5-0.2-0.8-0.2c0.2-0.2-0.2-0.1-0.3-0.2
	c0,0-0.1-0.2-0.4-0.1c0-0.2-0.3-0.1-0.3-0.3c0-0.1-0.3,0-0.4,0c0-0.2-0.4-0.3-0.7-0.3c0-0.1,0.1,0,0-0.1c-0.4,0-0.6-0.2-1-0.2
	c0-0.3-0.8-0.2-0.8-0.5c-0.5,0.1-0.7-0.2-1.2-0.1c0,0,0.1-0.2,0-0.1c-0.7,0-1.2-0.1-1.8-0.2c0,0,0.1-0.2,0-0.1
	c-0.6,0-0.9-0.4-1.6-0.3c0-0.1,0.1,0,0-0.1c-0.5,0-0.7-0.2-1.2-0.2c-0.1-0.2-0.6-0.3-1-0.3c0,0,0.1-0.2,0-0.1
	c-0.4-0.1-0.4-0.2-1-0.2c0,0,0-0.1,0-0.1c-0.5,0-0.8-0.2-1.4-0.2c0,0,0-0.1,0-0.1c-0.6,0-0.8-0.1-1.3-0.2c0-0.1,0.1,0,0-0.1
	c-0.4,0-0.5-0.2-0.9-0.2c0-0.2-0.4-0.3-0.7-0.3c0-0.2-0.4-0.3-0.7-0.3c0.1-0.1,0.1-0.1,0-0.2c-0.5,0.1-0.3-0.2-0.8-0.1
	c0,0,0.1-0.2,0-0.1c-0.3,0-0.5-0.2-0.9-0.2c0-0.1,0-0.1,0-0.2c-0.2,0-0.3,0-0.5,0c0.2-0.2-0.4,0-0.3-0.3c-0.4,0-0.4-0.3-0.8-0.2
	c0-0.1-0.2-0.2-0.4-0.1c-0.1-0.3-0.6-0.3-0.7-0.6c-0.1,0-0.1,0-0.2,0c-0.2-0.3-0.3-0.5-0.7-0.6c0-0.3-0.4-0.3-0.5-0.5
	c0-0.2,0-0.5,0-0.7c0.3,0.1,0.3-0.1,0.4-0.3c-0.3-0.3-0.2-0.7-0.7-0.8c0.1-0.1-0.2-0.3-0.4-0.3c-0.1-0.3-0.3-0.4-0.5-0.7
	c0-0.2,0-0.4,0-0.6c0.1,0,0.2,0,0.3,0c0-0.2,0.1-0.1,0.3-0.2c-0.3-0.1-0.3-0.4-0.7-0.4c0-0.1,0-0.1,0-0.2c-0.3,0.1-0.3-0.2-0.6-0.1
	c0-0.1,0-0.1,0-0.2c-0.2,0-0.4,0-0.6,0c0.1-0.1,0-0.1,0-0.1c-0.8,0.1-1-0.4-1.7-0.3c0-0.2-0.2-0.1-0.2-0.3c0-0.1,0.2,0,0.2-0.2
	c-0.4,0-0.5-0.4-1.1-0.3c0-0.3-0.6-0.2-0.6-0.6c-0.4,0-0.4-0.4-0.9-0.3c0,0,0.1-0.2,0-0.1c-0.3,0-0.3-0.2-0.8-0.2
	c0.1-0.1,0.1-0.1,0-0.2c-0.4,0.1-0.4-0.2-0.7-0.1c0-0.2-0.4-0.3-0.7-0.3c0.1-0.1,0.1-0.1,0-0.2c-0.7-0.1-1-0.8-1.7-0.9
	c0.1-0.1-0.2-0.3-0.4-0.3c-0.1-0.2-0.1-0.3-0.3-0.3c0.1-0.1-0.1-0.3-0.3-0.3c0-0.3-0.5-0.3-0.6-0.6c-0.1,0-0.2,0-0.3,0
	c0.1-0.2-0.3-0.2-0.3-0.3c0-0.1,0-0.2,0-0.3c0.1,0,0.1-0.1,0.3,0c0-0.1-0.1-0.1-0.1-0.1c0.3,0,0.6,0,0.5-0.1c0.2,0.2,1,0.2,1.4,0.1
	c-0.3,0-0.2-0.4-0.4-0.5c0-0.1,0-0.3,0-0.3c-0.4-0.3-0.7-0.7-1.1-1.1c0.1-0.4-0.2-0.5-0.2-0.7c-0.3,0-0.4-0.3-0.9-0.3
	c0.1-0.2-0.2-0.2-0.3-0.3c0-0.1,0-0.2,0-0.3C49.1,54.6,49.2,54.6,49.3,54.6z M59.6,64.1c-0.1-0.1-0.2,0-0.3,0
	C59.3,64.2,59.5,64.2,59.6,64.1z"/>
<g>
	<path d="M199.6,84h-3.2c0.1-3.9,0.2-7.5,0.2-10.6h-10.2c0,2.5,0.1,6.1,0.2,10.6h-3.2c0.2-4.2,0.2-8.1,0.2-11.7
		c0-3.8-0.1-7.3-0.2-10.6h3.2c-0.1,3.3-0.2,6.4-0.2,9.5h10.3c0-2.5-0.1-5.6-0.2-9.5h3.2c-0.2,3.2-0.3,6.7-0.3,10.6
		C199.4,76.6,199.4,80.5,199.6,84z"/>
	<path d="M227.7,84h-3.6c0-0.8-0.7-3.2-2.2-7.2h-9.9c-1.4,4-2.1,6.4-2.1,7.2h-3.5c0-0.4,1.5-4.1,4.4-10.9c2.9-6.9,4.4-10.6,4.4-11.3
		h4c0,0.7,1.4,4.4,4.2,11.2S227.7,83.4,227.7,84z M221.2,74.6c-2.7-6.7-4-10.2-4-10.7H217c0,0.4-1.4,3.9-4.2,10.7H221.2z"/>
	<path d="M258.4,84h-3.2c0-2.5-0.2-6.2-0.5-11c-0.4-4.8-0.5-7.7-0.6-8.6H254c-1.1,3.7-2.6,7.7-4.3,12.1c-1.7,4.3-2.6,6.9-2.6,7.6
		h-2.3c0-0.8-0.8-3.4-2.4-7.8c-1.6-4.4-2.7-7.3-3.1-8.8c-0.4-1.5-0.7-2.5-0.9-3.1h-0.2c0,1.6-0.3,4.7-0.7,9.5
		c-0.4,4.7-0.6,8.1-0.6,10.2h-2.9c0-0.1,0.4-3.2,1.2-9.4c0.8-6.2,1.2-10.4,1.2-12.8h4.5c0,1.3,0.9,4.4,2.7,9.4c1.8,5,2.7,8,2.7,9.1
		h0.2c0-1.1,1-4.1,3.1-9.1c2.1-5,3.1-8.2,3.1-9.4h4.4c0,2.4,0.3,6.7,0.8,12.8C258.2,80.7,258.4,83.8,258.4,84z"/>
	<path d="M283,67.3c0,2.6-1,4.5-3,5.8c-2,1.3-4.6,1.9-7.9,1.9c-0.4,0-0.8,0-1.1,0c0,2.5,0.1,5.5,0.3,9H268c0.2-3.2,0.3-7.1,0.3-11.7
		c0-3.9-0.1-7.4-0.3-10.6h2.4c0.3,0,1,0,2.2-0.1c1.2,0,2.3-0.1,3.2-0.1c2.2,0,3.9,0.5,5.2,1.5C282.3,64.2,283,65.5,283,67.3z
		 M280.1,68.3c0-2.9-2-4.4-6-4.4c-1,0-2.1,0.1-3.3,0.3c0.1,1.9,0.1,4.8,0.1,8.7c0.4,0,0.9,0,1.5,0C277.6,72.9,280.1,71.3,280.1,68.3
		z"/>
	<path d="M305.1,61.8l-0.1,2.4c-2.3-0.1-4.6-0.2-7-0.2c0,2.2,0,5,0,8.3c0,3.7,0.1,7.6,0.2,11.7H295c0.1-3.9,0.2-7.8,0.2-11.7
		c0-3.3,0-6.1-0.1-8.3c-1.7,0-4.1,0.1-7.1,0.2l0.1-2.4H305.1z"/>
	<path d="M331.5,72.6c0,3.7-1.1,6.6-3.2,8.8c-2.2,2.2-4.6,3.3-7.5,3.3c-2.7,0-5.1-1-7.1-3c-2-2-3.1-4.8-3.1-8.2
		c0-3.7,1.1-6.7,3.2-8.9c2.2-2.2,4.6-3.3,7.5-3.3c2.7,0,5.1,1,7.1,3C330.5,66.4,331.5,69.1,331.5,72.6z M328.5,72.9
		c0-2.9-0.8-5.2-2.3-6.8c-1.5-1.6-3.3-2.4-5.3-2.4c-1.9,0-3.5,0.8-5,2.5c-1.5,1.7-2.2,4-2.2,6.8c0,3,0.8,5.2,2.3,6.8
		c1.6,1.6,3.3,2.4,5.3,2.4c1.9,0,3.5-0.9,5-2.6C327.8,78,328.5,75.8,328.5,72.9z"/>
	<path d="M357.1,84h-2.4c0-0.2-1.9-2.9-5.6-8.2c-3.9-5.5-6.1-9-6.7-10.5h-0.2c0.2,2.7,0.3,5.1,0.3,7.1c0,3.8,0.1,7.7,0.3,11.6h-2.9
		c0.2-3.7,0.3-7.6,0.3-11.7c0-4-0.1-7.5-0.3-10.6h3.3c0,0.3,1.7,2.9,5.2,7.8c3.6,5.1,5.7,8.5,6.2,10h0.2c-0.2-2.8-0.3-5.1-0.3-7.1
		c0-4.2-0.1-7.8-0.2-10.7h2.9c-0.2,3-0.3,6.5-0.3,10.6C356.8,76.4,356.9,80.3,357.1,84z"/>
	<path d="M395,84h-3.3c-1.1-3.3-1.9-5.4-2.4-6.5c-0.6-1.3-1.4-2.2-2.2-2.6c-0.6-0.3-1.8-0.5-3.4-0.5c-1,0-1.8,0-2.6,0
		c0,3.7,0.1,6.8,0.2,9.5h-3.2c0.2-3.5,0.3-7.4,0.3-11.7c0-4-0.1-7.5-0.3-10.6h2.4c0.5,0,1.2,0,1.9-0.1c0.8,0,1.7-0.1,2.7-0.1
		c5,0,7.5,1.7,7.5,5.2c0,2.9-1.4,4.9-4.2,6V73c1.3,0.4,2.3,1.2,3,2.6C392.1,76.8,393.3,79.6,395,84z M389.7,68
		c0-2.7-1.8-4.1-5.5-4.1c-1.3,0-2.4,0.1-3.3,0.2c0.1,2,0.1,4.7,0.1,8.1c0.7,0,1.3,0,2,0C387.5,72.3,389.7,70.8,389.7,68z"/>
	<path d="M422.2,72.6c0,3.7-1.1,6.6-3.2,8.8c-2.2,2.2-4.6,3.3-7.5,3.3c-2.7,0-5.1-1-7.1-3c-2-2-3.1-4.8-3.1-8.2
		c0-3.7,1.1-6.7,3.2-8.9c2.2-2.2,4.6-3.3,7.5-3.3c2.7,0,5.1,1,7.1,3C421.2,66.4,422.2,69.1,422.2,72.6z M419.1,72.9
		c0-2.9-0.8-5.2-2.3-6.8c-1.5-1.6-3.3-2.4-5.3-2.4c-1.9,0-3.5,0.8-5,2.5c-1.5,1.7-2.2,4-2.2,6.8c0,3,0.8,5.2,2.3,6.8
		c1.6,1.6,3.3,2.4,5.3,2.4c1.9,0,3.5-0.9,5-2.6C418.4,78,419.1,75.8,419.1,72.9z"/>
	<path d="M448.8,84h-3.6c0-0.8-0.7-3.2-2.2-7.2h-9.9c-1.4,4-2.1,6.4-2.1,7.2h-3.5c0-0.4,1.5-4.1,4.4-10.9c2.9-6.9,4.4-10.6,4.4-11.3
		h4c0,0.7,1.4,4.4,4.2,11.2C447.4,79.7,448.8,83.4,448.8,84z M442.2,74.6c-2.7-6.7-4-10.2-4-10.7H438c0,0.4-1.4,3.9-4.2,10.7H442.2z
		"/>
	<path d="M473.2,72.1c0,3.2-1,6.1-3.1,8.5c-2.1,2.4-4.9,3.7-8.6,3.7c-1.2,0-3.2-0.1-5.9-0.2c0.2-3.5,0.3-7.4,0.3-11.7
		c0-4-0.1-7.5-0.3-10.6h1.9c0.5,0,1.2,0,2.1-0.1c0.9,0,1.5-0.1,1.8-0.1c4,0,7,1,8.9,3C472.3,66.6,473.2,69.1,473.2,72.1z
		 M470.3,72.9c0-2.5-0.8-4.6-2.4-6.3c-1.6-1.7-4.1-2.5-7.5-2.5c-0.5,0-1.1,0.1-2,0.2c0.1,2.7,0.1,5.4,0.1,8.2c0,3.1,0.1,6.2,0.2,9.4
		c0.9,0.2,1.8,0.3,2.6,0.3c3,0,5.2-0.9,6.7-2.7C469.5,77.5,470.3,75.4,470.3,72.9z"/>
	<path d="M494.6,78.3c0,4.2-2.9,6.3-8.8,6.3c-2.1,0-4-0.2-5.7-0.7l0.6-2.7c1.9,0.7,3.7,1,5.5,1c3.9,0,5.8-1.1,5.8-3.3
		c0-1.1-0.5-2.1-1.5-2.8c-0.7-0.5-2-1.2-4-2.1c-2.1-0.9-3.5-1.8-4.4-2.5c-1.2-1.1-1.7-2.4-1.7-4c0-1.7,0.6-3.1,1.8-4.1
		c1.3-1.2,3.2-1.8,5.6-1.8c2.7,0,4.6,0.2,5.6,0.5l-0.4,2.7c-1.7-0.5-3.6-0.8-5.5-0.8c-2.9,0-4.4,1-4.4,2.9c0,0.9,0.4,1.7,1.3,2.4
		c0.5,0.4,1.8,1,3.6,1.8c2.1,0.9,3.7,1.8,4.6,2.6C493.9,74.9,494.6,76.4,494.6,78.3z"/>
	<path d="M528.4,61.8l-0.1,2.4c-2.3-0.1-4.6-0.2-7-0.2c0,2.2,0,5,0,8.3c0,3.7,0.1,7.6,0.2,11.7h-3.1c0.1-3.9,0.2-7.8,0.2-11.7
		c0-3.3,0-6.1-0.1-8.3c-1.7,0-4.1,0.1-7.1,0.2l0.1-2.4H528.4z"/>
	<path d="M552.3,84H549c-1.1-3.3-1.9-5.4-2.4-6.5c-0.6-1.3-1.4-2.2-2.2-2.6c-0.6-0.3-1.8-0.5-3.4-0.5c-1,0-1.8,0-2.6,0
		c0,3.7,0.1,6.8,0.2,9.5h-3.2c0.2-3.5,0.3-7.4,0.3-11.7c0-4-0.1-7.5-0.3-10.6h2.4c0.5,0,1.2,0,1.9-0.1c0.8,0,1.7-0.1,2.7-0.1
		c5,0,7.5,1.7,7.5,5.2c0,2.9-1.4,4.9-4.2,6V73c1.3,0.4,2.3,1.2,3,2.6C549.5,76.8,550.6,79.6,552.3,84z M547.1,68
		c0-2.7-1.8-4.1-5.5-4.1c-1.3,0-2.4,0.1-3.3,0.2c0.1,2,0.1,4.7,0.1,8.1c0.7,0,1.3,0,2,0C544.8,72.3,547.1,70.8,547.1,68z"/>
	<path d="M578.3,84h-3.6c0-0.8-0.7-3.2-2.2-7.2h-9.9c-1.4,4-2.1,6.4-2.1,7.2h-3.5c0-0.4,1.5-4.1,4.4-10.9c2.9-6.9,4.4-10.6,4.4-11.3
		h4c0,0.7,1.4,4.4,4.2,11.2C576.9,79.7,578.3,83.4,578.3,84z M571.8,74.6c-2.7-6.7-4-10.2-4-10.7h-0.2c0,0.4-1.4,3.9-4.2,10.7H571.8
		z"/>
	<path d="M602.4,84H600c0-0.2-1.9-2.9-5.6-8.2c-3.9-5.5-6.1-9-6.7-10.5h-0.2c0.2,2.7,0.3,5.1,0.3,7.1c0,3.8,0.1,7.7,0.3,11.6h-2.9
		c0.2-3.7,0.3-7.6,0.3-11.7c0-4-0.1-7.5-0.3-10.6h3.3c0,0.3,1.7,2.9,5.2,7.8c3.6,5.1,5.7,8.5,6.2,10h0.2c-0.2-2.8-0.3-5.1-0.3-7.1
		c0-4.2-0.1-7.8-0.2-10.7h2.9c-0.2,3-0.3,6.5-0.3,10.6C602.1,76.4,602.2,80.3,602.4,84z"/>
	<path d="M625.3,78.3c0,4.2-2.9,6.3-8.8,6.3c-2.1,0-4-0.2-5.7-0.7l0.6-2.7c1.9,0.7,3.7,1,5.5,1c3.9,0,5.8-1.1,5.8-3.3
		c0-1.1-0.5-2.1-1.5-2.8c-0.7-0.5-2-1.2-4-2.1c-2.1-0.9-3.5-1.8-4.4-2.5c-1.2-1.1-1.7-2.4-1.7-4c0-1.7,0.6-3.1,1.8-4.1
		c1.3-1.2,3.2-1.8,5.6-1.8c2.7,0,4.6,0.2,5.6,0.5l-0.4,2.7c-1.7-0.5-3.6-0.8-5.5-0.8c-2.9,0-4.4,1-4.4,2.9c0,0.9,0.4,1.7,1.3,2.4
		c0.5,0.4,1.8,1,3.6,1.8c2.1,0.9,3.7,1.8,4.6,2.6C624.6,74.9,625.3,76.4,625.3,78.3z"/>
	<path d="M636.9,84h-3.2c0.2-3.7,0.3-7.6,0.3-11.7c0-4-0.1-7.6-0.3-10.6h3.2c-0.2,3.1-0.2,6.6-0.2,10.6
		C636.7,76.5,636.8,80.4,636.9,84z"/>
	<path d="M661.1,61.8l-0.1,2.4c-2.3-0.1-4.6-0.2-7-0.2c0,2.2,0,5,0,8.3c0,3.7,0.1,7.6,0.2,11.7H651c0.1-3.9,0.2-7.8,0.2-11.7
		c0-3.3,0-6.1-0.1-8.3c-1.7,0-4.1,0.1-7.1,0.2l0.1-2.4H661.1z"/>
</g>
</svg>
