<?xml version="1.0" encoding="UTF-8" standalone="no"?>
<!-- Created with Inkscape (http://www.inkscape.org/) -->

<svg
   xmlns:dc="http://purl.org/dc/elements/1.1/"
   xmlns:cc="http://creativecommons.org/ns#"
   xmlns:rdf="http://www.w3.org/1999/02/22-rdf-syntax-ns#"
   xmlns:svg="http://www.w3.org/2000/svg"
   xmlns="http://www.w3.org/2000/svg"
   version="1.1"
   width="47.649513"
   height="43.995323"
   viewBox="0 0 47.649513 43.995322"
   id="Layer_1"
   xml:space="preserve"><metadata
   id="metadata29"><rdf:RDF><cc:Work
       rdf:about=""><dc:format>image/svg+xml</dc:format><dc:type
         rdf:resource="http://purl.org/dc/dcmitype/StillImage" /><dc:title></dc:title></cc:Work></rdf:RDF></metadata><defs
   id="defs27" />
<path
   d="m 13.964244,33.833999 2.493,1.448 -1.357,2.607 -7.1650001,-3.672 1.224,-7.983 2.9250001,0.428 -0.376,3.302 c 2.457,-0.588 4.283,-2.811 4.283,-5.459 0,-1.668 -0.354,-2.8 -1.504,-3.828 -1.926,-2.194 -3.095,-5.075 -3.095,-8.233 0,-6.8719995 5.542,-12.44399951879883 12.376,-12.44399951879883 6.835,0 12.377,5.57300001879883 12.377,12.44399951879883 0,1.319 -0.204,2.588 -0.581,3.781 l -4.352,-0.729 c 0.382,-0.942 0.593,-1.971 0.593,-3.052 0,-4.4619995 -3.599,-8.0799995 -8.038,-8.0799995 -4.439,0 -8.036,3.618 -8.036,8.0799995 0,2.01 1.054,4.235 1.937,5.262 1.821,2.118 2.676,4.179 2.674,6.799 -0.001,4.255 -2.648,7.89 -6.378,9.329"
   id="path3"
   style="fill:#f58220" />
<path
   d="m 35.663244,28.866999 -0.051,-2.895 2.922,-0.174 0.559,8.067 -7.436,3.058 -1.141,-2.743 3.008,-1.375 c -1.767,-1.814 -4.601,-2.244 -6.859,-0.88 -1.423,0.86 -2.205,1.747 -2.489,3.267 -0.878,2.791 -2.733,5.282 -5.424,6.908 -5.859,3.539 -13.4630001,1.632 -16.9830001,-4.259 -3.52,-5.892 -1.62400004,-13.536 4.235,-17.076 1.124,-0.679 2.311,-1.157 3.521,-1.446 l 1.6210001,4.125 c -1,0.156 -1.9870001,0.506 -2.9070001,1.062 -3.805,2.298 -5.035,7.264 -2.749,11.089 2.286,3.826 7.2230001,5.063 11.0280001,2.764 1.713,-1.034 3.067,-3.089 3.488,-4.378 0.867,-2.66 2.184,-4.458 4.418,-5.807 3.629,-2.192 8.091,-1.782 11.239,0.693"
   id="path5"
   style="fill:#0099d8" />
<path
   d="m 21.089244,12.800999 -2.44,1.534 -1.653,-2.43 6.588,-4.6369995 6.436,4.8339995 -1.75,2.396 -2.722,-1.884 c -0.635,2.457 0.456,5.122 2.784,6.364 1.466,0.785 2.624,1.002 4.067,0.463 2.831,-0.679 5.91,-0.365 8.681,1.118 6.036,3.227 8.328,10.762 5.117,16.832 -3.209,6.068 -10.702,8.372 -16.737,5.145 -1.158,-0.619 -2.177,-1.396 -3.046,-2.291 l 2.682,-3.521 c 0.647,0.783 1.453,1.453 2.402,1.96 3.919,2.095 8.785,0.599 10.869,-3.342 2.084,-3.941 0.596,-8.834 -3.324,-10.929 -1.764,-0.944 -4.213,-1.054 -5.528,-0.75 -2.714,0.623 -4.924,0.413 -7.225,-0.819 -3.739,-1.999 -5.689,-6.055 -5.201,-10.043"
   id="path7"
   style="fill:#9bcd66" />






</svg>