<?xml version="1.0" encoding="UTF-8" standalone="no"?>
<svg xmlns:rdf="http://www.w3.org/1999/02/22-rdf-syntax-ns#" xmlns="http://www.w3.org/2000/svg" xml:space="preserve" height="28.23" viewBox="0 0 190.54526 28.229851" width="190.55" version="1.1" xmlns:cc="http://creativecommons.org/ns#" xmlns:dc="http://purl.org/dc/elements/1.1/"><g transform="matrix(1.25 0 0 -1.25 -285.82 616)"><g style="" transform="matrix(.25 0 0 .25 228.65 361.13)"><g fill="#002855"><path d="m122.03 471.1c1.785-4.401 2.2291-6.2494 3.1844-6.2494 0.7015 0 1.1493 0.3197 1.5947 1.591l7.1375 17.726c0.1928 0.4415 0.449 0.4415 0.5771 0.4415 0.1916 0 0.316-0.2525 0.4441-0.5734l7.0094-16.76c0.8944-2.0413 1.1506-2.4244 1.7241-2.4244 0.954 0 1.464 1.2103 1.8484 2.1034l16.382 38.624c2.1009 5.039 3.6969 3.3162 3.6969 4.7193 0 0.6978-0.321 0.6978-0.7663 0.6978-1.4665 0-3.3797-0.2537-5.2915-0.2537-1.5276 0-2.9941 0.2537-4.4632 0.2537-0.4415 0-0.6978-0.4415-0.6978-0.954 0-1.275 4.1422-0.8272 4.1422-3.57 0-0.7638-0.1281-1.4031-0.4453-2.1047l-11.603-28.555c-0.5735-1.4032-0.9541-2.3572-1.3994-2.3572-0.3844 0-0.765 0.5125-1.4031 1.9765l-5.3526 13.195c-0.3843 0.954-0.8309 2.4206-0.8309 3.0587 0 0.5734 0.0622 1.1469 0.5747 2.4219l4.5228 10.452c2.8697 6.6922 4.4022 4.2703 4.4022 6.0578 0 0.1891-0.2575 0.3781-0.4491 0.3781-1.0834 0-1.8484-0.2537-4.6509-0.2537-1.4031 0-2.7428 0.2537-4.1459 0.2537-0.3807 0-1.275 0-1.275-0.5697 0-1.4031 3.7603-1.0224 3.6968-3.7615 0-0.6381-0.3171-1.6557-0.5697-2.2975l-3.1271-7.4535c-0.3819-0.8943-0.6991-1.5947-0.8907-1.5947-0.1281 0-0.3209 0.4441-0.8259 1.6557l-3.3187 8.415c-0.3172 0.7625-0.4454 1.1444-0.4454 1.9094 0 2.1047 2.6135 1.9156 2.6135 2.9381 0 0.3806-0.1244 0.7587-0.3807 0.7587-1.4031 0-3.1271-0.2537-6.1834-0.2537-0.8931 0-4.2728 0.2537-6.4384 0.2537-0.5735 0-0.9541-0.0609-0.9541-0.6978 0-2.1693 4.4594 0.1281 6.1822-4.0812l6.375-15.361c0.3172-0.8259 0.6344-1.5922 0.6344-1.9765 0-0.3819-0.2538-1.336-0.7625-2.611l-4.7194-11.221c-0.2525-0.6979-0.5734-1.1469-0.8894-1.1469-0.3856 0-0.8309 0.9578-1.0872 1.6594l-12.108 29.958c-0.2563 0.5734-0.3844 1.2116-0.3844 1.5922 0 2.1694 2.7416 2.1694 2.7416 3.1272 0 0.4416-0.1281 0.7587-0.5125 0.7587-1.525 0-3.0563-0.2537-4.5863-0.2537-1.8459 0-3.7615 0.2537-5.61 0.2537-0.6368 0-1.4665-0.2537-1.4665-1.0187 0-1.275 3.0625-0.4453 4.59-4.2056l13.96-34.671"/><path d="m176.56 482.25c1.4603 0 2.1668-0.0647 2.1668 1.0821 0 2.5538-3.4418 10.135-11.283 10.135-7.9672 0-12.494-6.8204-12.494-14.979 0-4.2056 3.315-13.064 12.878-13.064 5.7344 0 11.282 4.5875 11.282 6.0504 0 0.1928 0 0.449-0.255 0.449-1.4044 0-3.5078-3.315-8.9897-3.315-3.8897 0-10.264 3.1235-10.264 13.641h16.958zm-16.958 1.7228c0 3.504 2.805 8.0318 6.7594 8.0318 3.5041 0 7.0728-3.1918 7.0728-6.7568 0-0.9578-0.3806-1.275-1.275-1.275h-12.557" fill-rule="evenodd"/><path d="m189.49 477.92c2.55-1.2079 5.8003-2.2329 5.8003-5.61 0-3.3113-2.55-5.2269-5.6759-5.2269-6.8813 0-6.176 8.4162-7.5791 8.4162-0.9566 0-0.7687-2.0412-0.7687-3.1209 0-5.0391 0-5.1 1.4031-5.1 1.53 0 2.6781-1.8485 7.14-1.8485 4.7156 0 8.6041 3.9531 8.6041 8.7285 0 4.0787-1.6544 6.059-5.2904 7.5866-6.6921 2.6743-8.349 4.014-8.349 6.1187 0 2.611 1.9765 4.0813 4.4631 4.0813 5.7978 0 6.3738-5.5454 7.0081-5.5454 0.9578 0 0.7016 0.765 0.7016 2.4829 0 0.4453 0.0647 2.6171-0.3159 3.1271-0.7675 0.9541-5.1647 1.4629-6.2482 1.4629-4.6547 0-8.604-2.55-8.604-7.65 0-4.5229 4.269-6.181 7.7109-7.9025"/><path d="m202.74 472.82c0-6.5666 4.2069-7.3901 7.14-7.3901 4.4606 0 7.9038 2.1657 7.9038 3.1235 0 0.5087-0.2563 0.5709-0.51 0.5709-1.0822 0-2.04-1.4641-5.4197-1.4641-2.55 0-4.3313 1.2104-4.4619 3.8201v18.553h8.2869l0.8707 2.3286c0.1903 0.3172-0.5498 0.2811-2.147 0.2811h-7.0106c0 4.5912 0.0634 5.9297-0.8272 5.9297-0.5088 0-1.0349 0.3619-1.2837-1.6109-0.5312-4.238-3.9793-5.8948-4.0191-6.3912 0.3384 0.3396-1.1779-0.6791 1.4778-0.5373v-17.213" fill-rule="evenodd"/><g><path d="m234.6 468.87c0.571-1.3385 1.3385-4.0166 2.3572-4.0166 0.9554 0 1.4032 2.1034 2.1047 3.6994l15.87 37.541c1.785 4.2679 3.57 2.6757 3.57 4.0788 0 0.5722-0.3818 0.8259-1.0834 0.8259-0.8944 0-1.8484-0.2537-4.9047-0.2537-1.4031 0-2.8063 0.2537-4.2094 0.2537-0.6406 0-0.9578-0.189-0.9578-0.8259 0-1.4678 4.0775-0.2538 4.0775-3.1881 0.2575-1.3397-0.5087-3.376-0.8906-4.3338l-11.09-27.35c-0.3209-0.7662-0.51-1.7813-1.1469-1.7813-0.7053 0-1.1469 1.4629-2.55 4.8401l-11.154 26.261c-0.2562 0.5735-0.5746 1.5935-0.5746 2.4866 0 2.2938 2.6756 2.3572 2.6109 3.2491 0 0.3831-0.5063 0.6368-0.8894 0.6368-0.8906 0-3.3137-0.2537-5.0365-0.2537-1.9119 0-3.8885 0.2537-5.8613 0.2537-0.5772 0-0.8944-0.3171-0.8944-0.8881 0-1.4056 3.3163-0.1916 4.911-4.0166l15.742-37.224"/><path d="m307.77 502.71c-0.7662 0-2.6744-2.6781-2.6744-3.3797 0-0.6978 1.9082-3.3162 2.6744-3.3162 0.8322 0 2.6819 2.55 2.6819 3.3162 0 0.7687-1.8497 3.3797-2.6819 3.3797"/><path d="m351.41 503.06c-0.7612 0-2.6768-2.6782-2.6768-3.376 0-0.7015 1.9156-3.3162 2.6768-3.3162 0.8272 0 2.6757 2.55 2.6757 3.3162 0 0.7625-1.8485 3.376-2.6757 3.376"/></g><path d="m374.86 472.44c0-3.3772-4.3362-5.1609-6.6287-5.1609-3.3797 0-5.2282 1.3994-5.2282 5.0316 0 5.61 7.7782 6.6324 11.857 7.5231v-7.3938zm0 8.9213c-14.916-2.4853-15.999-6.4994-15.999-9.8803 0-4.5229 2.739-6.0504 6.885-6.0504 3.5712 0 7.0728 1.3994 9.7509 3.6944 0.8297-2.1022 2.4828-3.2528 4.9719-3.2528 0.8919 0 3.6956 0.2563 3.6956 1.5959 0 0.4478-0.5087 0.4478-0.8259 0.4478-0.26 0-0.8297-0.1281-1.0872-0.1281-3.315 0-2.7378 3.7579-2.7378 5.926v13.196c0 5.4172-6.1225 6.5629-10.072 6.5629-7.0728 0.189-10.64-4.2728-10.711-7.201 0-1.1469 1.9157-2.1009 2.9978-2.1009 1.2153 0 1.4032 0.5062 1.4032 1.2041 0 0.7053-0.3819 1.6631-0.3819 2.6171 0 3.5078 2.4828 3.825 5.5428 3.825 3.9519 0 6.5678-2.2328 6.5678-5.5453v-4.9109" fill-rule="evenodd"/><path d="m262.95 467.33c-0.5423-0.0535-4.7193 0.0261-4.7193 2.7428v22.885c0 0.6344-0.3807 1.0188-0.7625 1.0188-1.4678 0-2.7428-2.0375-6.8241-3.1882-0.3159-0.0597-0.5722-0.3196-0.5722-0.7015 0-1.3347 3.5078 0.3209 3.5078-3.5041v-15.044c0-5.7979-2.8075-3.376-2.8075-4.9707 0.0647-0.6344 0.4466-0.7028 0.9578-0.7028 0.7016 0 2.3585 0.2563 4.3948 0.2563 2.6146 0 4.5912-0.2563 5.9272-0.2563 0.2761 0 0.5224 0.0125 0.7152 0 0.2077 0.0125 0.2077 0 0.4279 0 0.4466 0 1.5922 0.2563 5.865 0.2563 3.57 0 5.0975-0.2563 5.9919-0.2563 0.7003 0 1.0187 0.1319 1.0187 0.7028 0 2.04-5.6734-1.02-5.6734 4.906l0.0224 14.204c0 0.8284 5.0739 9.7584 12.84 9.4151 2.3-0.0983 1.9219-0.2102 3.4345 2.1669 0.648 1.0249-2.3286 1.0212-3.6596 0.9117-8.5705-0.6816-10.481-6.5242-12.614-9.6029v0.1281l-0.0224 4.2604c0 0.6344-0.3819 1.0188-0.7625 1.0188-1.4703 0-2.7428-2.0375-7.6525-3.1882-0.3184-0.0597-0.8272-0.3196-0.8272-0.7015 0-1.3347 4.59 0.3209 4.59-3.5041v-16.443c0-1.9953-2.1209-2.9182-2.7951-2.81" fill-rule="evenodd"/><path d="m346.33 467.4c-0.6257 0.01-4.7754-0.2438-4.7754 3.6359v10.517c0 4.8462-1.8509 11.919-10.392 11.919-6.1822 0-9.3691-5.4807-9.2422-4.7144v4.2056c0 0.6344-0.3807 1.0188-0.7613 1.0188-1.4678 0-2.7428-2.0375-8.0381-3.1882-0.3147-0.0597-0.5697-0.3196-0.5697-0.7015 0-1.3347 4.7144 0.3209 4.7144-3.5041v-15.806c0-2.9393-2.1644-3.3349-3.1259-3.3063-0.4217 0.0846-4.3238 0.0971-4.3238 2.6023v22.885c0 0.6344-0.3819 1.0188-0.7638 1.0188-1.4678 0-2.7416-2.0375-6.8203-3.1882-0.3172-0.0597-1.1108-2.2104-0.7339-2.1643 2.0897 0.2363 3.6658 1.7837 3.6658-2.0413v-15.044c0-5.7979-2.8063-3.376-2.8063-4.9707 0.0672-0.6344 0.4478-0.7028 0.9541-0.7028 0.7053 0 2.3572 0.2563 4.4022 0.2563 2.6134 0 4.5875-0.2563 5.9259-0.2563 0.1679 0 0.4516-0.0149 0.5871 0.004 0.1058-0.01 0.3036-0.004 0.4267-0.004 0.7638 0 2.04 0.2563 5.4197 0.2563 3.6969 0 4.9706-0.2563 6.0528-0.2563 0.9553 0 1.4069 0.1319 1.4069 0.8944 0 1.7203-5.6125-0.1257-5.6125 4.2703v14.658c-0.066 1.0225 2.1706 4.9757 7.5219 4.9757 5.1609 0 7.4571-4.7791 7.4571-7.9672v-11.92c0-4.1422-2.7428-2.8672-2.7428-4.1422 0-0.6368 0.3185-0.7687 1.1507-0.7687 0.8271 0 2.1668 0.2563 4.5924 0.2563 3.1185 0 4.7157-0.2563 5.5404-0.2563 0.311 0 0.5137 0 0.7724 0.007 0.2152-0.007 0.4279-0.007 0.6917-0.007 0.7028 0 2.3572 0.2563 4.3984 0.2563 2.6147 0 4.5912-0.2563 5.9259-0.2563 0.831 0 1.2116 0.1928 1.2116 0.7028 0 1.6581-5.0366 0.255-5.0366 3.5041v22.885c0 0.6344-0.3818 1.0188-0.7612 1.0188-1.4678 0-2.7416-2.0375-6.8241-3.1882-0.3172-0.0597-0.5734-0.3196-0.5734-0.7015 0-1.3347 3.5128 0.3209 3.5128-3.5041v-15.044c0-4.3139-1.6072-4.0452-2.4281-4.1447"/><path d="m304.99 490.77c-0.2811 0.4615-0.9279 0.464-1.1394 0.4677l-0.15-0.03c-1.9678-0.7016-3.6707-1.0573-5.0614-1.0573-0.7824 0-1.4703 0.1219-1.9044 0.3483-0.5337 0.2699-0.9665 0.5448-1.3895 0.8072-1.4578 0.9168-2.7167 1.7079-6.8999 1.7079-6.0964 0-10.693-4.488-10.693-10.442 0-3.2429 1.4529-6.2146 3.8213-7.9001-0.9454-0.8931-3.06-3.0202-3.06-5.2281 0-2.7838 0.9876-4.7629 2.6532-5.4134 1.4243-0.7849 4.197-1.2402 8.476-1.3932 6.9012-0.199 8.3764-0.4428 8.3764-2.5637 0-0.9802-0.4901-5.8787-10.148-5.8787-2.4381 0-8.114 0.4652-8.114 4.7542 0 1.4678 0.1082 1.6022 0.8707 2.5662 0.2376 0.301 0.2824 0.6792 0.1145 1.0187-0.1854 0.3844-0.5946 0.622-1.0686 0.622-0.0895 0-0.1828-0.006-0.3395-0.0423-1.2141-0.413-3.0501-1.0374-3.0501-4.0576 0-5.6871 7.3291-7.1898 11.206-7.1898 10.668 0 14.454 5.2481 14.454 9.7385 0 6.1225-6.6201 6.1225-10.178 6.1225-0.4901 0-0.9777-0.006-1.4591-0.0136-0.4615-0.002-0.9118-0.002-1.3522-0.002-4.4108 0-6.0789 0.7724-6.7033 1.4217-0.4192 0.4367-0.4018 0.8521-0.3881 1.2041 0 1.2688 1.3583 3.0737 2.6258 3.0737 0.2264 0 0.4056-0.0485 0.6867-0.1219 0.5958-0.1542 1.5026-0.3893 3.7168-0.3893 6.3799 0 11.012 4.2802 11.012 10.185 0 1.0311-0.153 2.1656-0.4876 3.5588-0.1132 0.2562-0.2289 0.4901-0.3246 0.6891-0.0859 0.1667-0.1705 0.3383-0.2389 0.4901 2.1719 0.2239 5.9073 1.1008 6.0305 1.8322 0.1206 0.2339 0.3507 0.6979 0.1007 1.1146zm-15.985-15.422c-4.4768 0-6.0652 4.4046-6.0652 8.1724 0 3.3797 1.0038 7.4099 5.8127 7.4099 4.483 0 6.0678-4.539 6.0678-8.4324 0-2.1494-0.5672-7.1499-5.8153-7.1499"/><path d="m523.04 467.34c-0.398-0.0995-0.7799-0.9802 0.061-1.3994 0.2425-0.1256-0.1257 0.009 0.0659-0.004 0.2053 0.0124 0.204 0.004 0.4267 0.004 0.449 0 1.5922 0.255 5.865 0.255 3.5725 0 5.1-0.255 5.9943-0.255 0.6979 0 1.0163 0.1281 1.0163 0.7003 0 2.0376-5.6722-1.0175-5.6722 4.9085l0.0236 14.202c0 0.826 5.0714 9.7572 12.84 9.4151 2.3-0.1007 1.9231-0.2065 3.4344 2.1706 0.6468 1.02-2.3286 1.0163-3.6645 0.9106-8.563-0.6854-10.472-6.5231-12.61-9.6079v0.1306l-0.0236 4.2578c0 0.6382-0.3794 1.0225-0.7638 1.0225-1.4653 0-2.739-2.04-7.6475-3.1868-0.3196-0.0685-0.8296-0.3172-0.8296-0.7016 0-1.3397 4.5875 0.3159 4.5875-3.5091v-16.442c0-1.9964-2.4107-2.6084-3.1036-2.8709" fill-rule="evenodd"/><path d="m606.3 488.47c1.275 3.825 3.4406 2.2303 3.4406 3.6969 0 0.5087-0.449 0.7625-1.2116 0.7625-0.6381 0-1.7837-0.2538-3.2515-0.2538-1.7825 0-2.8038 0.2538-3.565 0.2538-1.1507 0-1.9157-0.0622-1.9157-0.6978 0-1.4032 4.0813-0.4453 4.0813-3.8897 0-0.4491 0-1.0188-0.7687-3.315-4.3102-13.769-4.9047-14.403-4.9047-14.403l-6.8204 17.336 0.1257 0.1281c0.1306-0.5759-0.4441 0.3819-0.4441 1.4007 0 2.55 3.6334 1.275 3.6334 2.6146 0 0.6979-0.3831 0.826-1.3421 0.826-1.0151 0-2.4829-0.2538-4.7157-0.2538-1.7203 0-3.1309 0.1381-4.4681 0.1381-0.8918 0-0.9777-0.0833-1.265-0.6468-1.6756-3.2429 2.3634-1.0486 2.9903-2.3609l8.3553-20.585c0.571-1.3397 1.275-2.7428 1.275-4.2703 0-4.9719-6.0068-15.943-15.7-14.637-0.3384 0.0448-1.0959 0.2662-1.3969-0.1319 0.2799-0.0758-0.8745 0.2924 1.117-2.6482 0.714-0.571 2.0524-0.8583 4.34-0.3558 6.5516 1.4405 11.006 8.0307 11.07 8.2259 3.3933 5.0267 11.342 33.067 11.342 33.067" fill-rule="evenodd"/><path d="m393.48 505.85c0 4.59 4.2691 2.8062 4.2691 4.59 0 0.7662-1.7203 0.6406-2.0388 0.6406-1.9778 0-4.014-0.26-6.0553-0.26-1.7191 0-3.3125 0.26-4.9694 0.26-0.3221 0-1.4068-0.1953-1.4068-0.6406 0-2.04 5.1659-0.51 5.1659-4.2691v-21.481c0-9.8181 3.1894-19.185 19.951-19.185 18.552 0 17.782 15.742 17.782 18.865v19.759c0 5.8613 3.7641 4.4619 3.7641 6.2493 0 0.3819-0.5125 0.7016-0.8297 0.7016-1.1494 0-2.2938-0.26-3.5078-0.26-2.4853 0-4.9744 0.26-7.4572 0.26-0.1928 0-0.6369-0.3197-0.6369-0.6406 0-2.4219 5.9297 0.2562 5.9297-6.2431v-20.656c0-7.5181-2.744-15.421-14.728-15.421-8.6028 0-15.232 4.6484-15.232 14.847v22.883"/><path d="m519.37 482.33c1.4665 0 2.1656-0.061 2.1656 1.0822 0 2.5525-3.4419 10.136-11.282 10.136-7.9684 0-12.491-6.8203-12.491-14.98 0-4.2056 3.3125-13.063 12.878-13.063 5.7331 0 11.277 4.5875 11.277 6.054 0 0.1928 0 0.4429-0.2538 0.4429-1.4031 0-3.5053-3.3101-8.9884-3.3101-3.886 0-10.26 3.121-10.26 13.638h16.954zm-16.954 1.7191c0 3.5078 2.805 8.0343 6.7556 8.0343 3.5041 0 7.0716-3.1868 7.0716-6.7593 0-0.9541-0.3782-1.275-1.27-1.275h-12.557" fill-rule="evenodd"/><path d="m547.56 478c2.5513-1.2103 5.8016-2.2291 5.8016-5.6088 0-3.3125-2.55-5.2256-5.6722-5.2256-6.885 0-6.1797 8.4125-7.5841 8.4125-0.9578 0-0.7625-2.0375-0.7625-3.1222 0-5.0341 0-5.0975 1.3969-5.0975 1.5325 0 2.6794-1.8484 7.1437-1.8484 4.7132 0 8.6029 3.9494 8.6029 8.7297 0 4.08-1.6582 6.054-5.2891 7.5853-6.6959 2.6781-8.3516 4.0166-8.3516 6.1212 0 2.6122 1.9766 4.0788 4.4656 4.0788 5.7979 0 6.3713-5.5478 7.0082-5.5478 0.9516 0 0.7015 0.765 0.7015 2.489 0 0.4441 0.066 2.6097-0.3209 3.1222-0.765 0.9578-5.1622 1.4653-6.2469 1.4653-4.6534 0-8.6065-2.5475-8.6065-7.6475 0-4.5265 4.2728-6.1822 7.7134-7.9062"/><path d="m572.85 472.9c0-6.5628 4.2069-7.3925 7.1376-7.3925 4.4631 0 7.9037 2.1656 7.9037 3.1197 0 0.5137-0.255 0.5771-0.51 0.5771-1.0834 0-2.04-1.4678-5.4172-1.4678-2.5512 0-4.335 1.2116-4.4594 3.825v18.545h8.2844l0.867 2.3323c0.1941 0.316-0.551 0.2849-2.142 0.2849h-7.0094c0 4.5875 0.061 5.9259-0.8297 5.9259-0.5087 0-1.0411 0.3632-1.2874-1.6084-0.5324-4.2404-3.9792-5.8973-4.0178-6.3936 0.3371 0.3396-1.1755-0.6767 1.4802-0.5411v-17.207" fill-rule="evenodd"/><g><path d="m481.51 486.93c-0.7513 1.887-1.066 2.8933-1.066 3.0836 0 1.882 3.5812 1.0685 3.5812 2.3249 0 0.6916-0.566 0.6916-1.4442 0.6916-0.7575 0-1.5723-0.25-3.8959-0.25-4.1509 0-4.1509 0.25-5.3438 0.25-1.2588 0-1.3198-0.3147-1.3198-0.7526 0-1.1307 2.2602-0.1903 3.4568-3.0177l9.4923-21.687c0.1853-0.4429 0.4428-1.5089 1.2526-1.5089 0.9478 0 0.9478 0.7551 2.1395 3.3312l9.6166 20.368c0.8832 1.887 3.1458 1.5089 3.1458 2.3249 0 0.8819-1.071 0.9429-1.6942 0.9429-1.0697 0-2.2004-0.25-3.2727-0.25-1.3795 0-2.5761 0.25-3.8959 0.25-0.8147 0-1.5101-0.061-1.5101-0.8135 0-1.5736 3.8959 0.1853 3.8959-3.3349 0-2.8287-1.5698-5.4682-2.7602-7.9834l-4.2168-9.0531-6.1611 15.085"/><path d="m462.5 465.94c0.2152-0.0161 0.2973 0.0125 0.5834 0.0125 0.7015 0 2.3572 0.2537 4.3984 0.2537 2.611 0 4.5863-0.2537 5.926-0.2537 0.8259 0 1.2115 0.1915 1.2115 0.7015 0 1.6569-5.0378 0.2526-5.0378 3.5041v22.885c0 0.6382-0.3831 1.0163-0.7637 1.0163-1.4679 0-2.7429-2.0375-6.8204-3.1844-0.3209-0.0634-0.5734-0.3197-0.5734-0.7015 0-1.3397 3.5066 0.3209 3.5066-3.5054v-15.046c0-4.3437-1.6457-4.1036-2.3572-4.1447-0.2277 0-4.8401-0.2786-4.8401 3.6384v10.517c0 4.8413-1.8509 11.918-10.392 11.918-6.1822 0-9.3716-5.4818-9.2422-4.7168v4.2093c0 0.6382-0.3856 1.0163-0.7663 1.0163-1.4665 0-2.7415-2.0375-8.0318-3.1844-0.3197-0.0634-0.5685-0.3197-0.5685-0.7015 0-1.3397 4.7131 0.3209 4.7131-3.5054v-15.809c0-4.141-3.7628-2.8697-3.7628-4.141 0-0.6381 0.3185-0.7662 1.1432-0.7662 0.77 0 2.045 0.2537 5.4209 0.2537 3.6956 0 4.9731-0.2537 6.0553-0.2537 0.9578 0 1.4056 0.1281 1.4056 0.8906 0 1.7228-5.6087-0.1244-5.6087 4.2728v14.659c-0.0672 1.0188 2.1644 4.9719 7.5181 4.9719 5.1647 0 7.4585-4.7803 7.4585-7.9709v-11.917c0-4.141-2.7428-2.8697-2.7428-4.141 0-0.6381 0.3234-0.7662 1.1493-0.7662 0.8272 0 2.1694 0.2537 4.59 0.2537 3.1222 0 4.7132-0.2537 5.5429-0.2537 0.2724 0 0.6567-0.0125 0.8844-0.0125"/><path d="m467.67 502.61c-0.7638 0-2.6769-2.6781-2.6769-3.3772 0-0.7003 1.9131-3.315 2.6769-3.315 0.8272 0 2.6794 2.55 2.6794 3.315 0 0.7625-1.8522 3.3772-2.6794 3.3772"/><path d="m561.37 471.88c0-5.7979-2.805-3.376-2.805-4.9682 0.0597-0.6381 0.4441-0.7015 0.9528-0.7015 0.7028 0 2.3622 0.2525 4.4022 0.2525 2.6109 0 4.5912-0.2525 5.9272-0.2525 0.8259 0 1.214 0.1915 1.214 0.7015 0 1.6557-5.039 0.2525-5.039 3.5041v22.883c0 0.6369-0.3844 1.0175-0.765 1.0175-1.4691 0-2.7441-2.0362-6.8216-3.1868-0.3172-0.0647-0.5722-0.3172-0.5722-0.6991 0-1.3385 3.5066 0.3184 3.5066-3.5078v-15.042"/><path d="m563.91 502.61c-0.7626 0-2.6744-2.6781-2.6744-3.3772 0-0.7003 1.9118-3.315 2.6744-3.315 0.8296 0 2.6781 2.55 2.6781 3.315 0 0.7625-1.8485 3.3772-2.6781 3.3772"/></g></g><path d="m96.167 526.68h-16.097l-0.97024-0.009c-2.9704 0.051-4.0489-1.0573-4.9395-2.4269l-12.654-18.75-12.103 18.37-0.403 0.61s-0.32963 0.5373-0.90929 0.5572h-0.0037c-0.58215-0.0199-0.91302-0.5572-0.91302-0.5572l-0.40303-0.6021-11.713-18.369-13.044 18.746c-0.89064 1.3696-1.9679 2.4779-4.9408 2.4269l-0.96651 0.009h-16.101l-0.005-15.31h9.4823c1.999 0.0199 2.9219-0.0734 4.2915-1.7204l0.56847-0.8321 19.134-29.972s0.62195-0.9677 1.678-0.9739c1.1407-0.002 1.7726 0.9777 1.7726 0.9777l11.16 16.722h0.0037l11.587-16.699s0.65305-0.9914 1.637-1.0163c1.0561-0.0249 1.6395 0.9939 1.6395 0.9939l18.881 29.968 0.56349 0.8321c0.98019 1.535 2.2179 1.6955 4.2094 1.6768l9.4885 0.006 0.0709 15.344" fill="#eaaa00"/><path d="m71.891 483.8-10.32-16.37-13.286 19.28-10.235-15.05 21.569-33.84c0.74634-1.2675 1.3372-1.4628 1.637-1.4728 0.65429-0.0298 1.0324 0.321 1.7365 1.5052l16.939 30.901c1.5064 2.6831 4.024 2.6483 4.024 2.6483h12.211v15.288h-19.068c-3.4717 0-5.2082-2.8871-5.2082-2.8871" fill="#eaaa00"/></g></g></svg>
